<svg xmlns="http://www.w3.org/2000/svg" viewBox="0 -0.5 90 46" shape-rendering="crispEdges">
<metadata>Made with Pixels to Svg https://codepen.io/shshaw/pen/XbxvNj</metadata>
<path stroke="#222034" d="M17 13h2M20 13h33M54 13h22M15 14h2M76 14h2M15 15h2M76 15h2M15 16h2M76 16h2M15 17h2M76 17h2M15 18h2M76 18h2M15 19h2M76 19h2M15 20h2M76 20h2M15 21h2M76 21h2M15 22h2M76 22h2M15 23h2M76 23h2M15 24h2M76 24h1M15 25h2M76 25h2M15 26h2M76 26h2M15 27h2M76 27h2M15 28h2M76 28h2M15 29h1M76 29h2M15 30h1M76 30h2M15 31h2M76 31h2M17 32h10M28 32h22M51 32h7M60 32h16M15 34h2M76 34h2M15 35h6M22 35h14M37 35h10M48 35h13M63 35h15" />
<path stroke="#222134" d="M19 13h1M16 29h1M16 30h1M58 32h1M61 35h1" />
<path stroke="#222035" d="M53 13h1M77 24h1M50 32h1M59 32h1M47 35h1M62 35h1" />
<path stroke="#e5892b" d="M17 14h24M42 14h34M17 15h8M26 15h4M32 15h29M63 15h7M71 15h5M17 16h5M23 16h44M68 16h8M17 17h5M23 17h3M33 17h8M42 17h3M46 17h5M56 17h3M60 17h7M68 17h8M17 18h2M20 18h6M27 18h6M34 18h4M39 18h1M41 18h1M43 18h4M48 18h2M51 18h4M57 18h2M60 18h6M68 18h1M70 18h6M17 19h1M19 19h7M27 19h7M35 19h5M41 19h1M43 19h6M50 19h7M58 19h1M60 19h5M66 19h10M17 20h2M20 20h6M27 20h4M32 20h2M35 20h5M41 20h1M43 20h5M49 20h10M60 20h2M63 20h1M65 20h8M74 20h2M17 21h9M27 21h1M29 21h4M34 21h5M40 21h3M44 21h4M49 21h6M56 21h3M60 21h3M64 21h12M17 22h7M25 22h1M33 22h6M42 22h1M44 22h4M49 22h4M54 22h3M60 22h2M64 22h7M72 22h4M17 23h4M22 23h4M28 23h5M34 23h5M40 23h3M44 23h4M49 23h10M60 23h1M62 23h1M64 23h12M18 24h8M27 24h7M35 24h3M45 24h3M49 24h10M61 24h3M65 24h11M17 25h9M27 25h6M35 25h1M37 25h1M39 25h3M45 25h3M49 25h1M51 25h6M58 25h1M60 25h5M66 25h10M17 26h9M27 26h7M35 26h3M39 26h5M45 26h4M50 26h7M58 26h1M60 26h5M66 26h1M68 26h8M18 27h8M27 27h6M34 27h3M38 27h7M46 27h4M51 27h5M57 27h2M60 27h6M67 27h7M75 27h1M17 28h9M33 28h4M38 28h5M44 28h1M46 28h5M56 28h3M60 28h7M68 28h8M17 29h59M17 30h1M19 30h31M51 30h7M59 30h1M61 30h6M68 30h8M17 31h9M27 31h2M30 31h3M34 31h32M67 31h3M71 31h1M73 31h3" />
<path stroke="#e5892a" d="M41 14h1M62 15h1M38 18h1M47 18h1M62 20h1M41 22h1M53 22h1M71 22h1M17 24h1M50 25h1M17 27h1M74 27h1M50 30h1M26 31h1M29 31h1" />
<path stroke="#e5882b" d="M25 15h1M31 15h1M61 15h1M70 15h1M22 16h1M67 16h1M22 17h1M19 18h1M55 18h1M67 18h1M19 20h1M31 20h1M73 20h1M28 21h1M55 21h1M40 22h1M58 22h1M43 25h1M67 26h1M43 28h1M58 30h1M67 30h1M70 31h1" />
<path stroke="#e4892b" d="M30 15h1M45 17h1M69 18h1M18 19h1M24 22h1M57 22h1M21 23h1M27 23h1M33 25h1M36 25h1M42 25h1M57 25h1M18 30h1M60 30h1M33 31h1M66 31h1M72 31h1" />
<path stroke="#000000" d="M26 17h7M41 17h1M51 17h5M59 17h1M67 17h1M26 18h1M33 18h1M40 18h1M42 18h1M50 18h1M56 18h1M59 18h1M66 18h1M34 19h1M40 19h1M42 19h1M49 19h1M57 19h1M59 19h1M65 19h1M26 20h1M34 20h1M42 20h1M48 20h1M59 20h1M64 20h1M26 21h1M33 21h1M39 21h1M43 21h1M48 21h1M59 21h1M63 21h1M26 22h7M39 22h1M43 22h1M48 22h1M59 22h1M62 22h1M26 23h1M33 23h1M39 23h1M43 23h1M48 23h1M59 23h1M61 23h1M63 23h1M26 24h1M38 24h4M43 24h2M48 24h1M59 24h2M64 24h1M26 25h1M34 25h1M38 25h1M44 25h1M48 25h1M59 25h1M65 25h1M26 26h1M34 26h1M38 26h1M49 26h1M57 26h1M59 26h1M65 26h1M26 27h1M33 27h1M37 27h1M45 27h1M50 27h1M56 27h1M59 27h1M66 27h1M26 28h7M37 28h1M45 28h1M51 28h5M59 28h1M67 28h1" />
<path stroke="#45275b" d="M78 18h2M13 19h2M78 19h2M13 20h2M78 20h1M13 21h2M78 21h2M13 22h2M78 22h2M13 23h2M78 23h2M13 24h2M78 24h2M13 25h2M78 25h2M13 26h2M79 26h1M13 27h2M78 27h2M14 28h1M78 28h2M13 29h2M78 29h2M13 30h1M78 30h2M13 31h2M78 31h2M13 32h4M76 32h4M13 33h30M44 33h4M49 33h1M51 33h24M76 33h4M13 34h1M17 34h4M22 34h3M26 34h5M32 34h13M46 34h2M49 34h6M56 34h14M71 34h5M78 34h2M15 36h12M28 36h41M70 36h3M74 36h4" />
<path stroke="#000001" d="M26 19h1M44 26h1" />
<path stroke="#000100" d="M40 20h1M34 24h1" />
<path stroke="#45265b" d="M79 20h1M13 28h1M43 33h1M25 34h1M31 34h1M55 34h1M70 34h1M73 36h1" />
<path stroke="#010000" d="M63 22h1M42 24h1" />
<path stroke="#44275b" d="M78 26h1M48 33h1M75 33h1M21 34h1M45 34h1M48 34h1M27 36h1M69 36h1" />
<path stroke="#45275a" d="M14 30h1M50 33h1M14 34h1" />
<path stroke="#232034" d="M27 32h1M21 35h1M36 35h1" />
</svg>