<svg xmlns="http://www.w3.org/2000/svg" viewBox="0 -0.5 628 469" shape-rendering="crispEdges">
<metadata>Made with Pixels to Svg https://codepen.io/shshaw/pen/XbxvNj</metadata>
<path stroke="#000000" d="M220 99h118M220 100h118M218 101h122M218 102h122M218 103h122M218 104h5M335 104h5M218 105h5M335 105h5M218 106h5M335 106h5M218 107h5M335 107h5M218 108h5M335 108h5M218 109h5M335 109h5M335 110h5M335 111h5M335 112h5M335 113h5M335 114h5M335 115h5M335 116h5M335 117h5M335 118h5M335 119h5M335 120h5M251 121h5M261 121h6M270 121h5M278 121h6M335 121h5M250 122h7M261 122h6M270 122h6M278 122h7M335 122h5M250 123h2M256 123h1M261 123h1M266 123h1M270 123h1M275 123h1M278 123h2M284 123h1M335 123h5M250 124h2M256 124h1M261 124h1M266 124h1M270 124h1M275 124h1M278 124h2M284 124h1M335 124h5M250 125h2M256 125h1M261 125h1M266 125h1M270 125h1M275 125h1M278 125h2M284 125h1M335 125h5M250 126h2M256 126h6M266 126h5M275 126h5M284 126h1M335 126h5M250 127h2M284 127h1M335 127h5M250 128h2M284 128h1M335 128h5M250 129h2M284 129h1M335 129h5M250 130h2M284 130h1M335 130h5M250 131h2M284 131h2M335 131h5M250 132h2M284 132h3M335 132h5M251 133h3M285 133h2M335 133h5M252 134h2M285 134h2M335 134h5M218 135h5M252 135h2M284 135h3M335 135h5M218 136h5M252 136h2M284 136h3M335 136h5M218 137h5M252 137h2M284 137h3M335 137h5M218 138h5M252 138h33M335 138h5M218 139h5M254 139h2M275 139h10M335 139h5M218 140h5M254 140h2M275 140h10M335 140h5M218 141h5M255 141h1M275 141h12M335 141h5M218 142h5M254 142h7M268 142h13M284 142h3M335 142h5M218 143h5M254 143h7M268 143h7M278 143h2M284 143h3M335 143h5M218 144h5M254 144h7M268 144h7M278 144h2M284 144h3M335 144h5M218 145h5M254 145h2M259 145h2M268 145h1M272 145h3M278 145h2M284 145h3M335 145h5M218 146h5M255 146h1M259 146h2M268 146h1M272 146h2M278 146h2M284 146h3M335 146h5M218 147h5M255 147h6M268 147h6M278 147h2M284 147h3M335 147h5M218 148h5M255 148h6M268 148h6M278 148h2M284 148h3M335 148h5M218 149h5M255 149h1M278 149h2M281 149h6M335 149h5M218 150h5M255 150h1M278 150h9M335 150h5M218 151h5M255 151h1M278 151h9M335 151h5M218 152h5M255 152h1M278 152h9M335 152h5M218 153h5M255 153h1M278 153h9M335 153h5M218 154h5M254 154h2M272 154h18M335 154h5M218 155h5M249 155h7M272 155h13M290 155h1M335 155h5M218 156h5M249 156h1M254 156h2M272 156h13M290 156h1M335 156h5M218 157h5M248 157h2M254 157h27M290 157h1M335 157h5M218 158h5M248 158h1M250 158h31M290 158h3M335 158h5M218 159h5M248 159h1M250 159h31M290 159h3M335 159h5M218 160h5M248 160h1M250 160h11M262 160h19M290 160h3M335 160h5M218 161h5M247 161h2M250 161h32M291 161h2M335 161h5M218 162h5M246 162h1M250 162h33M291 162h2M335 162h5M218 163h5M246 163h1M250 163h9M272 163h11M288 163h9M335 163h5M218 164h5M246 164h1M250 164h9M272 164h11M288 164h9M335 164h5M218 165h5M246 165h1M251 165h8M272 165h8M288 165h10M335 165h5M218 166h5M246 166h1M255 166h4M272 166h4M285 166h13M335 166h5M218 167h5M246 167h1M255 167h4M272 167h4M285 167h13M335 167h5M218 168h5M246 168h1M255 168h4M272 168h4M285 168h13M335 168h5M218 169h5M246 169h1M256 169h1M262 169h7M274 169h1M285 169h13M335 169h5M218 170h5M246 170h1M256 170h1M262 170h7M274 170h1M283 170h8M297 170h1M335 170h5M218 171h5M246 171h1M262 171h7M283 171h7M297 171h1M335 171h5M218 172h5M246 172h1M262 172h7M283 172h7M297 172h1M335 172h5M218 173h5M247 173h2M262 173h7M283 173h7M297 173h1M335 173h5M218 174h5M247 174h2M283 174h4M297 174h1M335 174h5M218 175h5M247 175h2M283 175h4M297 175h1M335 175h5M218 176h5M247 176h2M283 176h4M297 176h1M335 176h5M218 177h5M247 177h2M256 177h4M271 177h4M283 177h4M297 177h1M335 177h5M218 178h5M247 178h1M256 178h19M283 178h4M297 178h1M335 178h5M218 179h5M247 179h1M259 179h14M283 179h4M297 179h1M335 179h5M218 180h5M247 180h1M259 180h14M283 180h4M297 180h1M335 180h5M218 181h5M247 181h2M259 181h14M283 181h4M297 181h12M335 181h5M218 182h5M247 182h14M271 182h29M307 182h3M335 182h5M218 183h5M247 183h14M271 183h29M307 183h3M335 183h5M218 184h5M247 184h14M271 184h29M307 184h3M335 184h5M218 185h5M246 185h65M335 185h5M218 186h5M246 186h1M258 186h1M261 186h1M282 186h3M295 186h4M307 186h2M335 186h5M218 187h5M246 187h3M256 187h29M295 187h14M335 187h5M218 188h5M246 188h3M256 188h29M295 188h14M335 188h5M218 189h5M246 189h3M256 189h29M295 189h14M335 189h5M218 190h5M247 190h12M269 190h4M283 190h14M307 190h2M335 190h5M218 191h5M258 191h1M269 191h4M283 191h14M308 191h1M335 191h5M218 192h5M258 192h1M269 192h4M283 192h14M308 192h1M335 192h5M218 193h5M258 193h1M269 193h4M281 193h19M308 193h1M335 193h5M218 194h5M258 194h1M269 194h4M281 194h4M296 194h4M307 194h2M335 194h5M218 195h5M258 195h1M269 195h4M307 195h2M335 195h5M218 196h5M258 196h1M269 196h4M307 196h2M335 196h5M218 197h5M258 197h1M269 197h4M307 197h2M335 197h5M218 198h5M258 198h1M266 198h7M287 198h7M307 198h2M335 198h5M218 199h5M258 199h1M266 199h7M287 199h7M309 199h1M335 199h5M218 200h5M258 200h1M266 200h7M287 200h7M309 200h1M335 200h5M218 201h5M258 201h1M265 201h8M281 201h1M287 201h7M299 201h1M309 201h1M335 201h5M218 202h5M258 202h13M281 202h1M287 202h7M299 202h1M309 202h1M335 202h5M218 203h5M258 203h13M280 203h4M297 203h4M309 203h1M335 203h5M218 204h5M258 204h13M280 204h4M297 204h4M309 204h1M335 204h5M218 205h5M258 205h13M280 205h4M297 205h4M309 205h1M335 205h5M218 206h5M258 206h10M276 206h8M297 206h8M309 206h1M335 206h5M218 207h5M259 207h9M273 207h11M297 207h9M309 207h1M335 207h5M218 208h5M259 208h9M273 208h11M297 208h9M309 208h1M335 208h5M218 209h5M263 209h2M273 209h33M309 209h1M335 209h5M218 210h5M263 210h2M274 210h32M307 210h1M335 210h5M218 211h5M263 211h3M275 211h31M307 211h1M335 211h5M218 212h5M263 212h3M275 212h31M307 212h1M335 212h5M218 213h5M263 213h3M275 213h31M307 213h1M335 213h5M218 214h5M265 214h1M275 214h27M306 214h2M335 214h5M218 215h5M265 215h1M271 215h13M300 215h2M306 215h1M335 215h5M218 216h5M265 216h1M271 216h13M300 216h7M335 216h5M218 217h5M266 217h18M300 217h2M335 217h5M218 218h5M269 218h9M300 218h1M335 218h5M218 219h5M269 219h9M300 219h1M335 219h5M218 220h5M269 220h9M300 220h1M335 220h5M218 221h5M269 221h9M300 221h1M335 221h5M218 222h5M269 222h6M276 222h2M300 222h1M335 222h5M218 223h5M269 223h3M276 223h2M282 223h6M295 223h6M335 223h5M218 224h5M269 224h3M276 224h2M282 224h6M295 224h6M335 224h5M218 225h5M269 225h3M276 225h2M282 225h2M287 225h1M295 225h2M300 225h1M335 225h5M218 226h5M269 226h3M276 226h2M281 226h3M287 226h1M295 226h2M300 226h2M335 226h5M218 227h5M269 227h3M276 227h2M281 227h7M295 227h7M335 227h5M218 228h5M269 228h3M276 228h2M281 228h7M295 228h7M335 228h5M218 229h5M269 229h3M275 229h13M295 229h7M335 229h5M218 230h5M269 230h12M300 230h1M335 230h5M218 231h5M271 231h10M300 231h2M335 231h5M218 232h5M271 232h10M300 232h2M335 232h5M218 233h5M271 233h33M218 234h5M269 234h3M302 234h2M218 235h5M269 235h3M302 235h2M218 236h5M269 236h3M302 236h2M218 237h5M269 237h2M302 237h2M218 238h5M269 238h2M302 238h3M218 239h5M269 239h3M304 239h2M218 240h5M270 240h2M304 240h2M218 241h5M271 241h1M304 241h2M218 242h5M271 242h1M304 242h2M218 243h5M271 243h1M304 243h2M218 244h5M271 244h1M304 244h2M218 245h5M271 245h1M276 245h5M285 245h5M294 245h6M304 245h2M218 246h5M271 246h1M276 246h2M280 246h1M285 246h1M289 246h1M294 246h1M299 246h1M304 246h2M218 247h5M271 247h1M276 247h2M280 247h1M285 247h1M289 247h1M294 247h1M299 247h1M304 247h2M218 248h5M271 248h1M276 248h2M280 248h1M285 248h1M289 248h1M294 248h1M299 248h1M304 248h2M218 249h5M271 249h7M280 249h6M289 249h6M299 249h7M218 250h5M272 250h6M281 250h5M289 250h6M300 250h5M218 251h5M218 252h5M218 253h5M218 254h5M218 255h5M218 256h5M218 257h5M218 258h5M335 258h5M218 259h5M335 259h5M218 260h5M335 260h5M218 261h5M335 261h5M218 262h5M335 262h5M218 263h5M335 263h5M218 264h5M335 264h5M218 265h5M335 265h5M218 266h5M335 266h5M218 267h59M278 267h62M218 268h122M218 269h122M221 270h116M221 271h116" />
<path stroke="#ffffff" d="M223 104h112M223 105h112M223 106h112M223 107h112M223 108h112M223 109h112M218 110h117M218 111h117M227 112h108M227 113h108M227 114h108M227 115h108M219 116h5M230 116h105M219 117h5M230 117h105M219 118h5M230 118h70M305 118h30M219 119h5M230 119h70M305 119h30M218 120h6M227 120h73M305 120h30M218 121h1M227 121h24M256 121h5M267 121h3M275 121h3M284 121h14M307 121h28M218 122h1M227 122h23M257 122h4M267 122h3M276 122h2M285 122h13M307 122h28M218 123h1M227 123h23M257 123h4M267 123h3M276 123h2M285 123h13M307 123h28M218 124h1M227 124h23M257 124h4M267 124h3M276 124h2M285 124h13M307 124h28M222 125h28M257 125h4M267 125h3M276 125h2M285 125h15M305 125h30M222 126h28M285 126h15M305 126h30M222 127h28M285 127h15M305 127h30M222 128h28M285 128h15M305 128h30M229 129h21M285 129h15M305 129h30M229 130h21M253 130h4M262 130h5M272 130h4M280 130h4M285 130h15M305 130h30M229 131h21M253 131h4M262 131h5M272 131h4M280 131h4M286 131h14M305 131h30M229 132h21M253 132h4M262 132h5M272 132h4M280 132h4M287 132h13M305 132h30M218 133h33M287 133h13M305 133h30M218 134h34M287 134h11M307 134h28M223 135h18M242 135h10M287 135h11M307 135h28M223 136h29M287 136h11M307 136h28M223 137h29M287 137h11M307 137h28M223 138h29M285 138h8M302 138h1M313 138h22M223 139h31M285 139h8M301 139h2M313 139h22M223 140h31M285 140h8M302 140h1M313 140h22M223 141h32M287 141h6M313 141h22M223 142h19M243 142h11M287 142h11M307 142h28M223 143h31M287 143h11M307 143h28M223 144h31M287 144h11M307 144h28M223 145h31M256 145h3M269 145h3M287 145h11M307 145h28M223 146h32M256 146h3M269 146h3M287 146h11M307 146h28M223 147h32M287 147h11M307 147h28M223 148h32M287 148h11M307 148h28M223 149h32M287 149h11M307 149h28M223 150h32M287 150h11M307 150h28M223 151h32M287 151h11M307 151h28M223 152h32M287 152h11M307 152h28M223 153h32M287 153h11M307 153h28M223 154h31M290 154h8M307 154h28M223 155h26M291 155h7M307 155h28M223 156h26M291 156h7M307 156h28M223 157h25M291 157h7M307 157h28M223 158h25M293 158h5M307 158h28M223 159h25M293 159h5M307 159h28M223 160h25M293 160h5M307 160h28M223 161h24M293 161h5M307 161h28M223 162h23M293 162h5M307 162h28M223 163h23M260 163h2M269 163h2M297 163h1M307 163h28M223 164h23M260 164h2M269 164h2M297 164h1M307 164h28M223 165h23M260 165h2M269 165h2M307 165h28M223 166h23M248 166h1M260 166h2M269 166h2M307 166h28M223 167h23M248 167h1M260 167h2M269 167h2M307 167h28M223 168h23M248 168h1M260 168h2M269 168h2M277 168h1M307 168h28M223 169h23M248 169h1M260 169h2M269 169h2M277 169h1M307 169h28M223 170h23M248 170h2M260 170h2M269 170h2M277 170h1M307 170h28M223 171h23M260 171h2M269 171h2M277 171h1M307 171h28M223 172h23M260 172h2M269 172h2M307 172h28M223 173h24M260 173h2M269 173h2M307 173h28M223 174h24M260 174h2M269 174h2M307 174h28M223 175h24M260 175h2M269 175h2M307 175h28M223 176h24M260 176h2M269 176h2M307 176h28M223 177h24M260 177h2M269 177h2M307 177h28M223 178h24M307 178h28M223 179h24M307 179h28M223 180h24M307 180h28M223 181h24M309 181h26M223 182h24M264 182h1M310 182h25M223 183h24M262 183h3M310 183h25M223 184h24M262 184h5M310 184h25M223 185h23M311 185h24M223 186h23M309 186h26M223 187h23M289 187h5M309 187h26M223 188h23M291 188h3M309 188h26M223 189h23M291 189h1M309 189h26M223 190h9M233 190h14M309 190h26M223 191h26M309 191h26M223 192h26M309 192h26M223 193h26M309 193h26M223 194h26M285 194h2M294 194h2M309 194h26M223 195h26M285 195h2M294 195h2M309 195h26M223 196h26M285 196h2M294 196h2M309 196h26M223 197h26M285 197h2M294 197h2M309 197h26M223 198h26M285 198h2M294 198h2M309 198h26M223 199h26M285 199h2M294 199h2M310 199h25M223 200h26M278 200h1M285 200h2M294 200h2M310 200h25M223 201h26M278 201h1M285 201h2M294 201h2M306 201h2M310 201h25M223 202h26M278 202h1M285 202h2M294 202h2M307 202h1M310 202h25M223 203h26M278 203h1M285 203h2M294 203h2M307 203h1M310 203h25M223 204h26M285 204h2M294 204h2M307 204h1M310 204h25M223 205h26M285 205h2M294 205h2M307 205h1M310 205h25M223 206h10M234 206h15M285 206h2M294 206h2M310 206h25M223 207h26M258 207h1M285 207h2M294 207h2M310 207h25M223 208h26M258 208h1M285 208h2M294 208h2M310 208h25M223 209h26M258 209h5M310 209h25M223 210h26M258 210h5M309 210h26M223 211h26M258 211h5M308 211h27M223 212h26M258 212h5M308 212h24M333 212h2M223 213h26M258 213h5M308 213h27M223 214h23M247 214h2M258 214h7M308 214h27M223 215h26M258 215h7M307 215h28M223 216h26M258 216h7M307 216h28M223 217h26M258 217h8M302 217h33M223 218h26M258 218h11M301 218h14M316 218h7M324 218h11M223 219h26M258 219h11M301 219h34M223 220h26M258 220h11M301 220h34M223 221h26M258 221h11M301 221h34M223 222h26M258 222h11M301 222h34M223 223h26M258 223h6M265 223h4M301 223h34M223 224h26M258 224h11M301 224h34M223 225h26M258 225h11M284 225h3M297 225h3M301 225h34M223 226h26M258 226h11M284 226h3M297 226h3M302 226h33M223 227h26M258 227h11M302 227h33M223 228h26M258 228h11M302 228h33M223 229h26M258 229h11M302 229h33M223 230h20M263 230h6M301 230h34M223 231h20M253 231h1M263 231h8M302 231h33M223 232h20M253 232h2M263 232h8M302 232h33M223 233h20M253 233h1M263 233h8M304 233h36M223 234h26M258 234h11M304 234h36M223 235h26M258 235h11M304 235h26M223 236h26M258 236h11M304 236h23M328 236h2M223 237h26M258 237h11M304 237h26M223 238h28M256 238h13M305 238h25M223 239h28M256 239h13M272 239h4M280 239h4M289 239h5M299 239h4M306 239h31M223 240h28M256 240h14M272 240h4M280 240h4M289 240h5M299 240h4M306 240h31M223 241h28M256 241h15M272 241h4M280 241h4M289 241h5M299 241h4M306 241h31M223 242h28M256 242h15M306 242h31M223 243h28M256 243h15M306 243h26M223 244h28M256 244h15M306 244h26M223 245h28M256 245h15M306 245h26M223 246h28M256 246h15M278 246h2M286 246h3M295 246h4M306 246h26M223 247h26M258 247h13M278 247h2M286 247h3M295 247h4M306 247h26M335 247h5M223 248h5M229 248h20M258 248h13M278 248h2M286 248h3M296 248h3M306 248h2M309 248h20M335 248h5M223 249h26M258 249h13M278 249h2M286 249h3M295 249h4M306 249h23M335 249h5M223 250h26M258 250h14M278 250h3M286 250h3M295 250h5M305 250h24M335 250h5M223 251h28M256 251h73M335 251h5M223 252h28M256 252h76M223 253h28M256 253h76M223 254h109M223 255h109M223 256h117M223 257h117M223 258h112M223 259h112M223 260h112M223 261h112M223 262h111M223 263h112M223 264h4M228 264h107M223 265h112M223 266h112" />
<path stroke="#c83138" d="M216 112h11M216 113h11M216 114h11M216 115h11M213 116h6M224 116h6M213 117h6M224 117h6M213 118h6M224 118h6M213 119h6M224 119h6M224 120h3M219 121h8M219 122h8M219 123h8M219 124h8M213 125h9M213 126h9M213 127h9M213 128h9M213 129h16M213 130h16M213 131h16M213 132h16M330 235h16M330 236h16M330 237h16M330 238h16M337 239h9M337 240h9M337 241h9M337 242h9M332 243h8M332 244h8M332 245h8M332 246h8M332 247h3M329 248h6M340 248h6M329 249h6M340 249h6M329 250h6M340 250h6M329 251h6M340 251h6M332 252h11M332 253h11M332 254h11M332 255h11" />
<path stroke="#ffa300" d="M300 118h5M302 121h2M302 122h2M300 123h7M255 124h1M262 124h3M271 124h3M280 124h3M300 124h7M254 125h2M262 125h3M271 125h3M280 125h3M302 125h3M254 126h2M262 126h3M271 126h3M280 126h3M302 126h3M254 127h21M276 127h8M254 128h30M258 129h26M258 130h4M268 130h4M277 130h3M302 130h3M258 131h4M268 131h4M277 131h3M302 131h3M258 132h4M268 132h4M277 132h3M302 132h3M258 133h4M267 133h5M276 133h4M302 133h3M300 134h2M304 134h3M305 135h2M305 136h2M305 137h2M305 138h8M305 146h2M300 147h7M300 148h7M300 149h7M300 150h7M300 151h7M300 152h7M300 153h7M300 154h7M300 155h7M300 156h7M251 157h3M286 157h4M300 157h7M284 158h6M300 158h7M284 159h6M300 159h7M283 160h7M300 160h7M284 161h7M302 161h5M285 162h6M285 163h3M285 164h3M284 165h4M250 166h5M283 166h2M249 167h6M283 167h2M249 168h6M278 168h7M249 169h7M278 169h7M298 169h9M250 170h6M278 170h5M294 170h3M298 170h9M250 171h6M278 171h5M294 171h3M251 172h5M276 172h7M294 172h3M251 173h5M276 173h7M293 173h4M251 174h5M276 174h7M293 174h4M251 175h5M276 175h7M293 175h4M251 176h5M276 176h7M293 176h4M251 177h5M276 177h7M291 177h6M251 178h5M276 178h7M291 178h6M253 179h6M276 179h7M291 179h6M254 180h5M280 180h3M291 180h6M291 181h6M262 186h20M299 186h8M259 190h6M259 191h6M273 191h3M297 191h5M259 192h6M273 192h7M297 192h6M259 193h6M273 193h7M300 193h5M259 194h6M273 194h7M300 194h5M259 195h4M273 195h7M300 195h5M259 196h4M273 196h7M300 196h5M259 197h4M273 197h7M300 197h5M259 198h4M273 198h7M300 198h5M259 199h3M273 199h7M300 199h5M259 200h3M273 200h5M300 200h6M249 201h9M259 201h3M273 201h5M300 201h6M249 202h9M271 202h7M300 202h7M271 203h7M301 203h6M271 204h2M301 204h6M271 205h2M301 205h5M268 206h4M268 207h3M268 208h3M265 209h6M249 210h5M265 210h7M249 211h7M266 211h7M249 212h7M266 212h6M249 213h7M266 213h6M249 214h7M266 214h4M302 214h3M249 215h7M249 216h7M249 217h7M249 218h7M249 219h7M249 220h7M249 221h7M249 222h7M249 223h7M249 224h7M249 225h2M243 233h8M249 234h2M249 235h2M249 236h2M249 237h3M254 237h2M251 238h3M276 238h4M284 238h5M294 238h4M251 239h3M276 239h3M284 239h4M294 239h4M251 240h3M276 240h3M284 240h4M294 240h4M251 241h3M276 241h3M284 241h4M294 241h4M272 242h26M272 243h29M272 244h8M281 244h21M251 245h3M273 245h3M282 245h3M291 245h3M300 245h2M251 246h3M273 246h3M282 246h3M291 246h3M300 246h2M249 247h7M273 247h3M282 247h3M291 247h3M300 247h1M249 248h7M252 249h2M252 250h2M251 253h5" />
<path stroke="#a93b3b" d="M300 119h5M300 120h5M298 121h4M304 121h3M298 122h4M304 122h3M300 127h5M300 128h5M300 129h5M302 134h2M300 135h5M300 136h5M300 137h5M300 138h1M304 138h1M293 139h7M305 139h8M293 140h7M305 140h8M293 141h8M304 141h9M298 142h9M298 143h9M298 144h9M298 145h9M300 146h5M259 163h1M262 163h7M271 163h1M259 164h1M262 164h7M271 164h1M259 165h1M262 165h7M271 165h1M298 165h9M259 166h1M262 166h7M271 166h1M298 166h9M259 167h1M262 167h7M271 167h1M298 167h9M259 168h1M262 168h7M271 168h1M298 168h9M257 169h3M271 169h3M257 170h3M271 170h3M291 170h3M256 171h4M271 171h4M290 171h4M256 172h4M271 172h4M290 172h4M256 173h4M271 173h4M290 173h3M256 174h4M262 174h7M271 174h4M287 174h6M256 175h4M262 175h7M271 175h4M287 175h6M256 176h4M262 176h7M271 176h4M287 176h6M262 177h7M287 177h4M287 178h4M287 179h4M287 180h4M287 181h4M265 190h4M265 191h4M265 192h4M265 193h4M265 194h4M287 194h7M263 195h6M281 195h4M287 195h7M296 195h4M263 196h6M281 196h4M287 196h7M296 196h4M263 197h6M281 197h4M287 197h7M296 197h4M263 198h3M281 198h4M296 198h4M262 199h4M281 199h4M296 199h4M262 200h4M281 200h4M296 200h4M262 201h3M282 201h3M296 201h3M282 202h3M296 202h3M249 203h9M284 203h1M287 203h7M296 203h1M249 204h9M284 204h1M287 204h7M296 204h1M249 205h9M284 205h1M287 205h7M296 205h1M249 206h9M284 206h1M287 206h7M296 206h1M284 207h1M287 207h7M296 207h1M284 208h1M287 208h7M296 208h1M251 225h5M249 226h9M249 227h9M249 228h9M249 229h9M243 230h9M255 230h8M243 231h8M256 231h7M243 232h8M256 232h7M251 233h1M255 233h1M251 234h5M251 235h5M251 236h5M252 237h2M251 242h5M251 243h5M251 244h5M249 249h3M254 249h4M249 250h3M254 250h4M251 251h5M251 252h5" />
<path stroke="#a95236" d="M252 123h4M262 123h4M271 123h4M280 123h4M298 123h2M252 124h3M265 124h1M274 124h1M283 124h1M298 124h2M252 125h2M265 125h1M274 125h1M283 125h1M300 125h2M252 126h2M265 126h1M274 126h1M283 126h1M300 126h2M252 127h2M275 127h1M252 128h2M252 129h6M252 130h1M257 130h1M267 130h1M276 130h1M300 130h2M252 131h1M257 131h1M267 131h1M276 131h1M300 131h2M252 132h1M257 132h1M267 132h1M276 132h1M300 132h2M254 133h4M262 133h5M272 133h4M280 133h5M300 133h2M254 134h31M298 134h2M254 135h30M298 135h2M254 136h30M298 136h2M254 137h30M298 137h2M293 138h7M298 146h2M298 147h2M298 148h2M298 149h2M298 150h2M298 151h2M298 152h2M298 153h1M298 154h2M285 155h5M298 155h2M250 156h4M285 156h5M298 156h2M250 157h1M281 157h5M298 157h2M249 158h1M281 158h3M298 158h2M249 159h1M281 159h3M298 159h2M249 160h1M281 160h2M298 160h2M249 161h1M282 161h2M298 161h4M247 162h3M283 162h2M298 162h9M247 163h3M283 163h2M298 163h9M247 164h3M283 164h2M298 164h9M247 165h4M280 165h4M247 166h1M249 166h1M276 166h7M247 167h1M276 167h7M247 168h1M276 168h1M247 169h1M275 169h2M247 170h1M275 170h2M247 171h3M275 171h2M247 172h4M275 172h1M249 173h2M275 173h1M249 174h2M275 174h1M249 175h2M275 175h1M249 176h2M275 176h1M249 177h2M275 177h1M248 178h3M275 178h1M248 179h5M273 179h3M248 180h6M273 180h7M249 181h10M273 181h10M273 190h10M297 190h10M276 191h7M302 191h6M280 192h3M303 192h5M280 193h1M305 193h3M280 194h1M305 194h2M280 195h1M305 195h2M280 196h1M305 196h2M280 197h1M305 197h2M280 198h1M305 198h2M280 199h1M305 199h4M279 200h2M306 200h3M279 201h2M308 201h1M279 202h2M308 202h1M279 203h1M308 203h1M273 204h7M308 204h1M273 205h7M306 205h1M308 205h1M272 206h4M305 206h4M249 207h9M271 207h2M306 207h3M249 208h9M271 208h2M306 208h3M249 209h9M271 209h2M306 209h3M254 210h4M272 210h2M306 210h1M256 211h2M273 211h2M306 211h1M256 212h2M272 212h3M306 212h1M256 213h2M272 213h3M306 213h1M256 214h2M270 214h5M305 214h1M256 215h2M266 215h5M302 215h4M256 216h2M266 216h5M256 217h2M256 218h2M256 219h2M256 220h2M256 221h2M256 222h2M256 223h2M256 224h2M256 225h2M256 233h7M256 234h2M272 234h30M256 235h2M272 235h30M256 236h2M272 236h30M256 237h2M271 237h31M254 238h2M271 238h5M280 238h4M289 238h5M298 238h4M254 239h2M279 239h1M288 239h1M298 239h1M303 239h1M254 240h2M279 240h1M288 240h1M298 240h1M303 240h1M254 241h2M279 241h1M288 241h1M298 241h1M303 241h1M298 242h6M302 243h2M280 244h1M302 244h2M254 245h2M272 245h1M281 245h1M290 245h1M302 245h2M254 246h2M272 246h1M281 246h1M290 246h1M302 246h2M256 247h2M272 247h1M281 247h1M290 247h1M301 247h3M256 248h2M272 248h4M281 248h4M290 248h4M300 248h4" />
<path stroke="#fffffe" d="M241 135h1M242 142h1M232 190h1M315 218h1M323 218h1M264 223h1M295 248h1M334 262h1" />
<path stroke="#009dff" d="M301 138h1M303 138h1M300 139h1M300 140h2M303 140h1M301 141h3M261 182h3M265 182h2M261 183h1M265 183h2M261 184h1M294 187h1M289 188h2M294 188h1M289 189h2M292 189h3M252 230h3M252 231h1M254 231h2M255 232h1M252 233h1M254 233h1" />
<path stroke="#d47564" d="M256 139h19M256 140h19M256 141h1M281 142h3M275 143h3M280 143h2M280 144h1M280 145h1M274 146h1M280 146h3M280 147h4M280 148h4M256 149h5M280 149h1M256 150h2M256 151h2M256 152h2M256 153h2M256 154h3M256 155h4M270 155h2M256 156h16M300 182h2M300 183h2M300 184h2M254 186h4M259 186h2M254 187h2M254 188h2M254 189h2M284 215h16M284 216h2M296 216h4M297 217h3M298 218h2M298 219h2M298 220h2M298 221h2M275 222h1M295 222h5M272 223h4M272 224h4M273 225h3M281 225h1M275 226h1M275 227h1M274 228h2M278 228h3M272 229h3M299 230h1M281 231h19M281 232h19" />
<path stroke="#29adff" d="M303 139h2M304 140h1M267 182h4M267 183h4M267 184h4M285 186h10M285 187h4M285 188h4M285 189h4M251 231h1M251 232h2" />
<path stroke="#fecca9" d="M257 141h18M261 142h7M261 143h7M282 143h2M261 144h7M275 144h3M281 144h3M261 145h7M275 145h3M281 145h3M261 146h7M275 146h3M283 146h1M261 147h7M274 147h4M261 148h7M274 148h4M261 149h7M269 149h9M258 150h20M258 151h20M258 152h20M258 153h20M259 154h13M260 155h10M302 182h5M302 183h5M302 184h5M247 186h7M249 187h5M249 188h5M249 189h5M286 216h10M284 217h13M278 218h20M278 219h20M278 220h20M278 221h20M278 222h17M278 223h4M288 223h7M278 224h4M288 224h7M272 225h1M278 225h3M288 225h7M272 226h3M278 226h3M288 226h7M272 227h3M278 227h3M288 227h7M272 228h2M288 228h5M294 228h1M288 229h7M281 230h18" />
<path stroke="#fecca8" d="M268 149h1M293 228h1" />
<path stroke="#a95237" d="M299 153h1" />
<path stroke="#000001" d="M261 160h1" />
<path stroke="#5f564f" d="M298 171h9M298 172h9M298 173h9M298 174h9M298 175h9M298 176h9M298 177h9M298 178h9M298 179h9M298 180h9M249 191h9M249 192h9M249 193h9M249 194h9M249 195h9M249 196h9M249 197h9M249 198h9M249 199h9M249 200h9" />
<path stroke="#fffeff" d="M233 206h1M332 212h1M246 214h1M327 236h1M228 248h1M308 248h1" />
<path stroke="#010000" d="M308 210h1M277 267h1" />
<path stroke="#fea300" d="M301 243h1" />
<path stroke="#feffff" d="M227 264h1" />
</svg>