<svg xmlns="http://www.w3.org/2000/svg" viewBox="0 -0.5 400 200" shape-rendering="crispEdges">
<metadata>Made with Pixels to Svg https://codepen.io/shshaw/pen/XbxvNj</metadata>
<path stroke="#e8e4f9" d="M182 6h1" />
<path stroke="#f7fbf9" d="M183 6h7M196 9h1M247 44h5M247 45h5M270 58h1M270 59h1" />
<path stroke="#ebe8f9" d="M190 6h1" />
<path stroke="#e8e5f9" d="M191 6h1M178 7h2M178 8h2M197 9h1M248 10h2M145 20h2M235 21h1M74 22h2M74 23h2M235 26h1M235 27h1M235 28h1M235 29h1M224 38h1M303 38h2M224 39h1M303 39h2M303 40h2M303 41h2M303 42h2M303 61h2M8 62h1M303 62h2M8 63h1M303 63h2M191 64h4M230 64h1M303 64h2M191 65h4M231 65h2M191 66h4M231 66h2M231 67h2M216 72h2" />
<path stroke="#f6fbf9" d="M180 7h1M180 8h1M260 10h2M211 21h2M213 23h1M308 32h2M228 71h1" />
<path stroke="#f4faf9" d="M181 7h1M181 8h1M178 9h2M197 10h1M251 10h1M259 10h1M197 11h1M262 11h1M262 12h1M185 14h1M185 15h1M252 16h5M210 17h1M210 18h1M210 19h1M198 20h1M210 20h1M79 21h1M154 21h1M156 21h1M166 21h1M190 21h5M86 22h1M159 22h1M161 22h1M199 22h3M211 22h2M250 22h1M86 23h1M156 23h1M160 23h1M202 23h1M244 23h1M342 23h1M156 24h1M160 24h1M203 24h1M211 24h2M203 25h1M211 25h2M337 25h1M337 26h1M356 26h1M356 27h1M78 28h1M80 29h3M89 29h1M175 30h1M252 30h1M276 30h2M175 31h1M187 31h1M274 31h1M344 31h1M310 32h1M360 32h1M307 33h3M346 34h2M357 34h1M346 35h2M356 35h1M190 36h2M346 36h2M356 36h1M313 37h1M356 37h1M74 38h2M87 38h2M314 38h1M79 39h1M316 39h1M319 39h2M322 39h1M79 40h1M185 40h1M187 40h1M202 40h1M316 40h1M319 40h2M322 40h1M362 40h1M99 41h1M101 41h2M185 41h1M187 41h1M317 41h1M321 41h1M362 41h1M99 42h1M101 42h2M185 42h1M187 42h1M317 42h1M321 42h1M362 42h1M99 43h1M101 43h2M338 43h5M338 44h5M334 45h3M344 45h2M334 46h3M344 46h2M333 47h1M354 49h2M354 50h6M354 51h6M356 52h4M360 53h1M26 54h2M35 54h1M340 54h3M352 54h4M26 55h2M35 55h1M96 55h2M340 55h3M352 55h5M362 55h1M26 56h2M35 56h1M96 56h2M356 56h1M362 56h1M28 57h1M96 57h2M262 57h1M28 58h1M98 58h1M262 58h1M289 58h1M28 59h1M98 59h1M262 59h1M289 59h1M28 60h1M98 60h1M240 60h1M289 60h1M98 61h1M240 61h1M286 61h2M294 61h1M240 62h1M286 62h2M294 62h1M240 63h1M286 63h2M294 63h1M125 64h1M286 64h2M294 64h1M125 65h1M270 65h1M125 66h1M270 66h1M270 67h1M24 68h2M73 69h1M45 70h1M50 70h1M74 70h2M224 71h4M229 72h1M235 77h2" />
<path stroke="#f3f9f9" d="M182 7h10M182 8h10M180 9h13M183 10h14M252 10h7M183 11h14M251 11h4M256 11h6M183 12h15M251 12h11M183 13h15M251 13h12M154 14h6M186 14h13M251 14h12M151 15h11M186 15h13M252 15h11M151 16h15M187 16h10M198 16h10M257 16h6M151 17h15M187 17h10M198 17h12M259 17h4M151 18h15M187 18h10M198 18h12M259 18h4M151 19h15M187 19h10M198 19h12M259 19h4M154 20h13M188 20h7M199 20h11M259 20h4M80 21h4M155 21h1M157 21h9M199 21h12M78 22h8M157 22h2M160 22h1M162 22h3M202 22h9M245 22h5M269 22h5M78 23h8M203 23h10M245 23h7M268 23h7M343 23h6M78 24h11M204 24h7M245 24h7M264 24h11M276 24h2M339 24h14M78 25h11M157 25h2M204 25h7M245 25h7M264 25h14M338 25h18M78 26h11M157 26h2M252 26h1M271 26h7M338 26h18M78 27h11M157 27h2M252 27h1M271 27h7M343 27h13M79 28h10M157 28h2M252 28h1M271 28h7M343 28h15M83 29h6M178 29h5M252 29h1M271 29h7M343 29h15M84 30h5M176 30h10M273 30h3M343 30h15M84 31h5M176 31h11M273 31h1M313 31h5M345 31h13M84 32h5M173 32h17M311 32h8M345 32h15M84 33h5M173 33h17M311 33h13M346 33h16M73 34h4M95 34h5M173 34h17M311 34h15M348 34h9M358 34h13M73 35h5M94 35h6M173 35h17M192 35h7M311 35h15M348 35h8M360 35h11M372 35h1M73 36h5M93 36h10M173 36h17M192 36h7M311 36h15M348 36h8M360 36h13M73 37h5M93 37h10M182 37h20M314 37h2M317 37h9M360 37h13M76 38h4M89 38h15M182 38h21M318 38h6M361 38h12M98 39h6M183 39h9M197 39h6M361 39h12M98 40h6M186 40h1M199 40h3M363 40h10M100 41h1M186 41h1M363 41h10M100 42h1M186 42h1M363 42h10M100 43h1M109 45h3M337 45h7M110 46h4M246 46h6M337 46h7M110 47h4M245 47h12M334 47h12M110 48h4M245 48h13M333 48h16M24 49h5M111 49h3M245 49h13M332 49h17M23 50h10M111 50h2M245 50h13M332 50h17M23 51h10M109 51h5M246 51h12M332 51h17M23 52h10M109 52h5M251 52h7M332 52h19M354 52h2M23 53h12M252 53h6M340 53h20M28 54h7M252 54h6M344 54h8M356 54h6M28 55h7M98 55h6M117 55h4M344 55h8M357 55h5M28 56h7M98 56h6M117 56h8M283 56h5M345 56h4M357 56h5M29 57h6M98 57h6M117 57h8M240 57h6M263 57h7M283 57h5M345 57h4M357 57h1M361 57h1M29 58h6M99 58h5M115 58h10M240 58h6M263 58h7M285 58h4M357 58h1M361 58h1M29 59h6M99 59h5M115 59h12M240 59h6M263 59h7M285 59h4M29 60h6M99 60h5M115 60h12M241 60h5M259 60h14M285 60h4M18 61h4M41 61h2M99 61h5M115 61h12M241 61h5M259 61h14M18 62h5M40 62h6M121 62h6M241 62h5M259 62h14M18 63h5M40 63h6M124 63h2M241 63h5M259 63h14M18 64h5M39 64h7M124 64h1M266 64h3M270 64h1M18 65h5M39 65h12M124 65h1M269 65h1M18 66h5M39 66h12M124 66h1M269 66h1M18 67h5M39 67h12M269 67h1M43 68h8M44 69h8M69 69h4M46 70h4M69 70h5M135 70h6M72 71h1M136 71h5M72 72h1M138 72h3M224 72h5M72 73h1M138 73h3M225 73h5M72 74h1M138 74h3M225 74h5M138 75h3M225 75h5M225 76h5" />
<path stroke="#f6faf9" d="M192 7h1M192 8h1M275 23h1M321 32h1M103 36h1M103 37h1M125 56h1M125 57h1M125 58h1M51 65h1M51 66h1M51 67h1M51 68h1" />
<path stroke="#e6e3f9" d="M193 7h2M193 8h2M177 9h1M213 22h1M307 32h1M104 36h1M104 37h1" />
<path stroke="#e9e5f9" d="M251 8h1M251 9h1M264 17h1M264 18h1M264 19h1M264 20h1M235 22h1M283 27h1M283 28h1M283 29h1M214 30h2M283 30h1M237 31h2M285 31h1M239 32h1M283 32h2M62 35h1M218 37h1M390 38h2M389 39h1M395 39h1M245 44h1M252 44h1M245 45h1M252 45h1M115 51h1M115 52h1M231 53h2M259 53h1M231 54h2M259 54h1M281 54h1M281 55h1M11 57h1M11 58h1M86 58h1M11 59h1M86 59h1M11 60h1M86 60h1M229 60h1M86 61h1M229 61h1M87 62h2M229 62h1M229 63h1M138 67h2M138 68h2M61 69h2M138 69h2" />
<path stroke="#f5faf9" d="M252 8h6M195 9h1M252 9h6M362 33h5M100 35h1M46 63h4M46 64h4" />
<path stroke="#ebebf9" d="M258 8h1M258 9h1" />
<path stroke="#ede6f9" d="M259 8h1M259 9h1M235 30h1M115 46h1M115 47h1M115 48h1" />
<path stroke="#f3faf9" d="M193 9h2M263 16h1M349 23h1M247 26h5M263 26h8M247 27h5M263 27h8M247 28h5M263 28h8M247 29h5M263 29h8M319 32h2M310 33h1M371 34h1M72 35h1M78 36h1M90 36h3M78 37h1M90 37h3M316 37h1M349 37h6M203 38h1M317 38h1M360 38h1M203 39h1M373 39h1M349 49h2M349 50h2M349 51h2M343 54h1M343 55h1M288 56h1M239 57h1M288 57h1M239 58h1M239 59h1M40 61h1M122 63h2M126 63h1M23 64h1M35 64h4M271 64h2M23 65h1M35 65h4M23 66h1M35 66h4M23 67h1M35 67h4M68 69h1M71 71h1M73 71h1M141 71h1M71 72h1M73 72h1M71 73h1M73 73h1M71 74h1M73 74h1" />
<path stroke="#efe7f9" d="M175 10h1M175 11h1M216 30h1" />
<path stroke="#e7e5f9" d="M176 10h1M176 11h1M175 12h1M175 13h1M241 13h1M241 14h1M147 30h1M327 34h1M327 35h1M327 36h1M388 40h1M388 41h1M388 42h1" />
<path stroke="#e5e4f9" d="M177 10h1M177 11h1M246 11h4M176 12h6M246 12h4M176 13h6M242 13h8M173 14h10M242 14h8M173 15h12M240 15h11M172 16h13M240 16h12M172 17h10M183 17h2M237 17h17M172 18h13M237 18h8M246 18h8M172 19h13M237 19h17M147 20h4M172 20h14M197 20h1M237 20h17M147 21h1M149 21h4M169 21h18M196 21h2M237 21h7M251 21h7M264 21h4M76 22h1M141 22h13M167 22h4M172 22h27M236 22h6M252 22h14M76 23h1M141 23h14M157 23h2M165 23h27M193 23h6M234 23h8M252 23h11M71 24h6M140 24h15M157 24h2M165 24h37M235 24h9M252 24h11M71 25h6M140 25h17M164 25h14M183 25h19M235 25h9M252 25h11M71 26h6M140 26h17M164 26h14M183 26h30M236 26h10M254 26h8M71 27h6M140 27h7M148 27h9M164 27h14M183 27h30M236 27h10M254 27h8M279 27h4M334 27h8M68 28h9M145 28h12M164 28h14M183 28h30M236 28h10M254 28h8M279 28h4M334 28h8M67 29h11M147 29h28M187 29h26M236 29h10M254 29h8M279 29h4M334 29h8M66 30h16M90 30h1M148 30h25M188 30h26M237 30h15M254 30h16M279 30h4M334 30h8M64 31h20M90 31h1M151 31h22M190 31h23M239 31h34M279 31h6M286 31h2M333 31h10M64 32h20M90 32h1M151 32h21M191 32h22M247 32h15M269 32h7M278 32h4M333 32h11M64 33h20M90 33h1M151 33h21M191 33h23M250 33h12M269 33h7M330 33h14M64 34h7M79 34h14M151 34h21M191 34h23M250 34h12M269 34h7M307 34h3M330 34h16M63 35h8M80 35h11M151 35h21M191 35h1M199 35h15M250 35h12M269 35h7M307 35h3M330 35h16M62 36h9M80 36h9M151 36h21M203 36h13M306 36h4M330 36h16M62 37h9M80 37h9M148 37h25M204 37h13M306 37h5M327 37h21M64 38h9M82 38h4M105 38h2M148 38h25M205 38h15M305 38h8M327 38h22M356 38h2M392 38h1M64 39h10M82 39h5M105 39h6M147 39h36M192 39h4M205 39h15M305 39h9M324 39h6M331 39h27M390 39h4M64 40h10M82 40h5M105 40h6M145 40h38M192 40h5M204 40h15M305 40h9M324 40h37M389 40h7M66 41h13M80 41h18M104 41h7M145 41h14M160 41h23M192 41h5M203 41h6M213 41h5M305 41h11M323 41h38M389 41h7M66 42h13M80 42h18M104 42h7M145 42h38M192 42h5M203 42h6M213 42h5M305 42h11M323 42h38M389 42h7M66 43h13M80 43h18M104 43h7M145 43h2M160 43h25M188 43h11M203 43h6M213 43h5M306 43h11M318 43h3M322 43h13M344 43h30M67 44h32M103 44h6M145 44h2M160 44h25M188 44h19M215 44h3M306 44h11M318 44h3M322 44h13M344 44h31M77 45h10M95 45h6M170 45h10M191 45h7M199 45h8M215 45h3M306 45h27M348 45h27M216 46h3M306 46h27M348 46h26M241 47h3M307 47h26M349 47h3M353 47h21M237 48h7M311 48h19M352 48h22M237 49h7M310 49h20M356 49h18M21 50h1M237 50h7M310 50h20M361 50h16M21 51h1M105 51h1M235 51h9M310 51h20M361 51h16M16 52h6M105 52h1M234 52h12M308 52h22M361 52h16M16 53h6M103 53h6M115 53h4M233 53h17M307 53h23M363 53h15M12 54h11M103 54h6M115 54h4M233 54h17M306 54h33M365 54h16M12 55h11M86 55h9M105 55h10M231 55h9M245 55h7M259 55h5M306 55h33M365 55h16M12 56h11M86 56h9M105 56h10M231 56h9M245 56h7M259 56h5M279 56h3M306 56h37M354 56h2M365 56h16M12 57h15M35 57h1M86 57h9M105 57h10M229 57h8M247 57h11M274 57h4M279 57h3M306 57h37M354 57h2M363 57h18M12 58h15M35 58h1M87 58h11M106 58h6M229 58h8M247 58h11M274 58h9M305 58h1M327 58h13M344 58h1M351 58h5M363 58h18M12 59h15M35 59h1M87 59h11M106 59h6M229 59h8M248 59h10M274 59h9M305 59h1M327 59h13M344 59h1M351 59h9M377 59h4M12 60h15M35 60h1M87 60h11M106 60h6M230 60h9M250 60h7M274 60h9M305 60h1M327 60h13M344 60h1M351 60h9M377 60h4M9 61h8M24 61h15M87 61h11M106 61h6M230 61h9M250 61h7M274 61h11M290 61h4M356 61h4M377 61h4M9 62h8M26 62h12M89 62h15M106 62h15M230 62h9M250 62h7M274 62h11M290 62h4M9 63h8M26 63h12M90 63h14M106 63h15M129 63h7M230 63h9M250 63h7M274 63h11M290 63h4M8 64h9M26 64h9M90 64h14M106 64h15M127 64h9M231 64h15M250 64h16M274 64h11M290 64h4M8 65h9M26 65h9M91 65h30M127 65h9M233 65h13M250 65h16M273 65h3M278 65h17M8 66h9M26 66h9M91 66h30M127 66h9M233 66h13M250 66h16M273 66h3M278 66h17M9 67h8M26 67h9M91 67h33M126 67h10M190 67h5M233 67h13M250 67h16M273 67h3M9 68h11M27 68h6M92 68h32M126 68h10M190 68h5M234 68h35M271 68h7M6 69h18M26 69h16M52 69h5M63 69h4M121 69h3M126 69h10M190 69h5M234 69h35M271 69h7M5 70h39M52 70h4M59 70h9M130 70h3M234 70h35M271 70h7M5 71h40M51 71h5M61 71h8M127 71h8M222 71h1M5 72h40M51 72h5M61 72h8M126 72h10M218 72h5M230 72h1M5 73h40M51 73h5M61 73h6M68 73h1M126 73h10M216 73h7M43 74h2M51 74h5M61 74h8M126 74h10M216 74h7M62 75h17M83 75h1M126 75h10M143 75h2M216 75h7M82 76h2M129 76h18M151 76h2M216 76h7M82 77h2M205 77h9M215 77h11M230 77h4M82 78h2M220 78h14M82 79h9M220 79h14M349 79h3M155 80h5M220 80h14M349 80h3M237 81h4M349 81h3M237 82h9M348 82h8M237 83h9M356 83h1M235 84h15M324 85h3M324 86h6M324 87h6" />
<path stroke="#e4e3f9" d="M178 10h4M178 11h4M250 11h1M250 12h1M250 13h1M250 14h1M187 21h1M166 22h1M242 22h2M266 22h2M155 23h1M161 23h1M341 23h1M155 24h1M161 24h1M202 24h1M202 25h1M78 29h1M175 29h2M183 29h4M82 30h1M187 30h1M270 30h1M344 33h1M79 35h1M357 35h1M79 36h1M105 36h1M357 36h1M79 37h1M105 37h1M311 37h2M357 37h1M73 38h1M86 38h1M313 38h1M326 38h1M349 38h7M74 39h4M87 39h9M317 39h1M321 39h1M74 40h4M87 40h9M190 40h2M197 40h2M203 40h1M317 40h1M321 40h1M361 40h1M79 41h1M103 41h1M190 41h2M197 41h6M316 41h1M319 41h2M322 41h1M361 41h1M79 42h1M103 42h1M190 42h2M197 42h6M316 42h1M319 42h2M322 42h1M361 42h1M79 43h1M103 43h1M185 43h3M199 43h4M317 43h1M321 43h1M335 43h2M185 44h3M317 44h1M321 44h1M335 44h2M76 45h1M330 48h2M330 49h2M351 49h1M330 50h2M351 50h1M106 51h1M244 51h1M330 51h2M351 51h1M106 52h1M330 52h2M250 53h1M250 54h1M283 54h3M95 55h1M115 55h2M283 55h3M95 56h1M115 56h2M289 56h1M95 57h1M115 57h2M246 57h1M259 57h3M289 57h1M362 57h1M105 58h1M112 58h2M246 58h1M259 58h3M283 58h1M362 58h1M105 59h1M112 59h2M246 59h1M259 59h3M283 59h1M105 60h1M112 60h2M247 60h3M257 60h1M283 60h1M105 61h1M112 61h2M247 61h3M257 61h1M289 61h1M24 62h2M247 62h3M257 62h1M289 62h1M24 63h2M104 63h2M247 63h3M257 63h1M289 63h1M24 64h2M104 64h2M121 64h1M289 64h1M24 65h2M121 65h1M246 65h1M266 65h2M24 66h2M121 66h1M246 66h1M266 66h2M24 67h2M246 67h1M266 67h2M21 68h2M35 68h8M24 69h2M67 69h1M51 70h1M68 70h1M133 70h2M135 71h1M80 76h2M80 77h2M234 77h1M80 78h2" />
<path stroke="#e4e2f9" d="M182 10h1M182 11h1M78 21h1M156 22h1M251 22h1M264 23h2M244 24h1M244 25h1M173 31h2M188 31h2M276 31h2M344 32h1M104 38h1M316 38h1M78 39h1M96 39h2M104 39h1M196 39h1M78 40h1M96 40h2M104 40h1M183 40h2M188 40h2M98 41h1M183 41h2M188 41h2M98 42h1M183 42h2M188 42h2M98 43h1M244 47h1M244 48h1M244 49h1M244 50h1M231 52h2M339 54h1M104 55h1M339 55h1M104 56h1M27 57h1M104 57h1M237 57h2M27 58h1M237 58h2M27 59h1M237 59h2M27 60h1M126 64h1M126 65h1M271 65h2M126 66h1M271 66h2M271 67h2M20 68h1M23 68h1M34 68h1M44 70h1M79 75h4M148 76h3M226 77h4" />
<path stroke="#e9e4f9" d="M198 10h1M198 11h1M319 31h2M326 33h1M230 71h1" />
<path stroke="#e7e4f9" d="M250 10h1M213 24h1M213 25h1M213 26h1M213 27h1M213 28h1M213 29h1M92 31h1M213 31h1M332 31h1M213 32h1M332 32h1M367 33h2M111 41h1M111 42h1M111 43h1M236 48h1M236 49h1M236 50h1M303 58h2M303 59h2M303 60h2M136 63h1M67 65h5M296 65h4M67 66h5M296 66h4M67 67h5M136 67h2M187 67h3M196 67h3M67 68h5M136 68h2M187 68h3M196 68h6M136 69h2M187 69h3M196 69h6M199 70h3M60 71h1M60 72h1M60 74h1M250 84h1M324 88h6M324 89h6M324 90h6" />
<path stroke="#e7e3f9" d="M262 10h1" />
<path stroke="#eee7f9" d="M241 11h1M241 12h1" />
<path stroke="#eae6f9" d="M242 11h4M242 12h4" />
<path stroke="#f3f9f8" d="M255 11h1M113 50h1" />
<path stroke="#e5e3f9" d="M182 12h1M182 13h1M254 17h3M254 18h3M254 19h3M254 20h3M244 21h1M87 22h2M154 22h1M87 23h2M263 23h1M160 25h1M178 25h5M335 25h2M160 26h1M178 26h5M335 26h2M357 26h1M160 27h1M178 27h5M357 27h1M160 28h1M178 28h5M174 30h1M71 34h1M78 34h1M93 34h1M91 35h2M71 36h1M202 36h1M71 37h1M173 37h8M203 37h1M173 38h8M223 38h1M223 39h1M314 39h1M358 39h2M314 40h1M346 45h2M346 46h2M351 48h1M378 52h1M330 53h2M362 53h1M23 54h1M282 54h1M23 55h1M282 55h1M23 56h1M258 57h1M356 57h1M258 58h1M356 58h1M258 59h1M17 61h1M23 61h1M39 61h1M38 62h1M38 63h1M17 64h1M17 65h1M247 65h3M17 66h1M247 66h3M17 67h1M124 67h2M247 67h3M124 68h2M269 68h2M74 69h2M124 69h2M269 69h2M269 70h2M84 75h2M147 76h1M234 78h1M234 79h1M234 80h1" />
<path stroke="#ebedf9" d="M198 12h1M198 13h1M245 21h5M269 21h1M80 38h2M80 39h2M80 40h2M246 52h1M290 58h1M290 59h1M290 60h1M45 71h6M69 71h2M45 72h6M69 72h2M136 72h1M45 73h6M69 73h2M136 73h1M45 74h6M69 74h2M136 74h1M136 75h1M142 75h1" />
<path stroke="#eff3f9" d="M151 14h2M186 30h1M358 35h2M199 36h3M358 36h2M358 37h2M358 38h2M114 50h1M236 78h1M236 79h1M236 80h1" />
<path stroke="#f0f4f9" d="M153 14h1M160 14h1M202 15h1M338 24h1M352 49h2M352 50h2M352 51h2M109 53h1M109 54h1M105 62h1M237 78h2M237 79h2M237 80h2" />
<path stroke="#e9eaf9" d="M183 14h2M162 15h2M251 15h1M199 23h3M358 28h2M358 29h2M358 30h2M358 31h2M258 53h1M258 54h1M258 55h1M258 56h1M352 56h2M352 57h2M26 68h1M141 70h1" />
<path stroke="#e3e1f9" d="M148 15h3M208 16h1M244 22h1M177 29h1M360 39h1M104 58h1M104 59h1M104 60h1M246 60h1M104 61h1M246 61h1M246 62h1M246 63h1M122 64h2M122 65h2M122 66h2" />
<path stroke="#eae4f9" d="M164 15h1" />
<path stroke="#f2f8f9" d="M199 15h3M258 17h1M258 18h1M258 19h1M258 20h1M266 23h2M159 25h1M159 26h1M159 27h1M159 28h1M349 48h2M111 53h3M111 54h3M252 55h1M252 56h1M344 56h1M344 57h1M358 57h3M358 58h3" />
<path stroke="#e2e3f9" d="M239 15h1M219 40h1M84 76h2M84 77h2M84 78h2M219 78h1M219 79h1M219 80h1" />
<path stroke="#f2f7f9" d="M263 15h1M185 16h2M185 17h2M185 18h2M185 19h2M253 30h1M112 45h2M332 48h1" />
<path stroke="#f4f5f9" d="M264 15h1" />
<path stroke="#e0e0f9" d="M145 16h2M145 17h2M145 18h2M145 19h2M64 29h2" />
<path stroke="#e4e9f9" d="M147 16h1M147 17h1M147 18h1M147 19h1" />
<path stroke="#f1f6f9" d="M148 16h3M197 16h1M148 17h3M197 17h1M148 18h3M197 18h1M148 19h3M197 19h1M253 26h1M253 27h1M253 28h1M253 29h1M223 71h1" />
<path stroke="#e6e6f9" d="M166 16h1M166 17h1M166 18h1M166 19h1M159 23h1M159 24h1M89 28h1M190 35h1" />
<path stroke="#dfe3f9" d="M171 16h1M171 17h1M171 18h1M171 19h1" />
<path stroke="#f9fdf9" d="M264 16h1" />
<path stroke="#e5e5f9" d="M182 17h1M245 18h1M148 21h1M192 23h1M77 24h1M77 25h1M77 26h1M77 27h1M264 56h1M33 68h1" />
<path stroke="#ebe9f9" d="M211 17h2M211 18h2M211 19h2M211 20h2" />
<path stroke="#f1f7f9" d="M257 17h1M257 18h1M257 19h1M257 20h1M89 36h1M89 37h1M355 37h1" />
<path stroke="#eef1f9" d="M263 17h1M263 18h1M263 19h1M153 20h1M167 20h2M263 20h1M110 44h1M245 46h1M252 46h1M346 47h2M363 55h2M363 56h2" />
<path stroke="#edf0f9" d="M151 20h2M187 20h1M259 21h4M94 34h1M310 34h1M310 35h1M310 36h1M343 43h1M258 52h1M247 64h2M141 72h1M141 73h1M230 73h1M141 74h1M230 74h1M141 75h1M230 75h1M230 76h1" />
<path stroke="#e1e3f9" d="M171 20h1M273 57h1M273 58h1M273 59h1" />
<path stroke="#e7e8f9" d="M186 20h1M348 37h1M204 38h1M324 38h2M204 39h1" />
<path stroke="#eff4f9" d="M195 20h1M315 38h1M235 78h1M235 79h1M235 80h1" />
<path stroke="#edf1f9" d="M196 20h1M23 49h1M29 49h1M362 54h1M249 64h1" />
<path stroke="#d9def9" d="M143 21h2M147 32h4M147 33h4M240 33h7M263 33h5M147 34h4M240 34h7M263 34h5M278 34h3M240 35h7M263 35h5M278 35h3M217 36h1M239 36h42M239 37h43M240 38h42M240 39h38M220 41h2M220 42h2M220 43h2M388 43h8M209 44h4M389 44h7M106 45h1M148 45h12M209 45h4M389 45h7M68 46h8M87 46h8M103 46h4M145 46h25M180 46h10M198 46h1M207 46h7M68 47h8M87 47h8M103 47h4M147 47h68M220 47h2M68 48h8M87 48h4M92 48h3M103 48h4M147 48h81M67 49h42M147 49h81M306 49h2M69 50h35M151 50h34M190 50h38M306 50h2M71 51h5M87 51h14M157 51h5M167 51h14M195 51h19M306 51h2M71 52h5M87 52h14M173 52h3M178 52h2M199 52h8M89 53h9M173 53h3M178 53h2M89 54h9M182 54h1M187 54h1M182 55h1M307 58h11M130 59h1M307 59h11M366 59h8M130 60h1M307 60h11M366 60h8M130 61h1M306 61h17M324 61h4M339 61h12M366 61h8M130 62h1M306 62h22M339 62h12M360 62h17M306 63h22M339 63h12M360 63h17M306 64h22M339 64h12M360 64h17M308 65h37M349 65h7M360 65h17M308 66h37M349 66h7M360 66h17M310 67h34M349 67h26M310 68h34M349 68h25M93 69h8M112 69h7M281 69h2M288 69h6M316 69h5M326 69h13M355 69h18M91 70h30M126 70h1M281 70h2M288 70h6M316 70h5M326 70h13M355 70h12M94 71h32M235 71h7M257 71h7M271 71h5M281 71h2M288 71h6M316 71h5M326 71h13M355 71h12M94 72h32M234 72h44M356 72h11M94 73h32M236 73h37M5 74h16M34 74h6M94 74h32M236 74h37M12 75h31M51 75h4M121 75h5M236 75h37M12 76h29M42 76h14M236 76h4M241 76h32M12 77h44M14 78h42M202 78h1M16 79h12M34 79h18M66 79h3M73 79h6M202 79h1M16 80h12M34 80h12M78 80h1M132 80h4M141 80h6M16 81h11M35 81h11M78 81h1M145 81h2M205 81h8M217 81h2M43 82h2M78 82h20M145 82h2M220 82h5M229 82h6M147 83h17M220 83h5M229 83h6M220 84h4M229 84h6M237 85h6M244 85h2M344 85h12M237 86h9M356 86h6" />
<path stroke="#e6e4f9" d="M145 21h2M69 24h2M234 24h1M69 25h2M234 25h1M279 25h1M69 26h2M279 26h1M69 27h2M143 28h2M145 29h2M236 30h1M63 31h1M91 31h1M93 31h3M148 31h3M63 32h1M91 32h5M240 32h7M262 32h7M276 32h2M282 32h1M63 33h1M91 33h7M214 33h1M278 33h3M63 34h1M214 34h1M214 35h1M148 36h3M216 36h1M147 37h1M217 37h1M219 37h1M63 38h1M107 38h3M147 38h1M220 38h2M145 39h2M220 39h2M394 39h1M222 40h1M387 40h1M387 41h1M387 42h1M214 44h1M218 44h1M101 45h2M214 45h1M218 45h1M374 49h1M20 50h1M20 51h1M104 51h1M104 52h1M381 55h1M381 56h1M306 58h1M319 58h8M340 58h4M345 58h6M129 59h1M306 59h1M319 59h8M340 59h4M345 59h6M360 59h5M375 59h2M129 60h1M306 60h1M319 60h8M340 60h4M345 60h6M360 60h5M375 60h2M129 61h1M329 61h9M352 61h4M360 61h5M375 61h2M129 62h1M329 62h9M352 62h6M378 62h3M329 63h9M352 63h6M378 63h3M329 64h9M352 64h6M378 64h3M295 65h1M356 65h2M378 65h3M295 66h1M356 66h2M378 66h3M195 67h1M195 68h1M57 69h1M195 69h1M77 70h1M129 70h1M153 76h1M204 77h1M214 77h1M80 80h14M80 81h14M148 81h4M153 81h9M148 82h14M346 82h2M345 83h11M345 84h5M351 84h9M327 85h1M356 85h4M330 86h2M330 87h2" />
<path stroke="#e7e7f9" d="M153 21h1M89 30h1M89 31h1M318 31h1M89 32h1M190 32h1M89 33h1M190 33h1M324 33h2M190 34h1" />
<path stroke="#eef2f9" d="M167 21h2M162 23h2M162 24h2M114 49h1M245 51h1M258 60h1M258 61h1M295 61h1M258 62h1M295 62h1M258 63h1M295 63h1M295 64h1" />
<path stroke="#f4fbf9" d="M188 21h2M165 22h1M164 23h1M164 24h1M161 25h1M161 26h1M246 26h1M262 26h1M161 27h1M246 27h1M262 27h1M342 27h1M161 28h1M246 28h1M262 28h1M342 28h1M79 29h1M90 29h1M246 29h1M262 29h1M342 29h1M83 30h1M271 30h2M342 30h1M275 31h1M345 33h1M326 34h1M78 35h1M93 35h1M326 35h1M326 36h1M202 37h1M326 37h1M337 43h1M337 44h1M107 51h2M107 52h2M251 53h1M24 54h2M251 54h1M24 55h2M24 56h2M284 58h1M284 59h1M284 60h1M288 61h1M17 62h1M23 62h1M39 62h1M104 62h1M288 62h1M17 63h1M23 63h1M39 63h1M288 63h1M246 64h1M288 64h1" />
<path stroke="#ebeef9" d="M195 21h1M343 56h1M343 57h1" />
<path stroke="#f5fbf9" d="M198 21h1M155 22h1M71 35h1M333 45h1M333 46h1M142 71h1" />
<path stroke="#eceef9" d="M250 21h1M343 31h1M323 39h1M323 40h1M114 51h1M114 52h1M114 53h1M114 54h1M114 58h1M114 59h1M114 60h1M114 61h1" />
<path stroke="#ebecf9" d="M258 21h1M99 44h1M101 44h2M332 53h1M74 71h2M74 72h2M74 73h2M74 74h2" />
<path stroke="#eaebf9" d="M263 21h1M162 25h2M162 26h2M162 27h2M162 28h2M339 53h1M361 53h1M282 56h1M282 57h1M223 73h1M223 74h1M223 75h1M223 76h1" />
<path stroke="#e6e5f9" d="M268 21h1M77 22h1M268 22h1M77 23h1M77 28h1M172 32h1M172 33h1M172 34h1M172 35h1M172 36h1M308 49h2M308 50h2M308 51h2M101 53h2M119 53h2M101 54h2M119 54h2M240 55h5M240 56h5M265 56h1M365 59h1M273 60h1M365 60h1M273 61h1M328 61h1M351 61h1M365 61h1M273 62h1M328 62h1M351 62h1M377 62h1M273 63h1M328 63h1M351 63h1M377 63h1M273 64h1M328 64h1M351 64h1M377 64h1M268 65h1M377 65h1M268 66h1M377 66h1M268 67h1M43 69h1M76 71h1M126 71h1M76 72h1M76 73h1M76 74h1M79 80h1M79 81h1M152 81h1" />
<path stroke="#edeef9" d="M270 21h1" />
<path stroke="#e5e4f8" d="M171 22h1M147 27h1M159 41h1M352 47h1M247 59h1M42 69h1M67 73h1" />
<path stroke="#eaf5f9" d="M274 22h1" />
<path stroke="#f0f5f9" d="M242 23h2M318 39h1M318 40h1M352 52h2M22 61h1M121 63h1M223 72h1" />
<path stroke="#eaecf9" d="M263 24h1M263 25h1M278 25h1M278 26h1M278 27h1M278 28h1M278 29h1M278 30h1M278 31h1M100 44h1M247 52h4M333 53h6M363 54h2M224 73h1M224 74h1M224 75h1M224 76h1" />
<path stroke="#f3f8f9" d="M275 24h1M77 34h1M371 35h1M107 45h2M110 53h1M110 54h1M253 55h5M253 56h5M349 56h3M349 57h3M285 61h1M285 62h1M285 63h1M269 64h1M285 64h1" />
<path stroke="#e8e3f9" d="M337 24h1" />
<path stroke="#dadef9" d="M280 25h1M280 26h1M147 35h1M282 38h1M244 40h3M263 40h11M159 43h1M387 43h1M159 44h1M87 45h2M103 45h1M215 47h1M224 47h1M188 50h2M156 51h1M207 52h1M381 57h1M381 58h1M381 62h1M381 63h1M381 64h1M300 65h1M306 65h2M345 65h4M381 65h1M300 66h1M306 66h2M345 66h4M381 66h1M375 67h14M280 69h1M321 69h1M354 69h1M280 70h1M321 70h1M354 70h1M321 71h1M354 71h1M235 73h1M235 74h1M235 75h1M235 76h1M64 79h2M140 80h1M34 81h1M213 81h1M228 82h1M228 83h1" />
<path stroke="#ebe6f9" d="M333 27h1M333 28h1M333 29h1M333 30h1M235 48h1M235 49h1M235 50h1" />
<path stroke="#d8ddf9" d="M67 28h1M148 35h3M211 41h2M211 42h2M211 43h2M276 65h2M276 66h2M276 67h2M246 82h1M246 83h1" />
<path stroke="#dee0f9" d="M66 29h1M160 45h9M181 45h9M199 46h8M214 46h1M86 76h1M86 77h1M155 77h1M86 78h1M155 78h1M155 79h1" />
<path stroke="#dddff9" d="M143 29h2M385 40h2M385 41h2M385 42h2M145 47h2M145 48h2M145 49h2M76 51h2M79 51h3M84 51h2M76 52h2M79 52h3M84 52h2M159 52h1M167 52h2M171 52h1M177 52h1M180 52h1M195 52h2M198 52h1M159 53h1M167 53h2M171 53h1M177 53h1M180 53h1M195 53h2M198 53h4M204 53h1M199 54h3M204 54h1M385 55h2M385 56h2M53 65h2M53 66h2M53 67h2M53 68h2M339 70h1M234 71h1M276 71h2M339 71h1M213 82h1M213 83h1" />
<path stroke="#eae5f9" d="M64 30h2M360 30h1M360 31h1M281 33h1M374 38h1M111 39h3M111 40h3M374 40h1M64 41h2M374 41h1M64 42h2M374 42h1M64 43h2M374 43h1M375 44h3M375 45h3M374 46h1M374 47h1M374 48h1M377 52h1M291 58h1M291 59h1M291 60h1M8 68h1M202 68h1M58 69h3M202 69h1M142 70h1M202 70h1M219 71h3M203 77h1M360 84h1M360 85h1M330 88h2M330 89h2M330 90h2" />
<path stroke="#eee6f9" d="M145 30h2M259 48h1M259 49h1M259 50h1M218 71h1" />
<path stroke="#e5e3f8" d="M173 30h1" />
<path stroke="#e3e2f9" d="M311 31h2M372 34h1" />
<path stroke="#dedff9" d="M145 32h2M145 33h2M145 34h2M106 36h1M106 37h1M226 40h2M262 40h1M67 46h1M67 47h1M67 48h1M69 51h2M83 51h1M86 51h1M69 52h2M83 52h1M86 52h1M160 52h1M170 52h1M160 53h1M170 53h1M203 53h1M203 54h1" />
<path stroke="#e5e2f9" d="M322 32h1" />
<path stroke="#dee1f9" d="M247 33h3M247 34h3M247 35h3M209 41h1M209 42h1M209 43h1M147 81h1M220 81h16M147 82h1" />
<path stroke="#d8def9" d="M262 33h1M276 33h2M262 34h1M276 34h2M262 35h1M276 35h2M220 40h2M210 41h1M219 41h1M222 41h1M210 42h1M219 42h1M222 42h1M148 43h11M210 43h1M219 43h1M222 43h1M148 44h11M207 44h2M213 44h1M207 45h2M213 45h1M76 46h11M95 46h8M76 47h11M95 47h8M223 47h1M76 48h11M95 48h8M101 51h3M101 52h3M179 54h1M183 54h2M179 55h1M183 55h2M374 59h1M374 60h1M323 61h1M374 61h1M278 67h17M278 68h17M101 69h11M119 69h2M121 70h5M242 71h15M264 71h7M21 74h7M29 74h5M40 74h3M43 75h8M240 76h1M235 82h1M235 83h1" />
<path stroke="#dadff9" d="M268 33h1M268 34h1M268 35h1M69 45h7M89 45h5M104 45h2M170 46h10M190 46h8M216 47h4M307 48h3M98 53h2M98 54h2M219 81h1" />
<path stroke="#dbe0f9" d="M369 33h1" />
<path stroke="#e9ebf9" d="M72 34h1M72 36h1M72 37h1M181 37h1M181 38h1M373 38h1M373 40h1M373 41h1M373 42h1M351 52h1" />
<path stroke="#d9e1f9" d="M305 34h1M305 35h1M305 36h1" />
<path stroke="#fdfdf9" d="M101 35h2" />
<path stroke="#dfdff9" d="M145 35h2M220 37h2M224 40h1M225 41h1M225 42h1M225 43h1M379 50h1M379 51h1M193 52h2M379 52h1M193 53h2M207 53h1M207 54h1M279 73h1M86 75h1" />
<path stroke="#ece6f9" d="M145 37h2M145 38h2" />
<path stroke="#dbdef9" d="M303 37h2M222 38h1M222 39h1M303 43h2M303 44h2M228 48h1M228 49h1M228 50h1M193 51h2M71 53h1M71 54h1M93 71h1M93 72h1M93 73h1M278 73h1M93 74h1M202 77h1M14 79h2M14 80h2M46 80h5M68 80h1M74 80h2M131 80h1M46 81h5M68 81h1M74 81h2M133 81h2M143 81h2M133 82h2M143 82h2M205 82h2M208 82h1M211 82h2M226 82h2M145 83h2M205 83h2M208 83h1M211 83h2M226 83h2M237 87h9M237 88h9" />
<path stroke="#e3e3f9" d="M305 37h1M305 43h1M305 44h1M305 56h1M305 57h1M318 58h1M318 59h1M318 60h1M127 70h2M80 79h2M236 81h1" />
<path stroke="#dcdff9" d="M225 38h1M225 39h1M223 40h1M385 43h2M68 45h1M147 45h1M166 51h1M176 52h1M87 53h2M176 53h1M11 54h1M87 54h2M11 55h1M11 56h1M303 56h2M303 57h2M147 80h1" />
<path stroke="#e0dff9" d="M283 38h1" />
<path stroke="#e8e9f9" d="M315 39h1M315 40h1M127 59h2M127 60h2M127 61h2M127 62h2" />
<path stroke="#e4e4f9" d="M330 39h1M190 45h1M77 71h1M77 72h1M77 73h1M77 74h1" />
<path stroke="#fafdf9" d="M374 39h1" />
<path stroke="#d4ddf9" d="M274 40h1M222 47h1M306 48h1" />
<path stroke="#d7ddf9" d="M218 41h1M218 42h1M218 43h1M382 55h1M382 56h1" />
<path stroke="#e8e8f9" d="M318 41h1M318 42h1M22 50h1M22 51h1M22 52h1M22 53h1M239 60h1M239 61h1M239 62h1M239 63h1" />
<path stroke="#e0e1f9" d="M147 43h1M147 44h1M106 50h1M148 80h3M154 80h1M241 81h1M357 83h1" />
<path stroke="#eceff9" d="M109 44h1M348 47h1M137 72h1M137 73h1M137 74h1M137 75h1" />
<path stroke="#eff2f9" d="M111 44h1" />
<path stroke="#d2e0f9" d="M219 44h1M219 45h1" />
<path stroke="#f8fcf9" d="M246 44h1M246 45h1" />
<path stroke="#dee2f9" d="M253 44h1M253 45h1M237 47h3M375 49h2" />
<path stroke="#edf0f8" d="M343 44h1" />
<path stroke="#e0e2f9" d="M94 45h1M310 48h1M105 50h1M100 53h1M100 54h1M286 54h2M286 55h2M79 79h1M151 80h3M160 80h1" />
<path stroke="#dde0f9" d="M145 45h2M169 45h1M180 45h1M198 45h1M234 51h1M307 52h1M383 55h1M383 56h1M358 62h2M358 63h2M358 64h2M358 65h2M358 66h2" />
<path stroke="#d7dcf9" d="M107 46h2M107 47h2M107 48h2" />
<path stroke="#eef4f9" d="M109 46h1M109 47h1M109 48h1" />
<path stroke="#e1e2f9" d="M215 46h1M104 50h1M233 52h1M381 54h1M63 76h1M63 77h1M129 77h1M63 78h1M129 78h1M208 78h1M91 79h2M129 79h1M208 79h1M208 80h1" />
<path stroke="#dde2f9" d="M219 46h1M240 47h1M239 78h1M239 79h1M239 80h1" />
<path stroke="#eaf0f9" d="M253 46h1M110 49h1" />
<path stroke="#d2ddf9" d="M225 47h3M305 65h1M305 66h1" />
<path stroke="#d9dff9" d="M91 48h1M41 76h1M243 85h1" />
<path stroke="#eeeff9" d="M114 48h1" />
<path stroke="#e2e0f9" d="M229 48h1M229 49h1M229 50h1M166 52h1M185 52h1M166 53h1M185 53h1" />
<path stroke="#dcdef9" d="M234 48h1M234 49h1M234 50h1M169 52h1M172 52h1M197 52h1M169 53h1M172 53h1M197 53h1M384 66h1M308 67h2M344 67h1M389 67h1M308 68h2M344 68h1M283 69h1M342 69h1M283 70h1M283 71h1M28 79h6M28 80h6M66 80h2M73 80h1M76 80h2M66 81h2M73 81h1M76 81h2M132 81h1M141 81h2M132 82h1M141 82h2M207 82h1M209 82h2M217 82h3M225 82h1M207 83h1M209 83h2M217 83h3M225 83h1M224 84h1" />
<path stroke="#ecebf9" d="M258 48h1M258 49h1M258 50h1" />
<path stroke="#e7edf9" d="M109 49h1" />
<path stroke="#eeecf9" d="M115 49h1" />
<path stroke="#eaeff9" d="M107 50h2" />
<path stroke="#e9eff9" d="M109 50h1" />
<path stroke="#e9eef9" d="M110 50h1" />
<path stroke="#efeef9" d="M115 50h1" />
<path stroke="#f5fcf9" d="M360 50h1M360 51h1M360 52h1M237 77h2" />
<path stroke="#dddef9" d="M78 51h1M82 51h1M78 52h1M82 52h1M157 52h2M161 52h1M157 53h2M161 53h1M202 53h1M205 53h2M202 54h1M205 54h2M374 68h1M91 69h2M339 69h1M51 80h1M27 81h1M51 81h1M140 81h1M140 82h1" />
<path stroke="#edeff9" d="M258 51h1" />
<path stroke="#efedf9" d="M259 51h1" />
<path stroke="#f0eef9" d="M259 52h1" />
<path stroke="#d7def9" d="M72 53h2M72 54h2M173 54h2M173 55h2" />
<path stroke="#d6ddf9" d="M74 53h2M74 54h2M175 54h1M175 55h1" />
<path stroke="#e2e2f9" d="M378 53h1M52 65h1M52 66h1M52 67h1M52 68h1M64 76h16M64 77h16M130 77h25M64 78h16M130 78h25M203 78h5M209 78h10M130 79h6M137 79h18M203 79h5M209 79h10M203 80h5M209 80h10M236 82h1M236 83h1" />
<path stroke="#dfe0f9" d="M379 53h1" />
<path stroke="#e9f5f9" d="M36 54h2M36 55h2M36 56h2" />
<path stroke="#d8e1f9" d="M305 54h1M305 55h1M215 73h1M215 74h1M215 75h1M215 76h1" />
<path stroke="#dbe2f9" d="M36 57h2M36 58h2M36 59h2M36 60h2M89 63h1M89 64h1" />
<path stroke="#dbdff9" d="M305 61h1M305 62h1M305 63h1M305 64h1" />
<path stroke="#dce0f9" d="M338 61h1M338 62h1M338 63h1M338 64h1" />
<path stroke="#fcfdf9" d="M50 63h1M50 64h1" />
<path stroke="#e9e9f9" d="M127 63h2" />
<path stroke="#e0e3f9" d="M190 64h1M190 65h1M190 66h1" />
<path stroke="#ece5f9" d="M6 68h1" />
<path stroke="#e9e7f9" d="M76 70h1" />
<path stroke="#f9fcf9" d="M229 71h1" />
<path stroke="#cfe0f9" d="M4 72h1M4 73h1" />
<path stroke="#d8def8" d="M28 74h1" />
<path stroke="#d3e1f9" d="M127 76h2" />
<path stroke="#cbdff9" d="M214 76h1" />
<path stroke="#d3e0f9" d="M127 77h2M127 78h2M127 79h2" />
<path stroke="#dae2f9" d="M239 77h1" />
<path stroke="#d4def9" d="M13 78h1" />
<path stroke="#dfe1f9" d="M352 79h2M352 80h2M352 81h2" />
<path stroke="#dedef9" d="M64 80h2M64 81h2" />
<path stroke="#d5def9" d="M204 81h1M204 82h1M204 83h1M236 85h1M236 86h1" />
<path stroke="#d4e2f9" d="M242 81h1" />
<path stroke="#c6def9" d="M247 82h1M247 83h1" />
<path stroke="#cedef9" d="M152 84h4M157 84h2M151 85h1M153 85h3M158 85h1M234 85h1M251 85h2M234 86h1M251 86h2" />
<path stroke="#c9dcf9" d="M156 84h1M235 85h1M250 85h1M235 86h1M250 86h1" />
<path stroke="#cbdef9" d="M159 84h1M159 85h1" />
<path stroke="#e6e4f8" d="M350 84h1" />
<path stroke="#cddef9" d="M246 85h1M246 86h1" />
<path stroke="#ccddf9" d="M247 85h3M247 86h3" />
<path stroke="#c8ddf9" d="M253 85h1M253 86h1" />
<path stroke="#dce2f9" d="M323 86h1" />
<path stroke="#ccdcf9" d="M236 87h1M236 88h1" />
</svg>