<svg xmlns="http://www.w3.org/2000/svg" viewBox="0 -0.5 133 187" shape-rendering="crispEdges">
<metadata>Made with Pixels to Svg https://codepen.io/shshaw/pen/XbxvNj</metadata>
<path stroke="#000000" d="M7 2h69M77 2h48M7 3h47M55 3h70M5 4h22M28 4h99M5 5h21M27 5h100M5 6h15M21 6h71M93 6h34M5 7h5M122 7h5M5 8h5M11 8h77M89 8h32M122 8h5M5 9h5M11 9h97M109 9h12M122 9h5M5 10h5M11 10h1M120 10h1M122 10h4M5 11h5M11 11h1M120 11h1M122 11h5M120 12h1M122 12h5M120 13h1M122 13h5M37 14h6M49 14h7M59 14h6M69 14h6M120 14h1M122 14h5M37 15h6M49 15h7M59 15h6M69 15h6M120 15h1M122 15h5M36 16h8M49 16h7M59 16h7M69 16h8M120 16h1M122 16h3M126 16h1M36 17h2M43 17h1M49 17h1M55 17h1M59 17h1M65 17h1M69 17h2M75 17h2M120 17h1M122 17h5M36 18h2M43 18h1M49 18h1M55 18h1M59 18h1M65 18h1M69 18h2M75 18h2M120 18h1M122 18h5M36 19h2M43 19h1M49 19h1M55 19h1M59 19h1M65 19h1M69 19h2M75 19h2M120 19h1M122 19h5M36 20h2M43 20h6M55 20h5M65 20h6M75 20h2M120 20h1M122 20h5M36 21h2M75 21h2M120 21h1M122 21h5M36 22h2M75 22h2M120 22h1M122 22h5M36 23h2M75 23h2M120 23h1M122 23h5M36 24h2M75 24h2M120 24h1M122 24h5M36 25h2M75 25h2M120 25h1M122 25h5M36 26h2M75 26h2M120 26h1M122 26h5M36 27h2M75 27h3M120 27h1M122 27h5M36 28h2M75 28h4M122 28h5M37 29h4M77 29h2M120 29h1M122 29h5M37 30h1M39 30h2M77 30h2M120 30h1M122 30h5M38 31h3M77 31h2M120 31h1M122 31h5M38 32h3M75 32h4M120 32h1M122 32h5M39 33h2M75 33h4M120 33h1M122 33h5M38 34h3M75 34h4M120 34h1M122 34h5M38 35h25M64 35h2M67 35h10M120 35h1M122 35h5M41 36h7M62 36h15M120 36h1M122 36h5M41 37h7M62 37h15M120 37h1M122 37h5M41 38h2M65 38h12M120 38h1M122 38h5M42 39h1M65 39h14M120 39h1M122 39h5M41 40h8M57 40h15M75 40h4M120 40h1M122 40h5M41 41h8M57 41h15M75 41h4M120 41h1M122 41h5M41 42h8M57 42h14M75 42h4M120 42h1M122 42h5M5 43h5M11 43h1M41 43h8M57 43h8M67 43h4M75 43h4M120 43h1M122 43h1M124 43h3M5 44h5M11 44h1M41 44h2M47 44h2M57 44h1M62 44h3M69 44h2M75 44h4M120 44h1M122 44h5M5 45h5M11 45h1M41 45h2M47 45h2M57 45h1M62 45h3M70 45h1M75 45h4M120 45h1M122 45h5M5 46h5M11 46h1M42 46h1M47 46h2M57 46h1M62 46h2M69 46h2M75 46h4M120 46h1M122 46h5M5 47h5M42 47h7M57 47h7M69 47h2M75 47h4M120 47h1M122 47h5M5 48h5M11 48h1M42 48h7M57 48h7M69 48h2M75 48h4M120 48h1M122 48h5M5 49h5M11 49h1M42 49h1M69 49h2M72 49h7M120 49h1M122 49h5M5 50h2M8 50h2M11 50h1M42 50h1M69 50h10M120 50h1M122 50h5M5 51h5M11 51h1M42 51h20M69 51h10M120 51h1M122 51h5M5 52h5M11 52h1M42 52h20M69 52h10M120 52h1M122 52h5M5 53h5M11 53h1M43 53h31M75 53h3M120 53h1M122 53h5M5 54h5M11 54h1M42 54h37M120 54h1M122 54h5M5 55h5M11 55h1M41 55h4M60 55h22M120 55h1M122 55h5M5 56h5M11 56h1M35 56h12M48 56h7M60 56h17M82 56h2M120 56h1M122 56h5M5 57h5M11 57h1M35 57h1M41 57h4M48 57h7M60 57h17M82 57h2M120 57h1M122 57h5M5 58h5M11 58h1M35 58h1M41 58h4M48 58h7M60 58h17M82 58h2M120 58h1M122 58h5M5 59h5M11 59h1M34 59h2M41 59h7M49 59h23M82 59h2M120 59h1M122 59h5M5 60h5M11 60h1M34 60h2M41 60h31M82 60h2M120 60h1M122 60h5M5 61h5M11 61h1M34 61h1M36 61h36M82 61h4M120 61h1M122 61h5M5 62h5M11 62h1M34 62h1M36 62h36M82 62h4M120 62h1M122 62h5M5 63h5M11 63h1M34 63h1M36 63h36M82 63h4M120 63h1M122 63h5M5 64h5M11 64h1M33 64h2M36 64h37M84 64h2M120 64h1M122 64h5M5 65h5M11 65h1M31 65h2M36 65h38M84 65h2M120 65h1M122 65h5M5 66h5M11 66h1M31 66h2M36 66h11M62 66h10M73 66h1M80 66h10M120 66h1M122 66h5M5 67h5M11 67h1M31 67h2M36 67h11M62 67h2M65 67h9M80 67h10M120 67h1M122 67h5M5 68h5M11 68h1M31 68h2M36 68h3M40 68h7M62 68h12M80 68h10M120 68h1M122 68h5M5 69h5M11 69h1M31 69h2M37 69h10M62 69h9M80 69h12M120 69h1M122 69h5M5 70h5M11 70h1M31 70h2M42 70h5M62 70h4M77 70h15M120 70h1M122 70h5M5 71h5M11 71h1M31 71h2M42 71h5M62 71h4M77 71h7M85 71h7M120 71h1M122 71h5M5 72h5M11 72h1M31 72h2M42 72h5M62 72h4M77 72h15M120 72h1M122 72h5M5 73h5M11 73h1M31 73h2M43 73h1M50 73h8M64 73h1M77 73h15M120 73h1M122 73h5M5 74h5M11 74h1M31 74h2M43 74h1M50 74h8M64 74h1M77 74h15M120 74h1M122 74h5M5 75h5M11 75h1M31 75h2M43 75h1M50 75h8M64 75h1M74 75h10M90 75h2M120 75h1M122 75h5M5 76h5M11 76h1M31 76h2M43 76h1M50 76h8M64 76h1M74 76h10M90 76h2M120 76h1M122 76h5M5 77h5M11 77h1M31 77h2M50 77h8M74 77h8M90 77h2M120 77h1M122 77h5M5 78h5M11 78h1M31 78h2M50 78h8M74 78h8M90 78h2M120 78h1M122 78h5M5 79h5M11 79h1M33 79h2M50 79h8M74 79h4M79 79h3M90 79h2M120 79h1M122 79h5M5 80h5M11 80h1M33 80h2M74 80h5M89 80h14M120 80h1M122 80h5M5 81h5M11 81h1M33 81h2M74 81h5M90 81h14M120 81h1M122 81h5M5 82h5M11 82h1M33 82h2M74 82h5M89 82h3M102 82h2M120 82h1M122 82h5M5 83h5M11 83h1M33 83h2M74 83h5M89 83h3M102 83h2M120 83h1M122 83h5M5 84h5M11 84h1M33 84h2M43 84h5M60 84h5M74 84h5M88 84h4M102 84h2M120 84h1M122 84h5M5 85h5M11 85h1M33 85h1M43 85h22M74 85h5M88 85h2M102 85h2M120 85h1M122 85h5M5 86h5M11 86h1M33 86h1M47 86h16M74 86h5M85 86h5M102 86h2M120 86h1M122 86h5M5 87h5M11 87h1M33 87h1M47 87h16M74 87h5M85 87h5M102 87h2M120 87h1M122 87h5M5 88h5M11 88h1M33 88h2M47 88h16M74 88h5M85 88h2M89 88h1M102 88h2M120 88h1M122 88h5M5 89h5M11 89h1M33 89h16M60 89h8M69 89h18M89 89h1M102 89h2M120 89h1M122 89h2M125 89h2M5 90h5M11 90h1M33 90h16M60 90h27M89 90h1M102 90h2M120 90h1M122 90h5M5 91h5M11 91h1M33 91h16M60 91h27M89 91h1M102 91h2M120 91h1M122 91h5M5 92h5M11 92h1M33 92h16M60 92h27M89 92h1M102 92h2M120 92h1M122 92h5M6 93h4M11 93h1M33 93h16M60 93h27M89 93h1M103 93h1M120 93h1M122 93h5M5 94h5M11 94h1M49 94h1M73 94h4M88 94h5M102 94h2M120 94h1M122 94h5M5 95h5M11 95h1M33 95h1M47 95h1M50 95h27M88 95h16M120 95h1M122 95h5M5 96h5M11 96h1M33 96h2M47 96h1M50 96h5M57 96h20M88 96h16M120 96h1M122 96h5M5 97h5M11 97h1M33 97h2M47 97h1M50 97h27M88 97h16M120 97h1M122 97h5M5 98h5M11 98h1M33 98h2M47 98h1M50 98h12M63 98h14M88 98h12M101 98h3M120 98h1M122 98h5M5 99h1M7 99h3M11 99h1M33 99h2M47 99h1M50 99h2M59 99h4M74 99h16M102 99h2M120 99h1M122 99h5M5 100h5M11 100h1M33 100h2M47 100h5M58 100h5M74 100h16M103 100h1M120 100h1M122 100h5M5 101h5M11 101h1M33 101h2M47 101h5M58 101h5M74 101h12M87 101h3M103 101h1M120 101h1M122 101h5M5 102h5M11 102h1M33 102h2M47 102h2M58 102h5M72 102h22M103 102h1M120 102h1M122 102h5M5 103h5M11 103h1M33 103h2M45 103h4M58 103h5M72 103h1M74 103h3M89 103h5M102 103h2M120 103h1M122 103h5M5 104h5M11 104h1M33 104h2M45 104h3M58 104h5M102 104h2M120 104h1M122 104h5M5 105h5M11 105h1M33 105h2M45 105h3M58 105h5M102 105h2M120 105h1M122 105h5M5 106h2M8 106h2M11 106h1M33 106h15M58 106h5M102 106h2M120 106h1M122 106h5M5 107h5M11 107h1M33 107h15M58 107h5M102 107h2M120 107h1M122 107h5M5 108h5M11 108h1M34 108h14M58 108h5M102 108h2M120 108h1M122 108h3M126 108h1M5 109h5M11 109h1M45 109h2M55 109h5M61 109h2M79 109h8M102 109h2M120 109h1M122 109h5M5 110h5M11 110h1M45 110h2M55 110h8M79 110h2M82 110h5M104 110h2M120 110h1M122 110h5M5 111h5M11 111h1M45 111h2M55 111h8M79 111h8M104 111h2M120 111h1M122 111h5M5 112h5M11 112h1M45 112h2M53 112h10M72 112h1M79 112h8M93 112h1M104 112h2M120 112h1M122 112h5M5 113h5M11 113h1M45 113h2M53 113h10M72 113h1M79 113h8M93 113h1M104 113h2M120 113h1M122 113h5M5 114h5M11 114h1M45 114h15M72 114h1M79 114h8M93 114h1M104 114h2M120 114h1M122 114h5M5 115h5M11 115h1M45 115h15M71 115h4M90 115h5M104 115h2M120 115h1M122 115h5M5 116h5M11 116h1M45 116h15M71 116h4M90 116h1M92 116h3M104 116h2M120 116h1M122 116h5M5 117h5M11 117h1M45 117h15M71 117h4M90 117h5M104 117h2M120 117h1M122 117h5M5 118h5M11 118h1M45 118h12M66 118h9M90 118h7M98 118h2M104 118h2M120 118h1M122 118h5M5 119h5M11 119h1M47 119h10M63 119h8M72 119h3M90 119h11M104 119h2M120 119h1M122 119h5M5 120h5M11 120h1M47 120h10M63 120h3M67 120h7M90 120h11M104 120h2M120 120h1M122 120h5M5 121h5M11 121h1M47 121h10M63 121h12M90 121h11M104 121h2M120 121h1M122 121h5M5 122h5M11 122h1M51 122h2M63 122h27M91 122h10M104 122h2M120 122h1M122 122h5M5 123h5M11 123h1M51 123h2M63 123h4M68 123h33M104 123h2M120 123h1M122 123h5M5 124h5M11 124h1M51 124h2M64 124h37M102 124h2M120 124h1M122 124h5M5 125h5M11 125h1M51 125h4M65 125h36M102 125h1M120 125h1M122 125h5M5 126h5M11 126h1M51 126h4M65 126h13M79 126h22M120 126h1M122 126h5M5 127h5M11 127h1M51 127h4M65 127h36M102 127h1M120 127h1M122 127h5M5 128h5M11 128h1M53 128h2M65 128h16M82 128h9M92 128h4M101 128h2M120 128h1M122 128h5M5 129h5M11 129h1M53 129h2M65 129h2M68 129h17M86 129h10M101 129h2M120 129h1M122 129h5M5 130h5M11 130h1M53 130h2M60 130h17M82 130h7M92 130h4M101 130h1M120 130h1M122 130h5M5 131h5M11 131h1M53 131h2M60 131h17M82 131h7M90 131h12M120 131h1M122 131h5M5 132h5M11 132h1M55 132h4M60 132h17M92 132h4M120 132h1M122 132h3M126 132h1M5 133h5M58 133h37M120 133h1M122 133h1M124 133h3M5 134h5M11 134h1M58 134h37M120 134h1M122 134h5M5 135h5M11 135h1M58 135h11M75 135h20M120 135h1M122 135h5M5 136h5M11 136h1M58 136h11M75 136h20M120 136h1M122 136h5M5 137h5M11 137h1M58 137h11M94 137h1M120 137h1M122 137h5M5 138h2M8 138h2M11 138h1M58 138h7M66 138h3M94 138h1M120 138h1M122 138h5M5 139h5M11 139h1M58 139h7M66 139h3M94 139h1M120 139h1M122 139h5M5 140h5M11 140h1M58 140h4M66 140h3M73 140h7M88 140h7M120 140h1M122 140h5M5 141h5M11 141h1M58 141h4M66 141h3M73 141h7M88 141h7M120 141h1M123 141h4M5 142h5M11 142h1M58 142h4M66 142h3M73 142h2M79 142h1M88 142h2M94 142h1M120 142h1M122 142h5M5 143h5M11 143h1M58 143h4M66 143h3M72 143h3M79 143h1M88 143h2M94 143h2M5 144h5M11 144h1M58 144h4M66 144h3M72 144h3M79 144h1M88 144h2M94 144h2M5 145h5M11 145h1M58 145h4M66 145h4M72 145h8M88 145h8M5 146h5M11 146h1M58 146h4M66 146h4M71 146h9M88 146h8M5 147h5M11 147h1M58 147h4M65 147h15M88 147h8M5 148h5M11 148h1M58 148h14M94 148h1M5 149h5M11 149h1M60 149h12M94 149h2M5 150h5M11 150h1M60 150h15M89 150h7M5 151h5M11 151h1M60 151h15M89 151h7M5 152h5M11 152h1M60 152h39M5 153h5M11 153h1M58 153h4M96 153h3M5 154h5M11 154h1M58 154h4M96 154h3M5 155h5M11 155h1M58 155h4M96 155h3M5 156h5M11 156h1M58 156h4M96 156h3M5 157h5M11 157h1M58 157h2M96 157h3M5 158h5M11 158h1M58 158h2M96 158h4M5 159h5M11 159h1M58 159h2M96 159h4M5 160h5M11 160h1M58 160h4M99 160h2M5 161h5M11 161h1M59 161h3M99 161h2M5 162h5M11 162h1M60 162h2M99 162h2M5 163h3M9 163h1M11 163h1M60 163h2M99 163h2M5 164h5M11 164h1M60 164h2M99 164h2M6 165h1M8 165h2M11 165h1M60 165h2M99 165h2M5 166h5M11 166h1M60 166h2M99 166h2M5 167h5M11 167h1M60 167h2M66 167h6M77 167h5M87 167h7M99 167h2M5 168h5M11 168h1M60 168h2M66 168h3M71 168h1M77 168h1M81 168h1M87 168h1M93 168h1M99 168h2M5 169h5M11 169h1M60 169h2M66 169h3M71 169h1M77 169h1M81 169h1M87 169h1M93 169h1M99 169h2M5 170h5M11 170h1M60 170h2M66 170h3M71 170h1M77 170h1M81 170h1M87 170h1M93 170h1M99 170h2M5 171h1M7 171h3M11 171h1M60 171h9M71 171h1M73 171h5M81 171h7M93 171h8M5 172h5M11 172h1M60 172h9M71 172h7M81 172h7M93 172h4M98 172h3M5 173h5M11 173h1M63 173h6M72 173h6M81 173h7M94 173h6M5 174h5M11 174h1M62 174h7M72 174h6M81 174h7M94 174h6M120 174h1M122 174h5M5 175h5M11 175h1M120 175h1M122 175h5M5 176h5M11 176h1M120 176h1M122 176h5M5 177h5M11 177h1M120 177h1M122 177h5M5 178h5M11 178h1M120 178h1M122 178h5M5 179h5M11 179h24M36 179h85M122 179h5M5 180h5M122 180h1M124 180h3M5 181h63M69 181h7M77 181h50M5 182h8M14 182h79M94 182h9M104 182h20M125 182h2M5 183h122M8 184h65M74 184h14M89 184h35M8 185h95M104 185h6M111 185h13" />
<path stroke="#010000" d="M76 2h1M27 4h1M20 6h1M88 8h1M126 10h1M120 28h1M69 45h1M74 53h1M48 59h1M78 79h1M68 89h1M55 96h2M86 101h1M7 106h1M81 110h1M91 116h1M90 122h1M81 128h1M67 129h1M59 132h1M123 133h1M70 146h1M7 165h1M6 171h1M62 173h1M35 179h1M76 181h1M103 182h1M124 182h1M110 185h1" />
<path stroke="#000001" d="M54 3h1M92 6h1M108 9h1M49 20h1M38 30h1M38 33h1M63 35h1M66 35h1M123 43h1M42 53h1M78 53h1M72 66h1M64 67h1M39 68h1M84 71h1M124 89h1M5 93h1M58 99h1M73 103h1M60 109h1M78 126h1M102 126h1M85 129h1M125 132h1M7 138h1M122 141h1M5 165h1M97 172h1M123 180h1M68 181h1M73 184h1" />
<path stroke="#000100" d="M26 5h1M125 16h1M11 47h1M7 50h1M89 81h1M62 98h1M100 98h1M6 99h1M125 108h1M97 118h1M71 119h1M66 120h1M74 120h1M67 123h1M91 128h1M11 133h1M8 163h1M72 171h1M13 182h1M93 182h1M88 184h1M103 185h1" />
<path stroke="#ff9f02" d="M10 7h112M10 8h1M121 8h1M10 9h1M121 9h1M10 10h1M121 10h1M10 11h1M121 11h1M121 12h1M121 13h1M121 14h1M121 15h1M121 16h1M121 17h1M121 18h1M121 19h1M121 20h1M121 21h1M121 22h1M121 23h1M121 24h1M121 25h1M121 26h1M121 27h1M121 28h1M121 29h1M121 30h1M121 31h1M121 32h1M121 33h1M121 34h1M121 35h1M121 36h1M121 37h1M121 38h1M121 39h1M121 40h1M121 41h1M121 42h1M10 43h1M121 43h1M10 44h1M121 44h1M10 45h1M121 45h1M10 46h1M121 46h1M10 47h1M121 47h1M10 48h1M121 48h1M10 49h1M121 49h1M10 50h1M121 50h1M10 51h1M121 51h1M10 52h1M121 52h1M10 53h1M121 53h1M10 54h1M121 54h1M121 55h1M10 56h1M121 56h1M10 57h1M121 57h1M10 58h1M121 58h1M10 59h1M121 59h1M10 60h1M121 60h1M10 61h1M121 61h1M10 62h1M121 62h1M10 63h1M121 63h1M10 64h1M121 64h1M10 65h1M121 65h1M10 66h1M121 66h1M10 67h1M121 67h1M10 68h1M121 68h1M10 69h1M121 69h1M10 70h1M121 70h1M10 71h1M121 71h1M10 72h1M121 72h1M10 73h1M121 73h1M10 74h1M121 74h1M10 75h1M121 75h1M10 76h1M121 76h1M10 77h1M121 77h1M10 78h1M121 78h1M10 79h1M121 79h1M10 80h1M121 80h1M10 81h1M121 81h1M10 82h1M121 82h1M10 83h1M121 83h1M10 84h1M121 84h1M10 85h1M121 85h1M10 86h1M121 86h1M10 87h1M121 87h1M10 88h1M121 88h1M10 89h1M121 89h1M10 90h1M121 90h1M10 91h1M121 91h1M10 92h1M121 92h1M10 93h1M121 93h1M10 94h1M121 94h1M10 95h1M121 95h1M10 96h1M121 96h1M10 97h1M121 97h1M10 98h1M121 98h1M10 99h1M121 99h1M10 100h1M121 100h1M10 101h1M121 101h1M10 102h1M121 102h1M10 103h1M121 103h1M10 104h1M121 104h1M10 105h1M121 105h1M10 106h1M121 106h1M10 107h1M121 107h1M10 108h1M121 108h1M10 109h1M121 109h1M10 110h1M121 110h1M10 111h1M121 111h1M10 112h1M121 112h1M10 113h1M121 113h1M10 114h1M121 114h1M10 115h1M121 115h1M10 116h1M121 116h1M10 117h1M121 117h1M10 118h1M121 118h1M10 119h1M121 119h1M10 120h1M121 120h1M10 121h1M121 121h1M10 122h1M121 122h1M10 123h1M121 123h1M10 124h1M121 124h1M10 125h1M10 126h1M121 126h1M10 127h1M121 127h1M10 128h1M121 128h1M10 129h1M121 129h1M10 130h1M121 130h1M10 131h1M121 131h1M10 132h1M121 132h1M10 133h1M121 133h1M10 134h1M121 134h1M10 135h1M121 135h1M10 136h1M121 136h1M10 137h1M121 137h1M10 138h1M121 138h1M10 139h1M121 139h1M10 140h1M121 140h1M10 141h1M121 141h1M10 142h1M121 142h1M10 143h1M10 144h1M10 145h1M10 146h1M10 147h1M10 148h1M10 149h1M10 150h1M10 151h1M10 152h1M10 153h1M10 154h1M10 155h1M10 156h1M10 157h1M10 158h1M10 159h1M10 160h1M10 161h1M10 162h1M10 163h1M10 164h1M10 165h1M10 166h1M10 167h1M10 168h1M10 169h1M10 170h1M10 171h1M10 172h1M10 173h1M10 174h1M121 174h1M10 175h1M121 175h1M10 176h1M121 176h1M10 177h1M121 177h1M10 178h1M121 178h1M10 179h1M121 179h1M10 180h85M96 180h26" />
<path stroke="#ffffff" d="M12 10h14M27 10h26M54 10h66M12 11h82M100 11h18M119 11h1M12 12h76M90 12h4M100 12h20M12 13h22M35 13h17M53 13h41M100 13h20M17 14h20M43 14h6M56 14h3M65 14h4M75 14h17M102 14h18M17 15h20M43 15h6M56 15h3M65 15h4M75 15h3M79 15h13M102 15h7M110 15h10M17 16h16M34 16h2M44 16h5M56 16h3M66 16h3M77 16h15M102 16h18M17 17h19M44 17h5M56 17h3M66 17h3M77 17h15M102 17h18M17 18h19M44 18h5M56 18h3M66 18h3M77 18h15M102 18h18M17 19h15M33 19h3M44 19h5M56 19h3M66 19h3M77 19h17M100 19h20M17 20h19M77 20h17M100 20h5M107 20h13M12 21h24M77 21h14M92 21h2M100 21h20M12 22h12M25 22h11M77 22h17M100 22h20M12 23h24M77 23h17M100 23h4M105 23h15M12 24h24M77 24h17M100 24h20M12 25h7M20 25h16M77 25h9M87 25h7M100 25h20M12 26h8M21 26h15M77 26h17M100 26h5M106 26h14M12 27h24M41 27h3M51 27h5M63 27h3M72 27h3M78 27h16M100 27h20M12 28h24M41 28h1M43 28h1M51 28h5M63 28h3M72 28h3M79 28h15M100 28h8M109 28h11M12 29h25M79 29h15M100 29h20M17 30h20M79 30h15M100 30h16M117 30h3M17 31h21M79 31h13M102 31h12M115 31h5M17 32h9M27 32h11M79 32h13M102 32h16M119 32h1M17 33h21M79 33h4M84 33h8M102 33h16M119 33h1M17 34h21M79 34h13M102 34h18M17 35h21M77 35h9M109 35h11M17 36h24M77 36h9M96 36h1M109 36h11M17 37h1M19 37h22M77 37h9M96 37h1M109 37h11M17 38h24M77 38h9M96 38h1M109 38h11M17 39h25M79 39h7M109 39h11M12 40h29M79 40h13M102 40h18M12 41h29M79 41h13M102 41h18M12 42h29M79 42h13M102 42h18M12 43h29M79 43h13M102 43h18M12 44h1M14 44h27M43 44h4M58 44h4M79 44h13M102 44h18M12 45h29M43 45h4M58 45h4M79 45h13M102 45h18M12 46h30M43 46h4M58 46h3M79 46h13M102 46h18M12 47h30M79 47h13M102 47h18M12 48h16M29 48h13M79 48h13M102 48h1M104 48h16M12 49h19M32 49h10M79 49h6M86 49h6M102 49h18M12 50h12M25 50h17M79 50h7M87 50h5M102 50h18M12 51h30M79 51h13M102 51h18M12 52h15M28 52h13M79 52h7M87 52h5M102 52h18M12 53h14M27 53h15M79 53h13M102 53h18M12 54h30M79 54h13M102 54h18M12 55h24M37 55h4M82 55h1M84 55h8M102 55h18M12 56h23M84 56h8M102 56h10M113 56h7M12 57h23M84 57h8M102 57h6M109 57h11M12 58h23M84 58h8M102 58h18M12 59h22M84 59h6M91 59h1M102 59h18M12 60h22M84 60h8M102 60h18M12 61h22M86 61h5M102 61h18M12 62h22M86 62h6M102 62h18M12 63h19M32 63h2M86 63h6M102 63h7M110 63h10M12 64h9M22 64h11M86 64h6M102 64h7M110 64h10M12 65h19M86 65h6M102 65h18M12 66h19M90 66h2M102 66h18M12 67h2M15 67h16M49 67h1M59 67h1M90 67h2M102 67h1M104 67h10M115 67h5M12 68h19M49 68h1M59 68h1M90 68h2M102 68h18M12 69h19M49 69h1M59 69h1M102 69h18M12 70h19M49 70h1M59 70h1M102 70h2M105 70h9M115 70h5M12 71h19M34 71h1M49 71h1M59 71h1M102 71h18M12 72h19M34 72h1M49 72h1M59 72h1M102 72h18M12 73h19M34 73h1M49 73h1M59 73h1M67 73h2M102 73h18M12 74h19M34 74h1M49 74h1M59 74h1M67 74h2M102 74h18M12 75h19M34 75h2M49 75h1M59 75h1M67 75h2M102 75h18M12 76h19M34 76h2M49 76h1M59 76h1M67 76h2M102 76h18M12 77h19M49 77h1M59 77h1M67 77h2M102 77h8M111 77h9M12 78h19M49 78h1M59 78h1M102 78h18M12 79h21M49 79h1M59 79h1M102 79h10M113 79h7M12 80h2M15 80h18M49 80h1M59 80h1M103 80h17M12 81h21M49 81h1M59 81h1M104 81h16M12 82h5M18 82h15M49 82h1M59 82h1M104 82h16M12 83h21M49 83h1M59 83h1M104 83h16M12 84h21M49 84h1M59 84h1M104 84h16M12 85h21M104 85h16M12 86h21M104 86h16M12 87h21M104 87h16M12 88h11M24 88h9M104 88h16M13 89h20M104 89h16M12 90h21M104 90h16M12 91h21M104 91h16M12 92h21M52 92h1M104 92h16M12 93h21M51 93h5M104 93h16M12 94h21M104 94h16M12 95h7M20 95h13M81 95h5M104 95h16M12 96h12M25 96h8M84 96h1M104 96h16M12 97h21M104 97h16M12 98h21M104 98h16M12 99h21M104 99h15M12 100h2M15 100h18M104 100h16M12 101h21M104 101h16M12 102h21M104 102h16M12 103h21M77 103h1M87 103h1M104 103h16M12 104h21M77 104h1M87 104h1M104 104h16M12 105h21M77 105h1M87 105h1M104 105h16M12 106h21M77 106h1M87 106h1M104 106h16M12 107h21M77 107h1M87 107h1M104 107h16M12 108h22M77 108h1M87 108h1M104 108h3M108 108h12M12 109h16M29 109h6M77 109h1M87 109h1M104 109h7M112 109h8M12 110h9M22 110h13M77 110h1M87 110h1M106 110h14M12 111h23M69 111h1M77 111h1M87 111h1M106 111h9M116 111h4M12 112h23M69 112h1M77 112h1M87 112h1M101 112h2M106 112h14M12 113h23M69 113h1M77 113h1M87 113h1M101 113h2M106 113h14M12 114h8M21 114h14M69 114h1M77 114h1M87 114h1M102 114h1M106 114h14M12 115h23M77 115h1M87 115h1M102 115h1M106 115h14M12 116h23M77 116h1M87 116h1M102 116h1M106 116h14M12 117h23M77 117h1M87 117h1M106 117h12M119 117h1M12 118h23M77 118h1M87 118h1M106 118h14M12 119h23M45 119h2M77 119h1M87 119h1M106 119h14M12 120h23M45 120h2M77 120h1M87 120h1M107 120h7M115 120h5M12 121h23M45 121h2M106 121h14M12 122h23M45 122h6M106 122h14M12 123h23M45 123h6M106 123h14M12 124h23M45 124h6M104 124h16M12 125h23M45 125h6M103 125h17M12 126h23M45 126h6M103 126h17M12 127h23M45 127h6M103 127h17M12 128h23M45 128h8M103 128h17M12 129h23M45 129h8M103 129h17M12 130h23M45 130h8M102 130h18M12 131h23M45 131h1M47 131h6M102 131h18M13 132h22M45 132h10M96 132h24M12 133h22M45 133h13M95 133h25M12 134h11M24 134h11M45 134h13M95 134h25M12 135h23M45 135h10M56 135h2M95 135h25M12 136h23M45 136h13M95 136h22M118 136h2M12 137h23M45 137h13M95 137h25M12 138h23M45 138h13M95 138h25M12 139h23M45 139h13M95 139h25M12 140h23M45 140h13M95 140h25M12 141h4M17 141h18M45 141h13M95 141h25M12 142h23M45 142h13M75 142h4M90 142h4M95 142h21M117 142h3M12 143h23M45 143h13M75 143h4M90 143h4M96 143h24M12 144h23M45 144h13M75 144h4M90 144h4M96 144h24M12 145h23M45 145h13M96 145h19M12 146h23M45 146h13M96 146h19M12 147h23M45 147h13M96 147h19M12 148h16M51 148h7M95 148h12M108 148h7M12 149h16M40 149h1M51 149h9M96 149h19M12 150h16M40 150h1M51 150h9M96 150h19M12 151h16M40 151h1M52 151h8M96 151h19M12 152h16M51 152h9M99 152h16M12 153h23M45 153h13M99 153h1M101 153h14M12 154h14M27 154h8M45 154h13M99 154h16M13 155h17M31 155h4M45 155h13M99 155h4M104 155h16M12 156h23M45 156h13M99 156h21M12 157h23M45 157h13M99 157h21M12 158h25M43 158h15M100 158h20M12 159h20M33 159h4M43 159h15M100 159h20M12 160h16M29 160h8M43 160h15M62 160h3M71 160h3M81 160h5M93 160h3M101 160h19M12 161h25M43 161h16M62 161h3M71 161h3M81 161h5M93 161h3M101 161h19M12 162h25M43 162h17M101 162h19M12 163h18M31 163h6M43 163h17M101 163h19M12 164h25M43 164h5M49 164h11M101 164h14M12 165h25M43 165h17M101 165h14M12 166h25M43 166h17M101 166h14M12 167h5M18 167h19M43 167h9M53 167h7M101 167h14M12 168h25M43 168h17M69 168h2M78 168h3M88 168h5M101 168h14M12 169h23M45 169h15M69 169h2M78 169h3M88 169h5M101 169h14M12 170h23M45 170h4M50 170h10M69 170h2M78 170h3M88 170h5M101 170h7M109 170h6M12 171h23M45 171h6M52 171h8M69 171h2M78 171h3M88 171h5M101 171h19M12 172h23M45 172h15M69 172h2M78 172h3M88 172h5M101 172h19M12 173h23M45 173h17M69 173h3M78 173h3M88 173h6M100 173h5M106 173h14M12 174h23M45 174h17M69 174h3M78 174h3M88 174h6M100 174h20M12 175h25M43 175h8M52 175h68M12 176h25M43 176h45M89 176h13M103 176h17M12 177h14M28 177h9M43 177h3M47 177h13M61 177h59M12 178h108" />
<path stroke="#fffeff" d="M26 10h1M118 11h1M34 13h1M33 16h1M32 19h1M24 22h1M42 28h1M116 30h1M118 32h1M41 52h1M108 57h1M31 63h1M109 63h1M21 64h1M109 64h1M110 77h1M14 80h1M23 88h1M21 110h1M115 111h1M23 134h1M55 135h1M117 136h1M16 141h1M100 153h1M30 155h1M103 155h1M48 164h1M52 167h1M49 170h1M27 177h1M46 177h1" />
<path stroke="#feffff" d="M53 10h1M89 12h1M105 20h2M91 21h1M104 23h1M19 25h1M20 26h1M114 31h1M26 32h1M83 33h1M18 37h1M61 46h1M28 48h1M103 48h1M85 49h1M90 59h1M14 67h1M114 67h1M114 70h1M12 89h1M111 109h1M20 114h1M118 117h1M46 131h1M12 132h1M116 142h1M107 148h1M51 151h1M26 154h1M12 155h1M32 159h1M30 163h1M17 167h1M108 170h1M51 171h1M88 176h1M60 177h1" />
<path stroke="#ffa300" d="M94 11h6M96 14h3M96 15h3M96 16h3M94 17h8M42 18h1M50 18h3M60 18h4M71 18h3M94 18h8M41 19h2M50 19h3M60 19h4M71 19h3M96 19h4M41 20h2M50 20h3M60 20h4M71 20h3M96 20h4M41 21h24M66 21h9M41 22h24M66 22h9M41 23h34M46 24h29M45 25h30M45 26h5M57 26h5M67 26h4M96 26h4M45 27h5M57 27h5M67 27h4M96 27h4M45 28h5M57 28h5M67 28h4M96 28h4M45 29h5M56 29h6M66 29h5M96 29h4M45 30h5M56 30h6M66 30h5M96 30h4M94 31h2M99 31h3M100 32h2M100 33h2M100 34h2M100 35h9M100 46h2M94 47h8M94 48h8M94 49h8M94 50h8M94 51h8M94 52h8M94 53h8M94 54h4M99 54h3M94 55h8M94 56h8M94 57h8M94 58h8M37 59h4M78 59h4M94 59h8M37 60h4M78 60h4M94 60h8M75 61h7M94 61h8M75 62h7M94 62h8M74 63h8M94 63h3M98 63h4M75 64h9M96 64h6M77 65h7M77 66h3M77 67h3M77 68h3M75 69h5M36 70h6M74 70h3M35 71h7M74 71h3M35 72h7M69 72h8M35 73h8M69 73h8M92 73h10M35 74h8M69 74h8M92 74h10M36 75h7M69 75h5M87 75h3M93 75h9M36 76h7M69 76h5M87 76h3M92 76h10M36 77h7M69 77h5M87 77h3M37 78h6M66 78h8M87 78h3M37 79h6M66 79h2M69 79h5M86 79h4M37 80h6M66 80h8M86 80h3M37 81h6M66 81h8M86 81h3M37 82h6M66 82h8M86 82h3M37 83h6M66 83h8M86 83h3M37 84h6M66 84h8M84 84h4M37 85h6M66 85h8M84 85h4M40 86h7M66 86h8M84 86h1M41 87h6M71 87h3M84 87h1M84 88h1M50 94h23M93 94h9M52 99h1M52 100h1M63 100h3M90 100h6M52 101h1M63 101h8M90 101h7M49 102h3M63 102h6M70 102h1M94 102h6M49 103h4M63 103h8M94 103h6M48 104h3M63 104h8M94 104h6M48 105h3M63 105h8M94 105h6M48 106h3M63 106h8M94 106h6M48 107h3M63 107h8M94 107h6M48 108h3M63 108h8M94 108h6M47 109h4M63 109h8M94 109h6M47 110h3M63 110h8M94 110h6M47 111h3M63 111h6M94 111h7M35 112h10M47 112h3M63 112h6M94 112h7M35 113h10M47 113h3M63 113h6M94 113h7M35 114h10M60 114h9M94 114h8M60 115h9M95 115h7M60 116h3M95 116h7M60 117h3M95 117h6M57 118h5M57 119h3M57 120h3M57 121h3M53 122h7M53 123h7M35 124h6M53 124h9M35 125h8M55 125h8M35 126h8M55 126h7M35 127h8M55 127h7M35 128h8M55 128h4M96 128h4M35 129h8M55 129h4M96 129h4M35 130h8M35 131h6M42 131h1M35 132h8M35 133h6M42 133h1M35 134h8M35 135h8M35 136h8M35 137h8M35 138h8M35 139h8M35 140h8M35 141h8M35 142h2M28 152h9M36 153h1M35 154h2M35 155h2M35 156h2M35 157h3M41 157h2M37 158h4M66 158h5M75 158h6M87 158h5M37 159h4M66 159h5M75 159h6M87 159h5M37 160h4M66 160h4M75 160h3M79 160h1M87 160h5M37 161h4M66 161h4M75 161h5M87 161h5M37 162h4M66 162h4M75 162h5M87 162h5M62 163h30M62 164h34M62 165h9M72 165h24M62 166h9M73 166h23M37 167h4M63 167h3M73 167h4M84 167h3M94 167h2M37 168h4M63 168h3M73 168h4M84 168h3M94 168h2M35 169h8M63 169h3M73 169h4M84 169h3M94 169h1M35 170h8M38 171h3M38 172h3M38 173h3M38 174h3M37 177h6" />
<path stroke="#fffffe" d="M88 12h1M52 13h1M78 15h1M109 15h1M86 25h1M105 26h1M108 28h1M13 44h1M31 49h1M24 50h1M86 50h1M27 52h1M86 52h1M26 53h1M36 55h1M83 55h1M112 56h1M91 61h1M103 67h1M104 70h1M112 79h1M17 82h1M19 95h1M24 96h1M119 99h1M14 100h1M107 108h1M28 109h1M106 120h1M114 120h1M34 133h1M28 160h1M105 173h1M51 175h1M102 176h1M26 177h1" />
<path stroke="#a93b3b" d="M94 12h6M94 13h6M92 14h4M99 14h3M92 15h4M99 15h3M92 16h4M99 16h3M94 21h6M94 22h6M94 23h6M94 24h6M94 25h6M96 31h3M94 32h6M94 33h6M94 34h6M94 35h1M99 35h1M86 36h8M100 36h9M86 37h8M100 37h9M86 38h8M100 38h9M86 39h9M99 39h10M92 40h10M92 41h10M92 42h10M92 43h10M92 44h10M92 45h10M94 46h6M47 66h1M50 66h8M60 66h2M47 67h1M50 67h8M60 67h2M47 68h1M50 68h8M60 68h2M47 69h1M50 69h8M60 69h2M92 69h8M101 69h1M47 70h1M51 70h7M60 70h2M92 70h10M47 71h1M50 71h8M60 71h2M92 71h10M47 72h1M50 72h8M60 72h2M92 72h10M44 73h4M60 73h4M44 74h4M60 74h4M44 75h4M60 75h4M84 75h3M44 76h4M60 76h4M84 76h3M43 77h5M60 77h5M82 77h5M43 78h4M60 78h5M82 78h5M43 79h5M61 79h4M82 79h4M43 80h5M50 80h8M60 80h5M79 80h7M43 81h5M50 81h8M60 81h5M79 81h7M43 82h5M50 82h8M60 82h5M79 82h7M43 83h5M50 83h8M60 83h5M79 83h7M50 84h8M79 84h5M79 85h5M79 86h5M79 87h5M79 88h1M81 88h3M53 99h5M53 100h5M53 101h5M53 102h5M53 103h5M79 103h8M51 104h7M72 104h5M79 104h8M89 104h5M51 105h7M72 105h5M79 105h8M89 105h5M51 106h7M72 106h5M79 106h8M89 106h5M51 107h7M72 107h5M79 107h8M89 107h5M52 108h6M72 108h5M79 108h8M89 108h5M51 109h4M73 109h4M89 109h5M51 110h4M72 110h5M89 110h5M50 111h5M72 111h5M89 111h5M50 112h3M73 112h4M89 112h4M50 113h3M73 113h4M89 113h4M73 114h4M89 114h4M35 115h10M75 115h2M79 115h4M84 115h3M89 115h1M35 116h10M75 116h2M79 116h8M89 116h1M35 117h10M75 117h2M79 117h8M89 117h1M35 118h10M75 118h2M79 118h8M89 118h1M75 119h2M79 119h8M89 119h1M75 120h2M79 120h8M89 120h1M75 121h2M79 121h8M89 121h1M37 142h6M35 143h10M35 144h10M35 145h10M35 146h10M36 147h9M28 148h10M42 148h9M28 149h9M43 149h8M28 150h9M43 150h8M28 151h9M43 151h8M37 152h1M42 152h1M37 153h6M37 154h6M37 155h6M37 156h6M38 157h3M37 163h6M37 164h6M37 165h2M40 165h3M37 166h6M35 171h3M41 171h4M35 172h3M41 172h4M35 173h3M41 173h4M35 174h3M41 174h4M37 175h6M37 176h6" />
<path stroke="#c83138" d="M0 14h6M10 14h7M0 15h6M10 15h7M0 16h6M10 16h7M0 17h6M10 17h7M0 18h6M10 18h7M0 19h6M10 19h7M0 20h6M10 20h4M15 20h2M0 21h12M0 22h12M0 23h12M0 24h12M0 25h3M4 25h8M0 26h12M0 27h12M0 28h9M10 28h2M0 29h12M0 30h17M0 31h6M10 31h7M0 32h6M11 32h6M0 33h6M10 33h7M0 34h6M10 34h7M0 35h6M10 35h7M0 36h6M10 36h7M0 37h6M10 37h7M0 38h6M10 38h7M0 39h6M10 39h7M115 145h7M126 145h7M115 146h7M126 146h7M115 147h7M126 147h3M130 147h3M115 148h7M126 148h4M131 148h2M115 149h7M126 149h7M115 150h7M126 150h7M115 151h7M126 151h7M115 152h7M126 152h7M115 153h7M127 153h6M115 154h18M120 155h3M124 155h9M120 156h13M120 157h13M120 158h13M120 159h10M131 159h2M120 160h13M120 161h3M124 161h9M120 162h13M120 163h13M115 164h7M126 164h7M115 165h7M126 165h7M115 166h7M126 166h7M115 167h7M126 167h7M115 168h7M126 168h7M115 169h7M126 169h7M115 170h7M126 170h7" />
<path stroke="#a95236" d="M38 17h5M50 17h5M60 17h5M71 17h4M92 17h2M38 18h4M53 18h2M64 18h1M74 18h1M92 18h2M38 19h3M53 19h2M64 19h1M74 19h1M94 19h2M38 20h3M53 20h2M64 20h1M74 20h1M94 20h2M38 21h3M65 21h1M38 22h3M65 22h1M38 23h3M38 24h7M38 25h7M38 26h2M44 26h1M56 26h1M66 26h1M94 26h2M38 27h2M44 27h1M56 27h1M66 27h1M94 27h2M38 28h2M44 28h1M66 28h1M94 28h2M41 29h4M50 29h6M62 29h4M71 29h6M94 29h2M41 30h4M50 30h6M62 30h4M71 30h6M94 30h2M41 31h36M92 31h2M41 32h34M92 32h2M41 33h2M44 33h31M92 33h2M41 34h34M92 34h2M86 35h8M92 46h2M92 47h2M92 48h2M92 49h2M92 50h2M92 51h2M92 52h2M92 53h2M92 54h2M92 55h2M77 56h5M92 56h2M36 57h5M77 57h5M92 57h2M36 58h5M77 58h5M92 58h2M36 59h1M72 59h6M92 59h2M36 60h1M72 60h6M92 60h2M35 61h1M72 61h3M92 61h2M35 62h1M72 62h3M92 62h2M35 63h1M72 63h2M92 63h2M35 64h1M73 64h2M92 64h4M33 65h3M74 65h3M92 65h10M33 66h3M74 66h3M92 66h10M34 67h2M74 67h3M92 67h2M95 67h7M33 68h3M74 68h3M92 68h10M33 69h4M71 69h4M33 70h1M35 70h1M66 70h8M33 71h1M66 71h2M69 71h5M33 72h1M66 72h1M33 73h1M65 73h2M33 74h1M65 74h2M33 75h1M65 75h2M33 76h1M65 76h2M33 77h3M65 77h2M33 78h4M65 78h1M35 79h2M65 79h1M35 80h2M65 80h1M35 81h2M65 81h1M35 82h2M65 82h1M35 83h2M65 83h1M35 84h2M65 84h1M34 85h3M65 85h1M34 86h6M63 86h3M34 87h7M63 87h8M35 88h12M63 88h11M63 99h11M90 99h12M66 100h8M96 100h7M71 101h3M97 101h6M71 102h1M100 102h3M71 103h1M100 103h2M71 104h1M100 104h2M71 105h1M100 105h2M71 106h1M100 106h2M71 107h1M100 107h2M71 108h1M100 108h2M71 109h1M100 109h2M71 110h1M100 110h4M70 111h2M101 111h3M70 112h2M103 112h1M70 113h2M103 113h1M70 114h2M103 114h1M70 115h1M103 115h1M63 116h8M103 116h1M63 117h8M101 117h1M103 117h1M62 118h4M100 118h4M35 119h10M60 119h3M101 119h3M35 120h10M60 120h3M101 120h3M35 121h10M60 121h3M101 121h3M35 122h10M60 122h3M101 122h3M35 123h10M60 123h3M101 123h3M41 124h2M44 124h1M62 124h2M101 124h1M43 125h2M63 125h2M101 125h1M43 126h2M62 126h3M101 126h1M43 127h2M62 127h3M101 127h1M43 128h2M59 128h6M100 128h1M43 129h1M59 129h6M100 129h1M43 130h2M56 130h4M96 130h5M43 131h2M55 131h5M43 132h2M43 133h2M43 134h2M43 135h2M43 136h2M43 137h2M43 138h2M43 139h2M43 140h2M43 141h2M43 142h2M43 152h8M43 153h2M62 153h34M43 154h2M62 154h34M43 155h2M62 155h1M64 155h32M43 156h2M62 156h34M43 157h2M60 157h27M88 157h8M41 158h2M60 158h6M71 158h4M81 158h6M92 158h4M41 159h2M60 159h6M71 159h4M81 159h6M92 159h4M41 160h2M70 160h1M80 160h1M92 160h1M97 160h2M41 161h2M70 161h1M80 161h1M92 161h1M97 161h2M41 162h2M70 162h1M80 162h1M92 162h1M97 162h2M92 163h7M96 164h3M71 165h1M96 165h3M71 166h1M96 166h3M41 167h2M62 167h1M72 167h1M82 167h2M96 167h3M41 168h2M62 168h1M72 168h1M82 168h2M96 168h3M43 169h2M62 169h1M72 169h1M82 169h2M95 169h4M43 170h2M62 170h1M64 170h2M72 170h5M82 170h5M94 170h5" />
<path stroke="#c83139" d="M14 20h1M129 147h1M123 161h1" />
<path stroke="#fea300" d="M45 24h1M92 75h1M35 153h1" />
<path stroke="#c93138" d="M3 25h1M9 28h1M10 32h1M130 148h1M130 159h1" />
<path stroke="#9badb7" d="M40 26h4M50 26h6M62 26h4M71 26h4M40 27h1M50 27h1M62 27h1M40 28h1M50 28h1M62 28h1M71 28h1M95 36h1M95 37h1M48 66h2M58 66h2M48 67h1M58 67h1M48 68h1M58 68h1M48 69h1M58 69h1M34 70h1M48 70h1M58 70h1M48 71h1M58 71h1M48 72h1M58 72h1M67 72h2M48 73h1M58 73h1M48 74h1M58 74h1M48 75h1M58 75h1M48 76h1M58 76h1M48 77h1M58 77h1M48 78h1M58 78h1M48 79h1M58 79h1M48 80h1M58 80h1M48 81h1M58 81h1M48 82h1M58 82h1M48 83h1M58 83h1M48 84h1M58 84h1M52 89h1M52 90h1M52 91h1M50 92h2M50 93h1M86 95h1M85 96h2M84 97h1M84 98h1M78 103h1M88 103h1M78 104h1M88 104h1M78 105h1M88 105h1M78 106h1M88 106h1M78 107h1M88 107h1M78 108h1M88 108h1M78 109h1M88 109h1M78 110h1M88 110h1M78 111h1M88 111h1M78 112h1M88 112h1M78 113h1M88 113h1M78 114h1M88 114h1M69 115h1M78 115h1M88 115h1M78 116h1M88 116h1M78 117h1M88 117h1M102 117h1M78 118h1M88 118h1M78 119h1M88 119h1M78 120h1M88 120h1M77 121h2M87 121h2M41 150h1M41 151h1M40 152h1M65 160h1M74 160h1M86 160h1M96 160h1M65 161h1M74 161h1M86 161h1M96 161h1M62 162h4M71 162h4M81 162h6M93 162h4" />
<path stroke="#9bacb7" d="M71 27h1" />
<path stroke="#a95336" d="M56 28h1M68 71h1M44 129h1M55 130h1" />
<path stroke="#a85236" d="M43 33h1M33 67h1M43 124h1" />
<path stroke="#fefeff" d="M118 33h1" />
<path stroke="#009dff" d="M95 35h1M97 35h2M94 36h1M94 37h1M94 38h2M97 38h2M95 39h4M49 89h3M53 89h3M49 90h3M53 90h3M49 91h3M53 91h3M49 92h1M53 92h3M49 93h1M87 95h1M81 96h3M87 96h1M81 97h3M85 97h3M81 98h3M85 98h3M38 148h4M38 149h2M41 149h2M42 150h1M42 151h1M38 152h2M41 152h1" />
<path stroke="#9aadb7" d="M96 35h1" />
<path stroke="#d47564" d="M48 36h14M48 37h14M43 38h21M43 39h1M72 40h3M72 41h3M71 42h2M71 43h1M71 44h1M71 45h1M64 46h1M71 46h3M71 47h4M71 48h4M43 49h6M71 49h1M43 50h2M45 55h2M47 56h1M59 56h1M45 57h3M55 57h5M46 58h2M55 58h5M92 82h10M92 83h10M92 84h10M90 85h2M93 85h2M90 86h5M90 87h5M87 88h2M90 88h5M87 89h2M90 89h5M87 90h2M90 90h5M87 91h2M90 91h5M87 92h2M90 92h5M87 93h2M90 93h13M34 94h12M47 94h2M34 95h13M48 95h2M42 96h5M48 96h2M42 97h5M48 97h2M42 98h5M48 98h2M42 99h5M48 99h2M42 100h5M42 101h5M42 102h5M35 103h10M35 104h10M35 105h10M77 130h5M89 130h3M77 131h1M89 131h1M90 132h2M92 137h2M65 138h1M88 138h5M65 139h1M88 139h6M62 140h4M62 141h4M64 142h2M72 142h1M65 143h1M65 144h1M65 145h1M64 146h2M62 147h3M93 148h1M72 149h22M75 150h14M75 151h14" />
<path stroke="#29adfe" d="M97 36h1" />
<path stroke="#29adff" d="M98 36h2M97 37h3M99 38h1M56 89h4M56 90h4M56 91h4M56 92h4M56 93h4M77 94h11M77 95h4M77 96h4M77 97h4M77 98h4M37 149h1M37 150h3M37 151h3" />
<path stroke="#d47565" d="M64 38h1M46 94h1" />
<path stroke="#fecca9" d="M44 39h21M49 40h8M49 41h8M49 42h8M73 42h2M49 43h8M65 43h2M72 43h3M49 44h8M65 44h4M72 44h3M49 45h8M65 45h4M72 45h3M49 46h8M65 46h4M74 46h1M49 47h8M64 47h5M49 48h8M64 48h5M49 49h20M45 50h24M62 51h7M62 52h7M47 55h13M55 56h4M95 85h7M95 86h7M95 87h7M95 88h7M95 89h7M95 90h7M95 91h7M95 92h7M33 94h1M35 96h7M35 97h7M35 98h7M35 99h2M38 99h4M35 100h7M35 101h7M35 102h7M78 131h4M77 132h13M69 135h6M69 136h6M69 137h1M71 137h21M69 138h19M69 139h19M69 140h4M80 140h8M69 141h4M80 141h8M62 142h1M69 142h3M80 142h8M62 143h3M69 143h3M80 143h8M62 144h3M69 144h3M80 144h8M62 145h3M70 145h2M80 145h8M62 146h2M80 146h8M80 147h8M72 148h2M75 148h18" />
<path stroke="#ffa200" d="M98 54h1M97 63h1M68 79h1M69 102h1M41 131h1" />
<path stroke="#fe9f02" d="M10 55h1" />
<path stroke="#d47464" d="M45 58h1" />
<path stroke="#a95237" d="M94 67h1M63 155h1M87 157h1M63 170h1" />
<path stroke="#a93a3b" d="M100 69h1M51 108h1M72 109h1M35 147h1M39 165h1" />
<path stroke="#a83b3b" d="M50 70h1M60 79h1M50 110h1" />
<path stroke="#5f564f" d="M92 77h10M92 78h10M92 79h10M35 109h10M35 110h10M35 111h10" />
<path stroke="#a93b3a" d="M47 78h1M80 88h1M83 115h1" />
<path stroke="#d57564" d="M92 85h1M93 138h1M63 142h1" />
<path stroke="#ffcca9" d="M37 99h1" />
<path stroke="#ffa301" d="M52 102h1M41 133h1M78 160h1M72 166h1" />
<path stroke="#ff9f03" d="M121 125h1" />
<path stroke="#fecca8" d="M70 137h1M74 148h1" />
<path stroke="#c83038" d="M126 153h1M123 155h1" />
<path stroke="#ff9e02" d="M95 180h1" />
</svg>