<svg xmlns="http://www.w3.org/2000/svg" viewBox="0 -0.5 133 187" shape-rendering="crispEdges">
<metadata>Made with Pixels to Svg https://codepen.io/shshaw/pen/XbxvNj</metadata>
<path stroke="#000000" d="M7 2h118M7 3h48M56 3h24M81 3h44M5 4h107M113 4h14M5 5h4M10 5h31M42 5h31M74 5h47M122 5h5M5 6h122M5 7h103M109 7h18M5 8h5M122 8h5M5 9h5M11 9h24M36 9h15M52 9h37M90 9h31M122 9h5M5 10h5M11 10h1M120 10h1M122 10h5M5 11h5M11 11h1M120 11h1M122 11h5M120 12h1M122 12h5M120 13h1M122 13h5M1 14h15M120 14h1M122 14h5M1 15h15M120 15h1M122 15h5M1 16h15M120 16h1M122 16h5M1 17h15M120 17h1M122 17h5M0 18h18M120 18h1M122 18h5M0 19h18M120 19h1M122 19h5M0 20h3M12 20h6M120 20h1M122 20h5M0 21h3M12 21h6M120 21h1M122 21h5M0 22h3M12 22h6M120 22h1M122 22h5M0 23h3M12 23h6M53 23h3M59 23h4M67 23h3M120 23h1M122 23h5M0 24h3M12 24h6M53 24h3M59 24h4M67 24h3M120 24h1M122 24h5M0 25h3M12 25h6M53 25h3M59 25h4M67 25h3M73 25h4M120 25h1M122 25h5M0 26h3M12 26h6M53 26h3M59 26h4M67 26h3M73 26h4M120 26h1M122 26h5M0 27h3M9 27h9M53 27h3M59 27h4M67 27h3M76 27h1M120 27h1M122 27h5M0 28h3M9 28h3M13 28h5M76 28h1M120 28h1M122 28h5M0 29h3M9 29h9M76 29h1M120 29h1M122 29h5M0 30h3M9 30h9M76 30h1M120 30h1M122 30h5M0 31h18M76 31h1M120 31h1M122 31h5M0 32h18M49 32h23M76 32h3M120 32h1M122 32h5M0 33h18M49 33h23M79 33h2M120 33h1M122 33h5M4 34h19M49 34h23M79 34h2M120 34h1M122 34h5M3 35h20M49 35h23M79 35h2M120 35h1M122 35h5M3 36h14M18 36h5M49 36h3M54 36h6M62 36h12M79 36h2M120 36h1M122 36h5M14 37h9M49 37h3M54 37h6M62 37h10M73 37h1M82 37h1M120 37h1M122 37h5M14 38h9M49 38h3M65 38h9M82 38h1M120 38h1M122 38h5M14 39h9M49 39h6M62 39h12M82 39h1M120 39h1M122 39h5M49 40h2M65 40h5M73 40h4M84 40h2M120 40h1M122 40h5M49 41h2M65 41h5M73 41h4M84 41h2M120 41h1M122 41h5M49 42h2M65 42h5M73 42h4M84 42h2M120 42h1M122 42h5M5 43h5M11 43h1M49 43h2M65 43h5M73 43h4M84 43h1M120 43h1M122 43h5M5 44h5M11 44h1M49 44h2M65 44h5M73 44h4M84 44h3M120 44h1M122 44h5M5 45h5M11 45h1M49 45h2M67 45h3M73 45h4M87 45h1M120 45h1M122 45h5M5 46h5M11 46h1M49 46h2M67 46h3M73 46h4M87 46h1M120 46h1M122 46h5M5 47h5M11 47h1M48 47h3M67 47h2M73 47h6M87 47h1M120 47h1M122 47h5M5 48h5M11 48h1M46 48h2M49 48h2M67 48h12M87 48h1M120 48h1M122 48h5M5 49h5M11 49h1M46 49h2M49 49h2M67 49h12M87 49h1M120 49h1M122 49h5M5 50h5M11 50h1M46 50h2M49 50h2M67 50h12M87 50h1M120 50h1M122 50h5M5 51h5M11 51h1M45 51h3M49 51h2M67 51h15M120 51h1M123 51h4M5 52h5M11 52h1M45 52h3M49 52h2M54 52h1M62 52h1M67 52h15M120 52h1M122 52h5M5 53h5M11 53h1M44 53h1M49 53h2M55 53h7M67 53h10M78 53h4M120 53h1M122 53h5M5 54h5M11 54h1M43 54h1M49 54h2M67 54h15M120 54h1M122 54h5M5 55h5M11 55h1M43 55h1M49 55h2M67 55h15M120 55h1M122 55h5M5 56h5M11 56h1M43 56h1M48 56h3M67 56h14M120 56h1M122 56h5M5 57h5M11 57h1M43 57h1M48 57h3M67 57h15M120 57h1M122 57h5M5 58h5M11 58h1M41 58h3M48 58h35M120 58h1M122 58h5M5 59h5M11 59h1M41 59h3M48 59h35M120 59h1M122 59h5M5 60h5M11 60h1M40 60h1M48 60h9M65 60h23M120 60h1M122 60h5M5 61h5M11 61h1M40 61h1M48 61h1M56 61h1M65 61h3M76 61h12M120 61h1M122 61h5M5 62h5M11 62h1M40 62h9M56 62h1M65 62h3M76 62h12M120 62h1M122 62h5M5 63h5M11 63h1M40 63h9M56 63h1M65 63h3M76 63h2M79 63h9M120 63h1M122 63h5M5 64h5M11 64h1M40 64h9M56 64h1M65 64h3M76 64h9M86 64h2M120 64h1M122 64h5M5 65h5M11 65h1M40 65h1M44 65h5M54 65h3M65 65h4M75 65h13M91 65h1M122 65h5M5 66h5M11 66h1M40 66h1M44 66h5M54 66h3M65 66h4M74 66h14M91 66h1M120 66h1M122 66h1M124 66h3M5 67h5M11 67h1M37 67h4M44 67h5M54 67h1M68 67h1M74 67h3M92 67h1M120 67h1M122 67h5M5 68h5M11 68h1M37 68h2M48 68h1M54 68h15M74 68h3M92 68h1M120 68h1M122 68h5M5 69h5M11 69h1M37 69h2M48 69h1M54 69h15M74 69h3M92 69h1M120 69h1M122 69h5M5 70h5M11 70h1M37 70h2M48 70h1M54 70h15M74 70h3M93 70h2M120 70h1M122 70h5M5 71h5M11 71h1M37 71h2M40 71h9M74 71h3M93 71h2M120 71h1M122 71h5M5 72h5M11 72h1M37 72h2M40 72h9M74 72h3M94 72h1M120 72h1M122 72h5M5 73h5M11 73h1M36 73h3M48 73h1M74 73h2M82 73h1M92 73h1M95 73h1M120 73h1M122 73h5M5 74h5M11 74h1M36 74h3M48 74h1M74 74h2M82 74h1M92 74h1M95 74h1M120 74h1M122 74h5M5 75h5M11 75h1M36 75h3M48 75h1M74 75h2M82 75h1M92 75h1M95 75h1M120 75h1M122 75h5M5 76h5M11 76h1M36 76h1M39 76h10M74 76h2M79 76h2M86 76h6M93 76h3M120 76h1M122 76h5M5 77h5M11 77h1M35 77h2M38 77h1M48 77h3M60 77h7M70 77h6M79 77h2M83 77h3M91 77h2M95 77h1M120 77h1M122 77h5M5 78h5M11 78h1M32 78h4M38 78h1M48 78h6M56 78h4M67 78h9M79 78h2M83 78h1M92 78h1M95 78h1M120 78h1M122 78h5M5 79h5M11 79h1M32 79h4M38 79h1M48 79h6M55 79h1M72 79h4M79 79h2M83 79h1M92 79h1M95 79h1M120 79h1M122 79h5M5 80h5M11 80h1M32 80h2M38 80h1M48 80h7M72 80h4M79 80h2M83 80h1M92 80h1M95 80h2M120 80h1M122 80h5M5 81h5M11 81h1M32 81h2M38 81h1M48 81h5M74 81h2M77 81h2M81 81h3M92 81h1M96 81h1M120 81h1M122 81h5M5 82h5M11 82h1M32 82h2M38 82h1M48 82h5M74 82h2M77 82h2M81 82h3M92 82h1M96 82h1M120 82h1M122 82h5M5 83h5M11 83h1M31 83h3M38 83h1M48 83h5M74 83h4M81 83h1M83 83h1M92 83h1M96 83h1M120 83h1M122 83h5M5 84h5M11 84h1M31 84h3M39 84h4M44 84h7M63 84h2M76 84h1M81 84h1M83 84h1M92 84h1M96 84h1M120 84h1M122 84h5M5 85h5M11 85h1M31 85h3M39 85h12M62 85h4M76 85h1M81 85h1M83 85h1M92 85h1M96 85h1M120 85h1M122 85h5M5 86h5M11 86h1M31 86h3M49 86h1M61 86h6M77 86h1M81 86h12M96 86h1M120 86h1M122 86h5M5 87h5M11 87h1M32 87h4M49 87h1M60 87h8M77 87h1M96 87h1M120 87h1M122 87h5M5 88h5M11 88h1M32 88h4M48 88h1M59 88h10M78 88h1M96 88h1M120 88h1M122 88h5M5 89h5M11 89h1M35 89h1M48 89h1M59 89h10M78 89h1M95 89h1M120 89h1M122 89h5M5 90h5M11 90h1M37 90h2M48 90h1M58 90h12M78 90h3M95 90h1M120 90h1M122 90h5M5 91h5M11 91h1M37 91h2M48 91h1M57 91h14M78 91h3M95 91h1M120 91h1M122 91h5M5 92h2M8 92h2M11 92h1M37 92h2M48 92h1M57 92h14M78 92h3M95 92h1M120 92h1M122 92h5M5 93h5M11 93h1M37 93h12M56 93h16M78 93h1M81 93h14M120 93h1M122 93h5M5 94h5M11 94h1M37 94h12M56 94h16M78 94h10M89 94h6M120 94h1M122 94h5M5 95h5M11 95h1M37 95h12M56 95h16M78 95h1M82 95h13M120 95h1M122 95h5M5 96h5M11 96h1M36 96h1M48 96h1M57 96h6M65 96h6M78 96h1M82 96h1M93 96h2M120 96h1M122 96h5M5 97h5M11 97h1M36 97h1M48 97h1M58 97h3M63 97h2M67 97h3M78 97h1M82 97h1M93 97h2M122 97h5M5 98h5M11 98h1M36 98h1M49 98h1M63 98h2M77 98h1M82 98h1M96 98h1M120 98h1M122 98h5M5 99h5M11 99h1M35 99h1M49 99h1M62 99h4M77 99h1M82 99h1M96 99h4M120 99h1M122 99h5M5 100h5M11 100h1M35 100h1M50 100h1M61 100h6M76 100h1M82 100h1M96 100h4M120 100h1M122 100h5M5 101h5M11 101h1M35 101h1M39 101h12M60 101h8M76 101h7M98 101h3M120 101h1M122 101h5M5 102h5M11 102h1M35 102h1M39 102h1M48 102h1M50 102h3M74 102h19M98 102h3M120 102h1M123 102h4M5 103h5M11 103h1M35 103h1M39 103h1M48 103h1M50 103h3M74 103h16M91 103h2M98 103h3M120 103h1M122 103h5M5 104h5M11 104h1M35 104h1M39 104h1M48 104h1M50 104h3M74 104h10M93 104h1M98 104h3M120 104h1M123 104h4M5 105h5M11 105h1M35 105h1M39 105h1M48 105h3M53 105h2M72 105h2M76 105h8M93 105h1M98 105h2M120 105h1M122 105h5M5 106h5M11 106h1M35 106h1M39 106h1M48 106h3M53 106h3M71 106h1M76 106h8M93 106h1M98 106h2M120 106h1M122 106h5M5 107h5M11 107h1M35 107h1M39 107h1M48 107h3M53 107h2M56 107h4M67 107h4M76 107h8M93 107h1M98 107h2M120 107h1M122 107h5M5 108h5M11 108h1M35 108h2M39 108h1M48 108h1M51 108h2M56 108h11M78 108h6M93 108h1M98 108h2M120 108h1M122 108h5M5 109h5M11 109h1M39 109h1M48 109h1M51 109h2M56 109h7M78 109h6M93 109h1M96 109h4M120 109h1M122 109h5M5 110h5M11 110h1M36 110h1M39 110h1M48 110h1M51 110h2M56 110h7M78 110h6M93 110h1M96 110h4M120 110h1M122 110h5M5 111h2M8 111h2M11 111h1M36 111h1M39 111h2M46 111h3M51 111h2M56 111h6M81 111h3M93 111h1M95 111h2M120 111h1M122 111h5M5 112h5M11 112h1M36 112h3M40 112h6M51 112h2M56 112h2M83 112h10M95 112h1M120 112h1M122 112h3M126 112h1M5 113h5M11 113h1M36 113h1M39 113h1M49 113h1M56 113h2M83 113h1M93 113h3M120 113h1M122 113h5M5 114h5M11 114h1M36 114h1M39 114h1M49 114h1M56 114h2M83 114h1M93 114h3M120 114h1M122 114h5M5 115h5M11 115h1M37 115h2M55 115h3M83 115h9M93 115h2M120 115h1M122 115h5M5 116h5M11 116h1M37 116h2M55 116h3M83 116h9M93 116h2M120 116h1M122 116h5M5 117h5M11 117h1M37 117h2M55 117h3M63 117h15M83 117h1M93 117h2M120 117h1M122 117h5M5 118h5M11 118h1M39 118h1M55 118h3M63 118h15M83 118h1M93 118h2M120 118h1M122 118h5M5 119h5M11 119h1M39 119h1M55 119h3M63 119h15M83 119h1M93 119h2M120 119h1M122 119h5M5 120h5M11 120h1M39 120h1M55 120h3M63 120h1M77 120h1M83 120h5M91 120h4M120 120h1M123 120h4M5 121h5M11 121h1M40 121h1M44 121h14M63 121h4M75 121h3M83 121h3M87 121h1M91 121h1M120 121h1M122 121h5M5 122h5M11 122h1M40 122h1M44 122h12M57 122h1M63 122h4M75 122h3M83 122h5M91 122h1M120 122h1M122 122h5M5 123h5M11 123h1M44 123h12M64 123h3M75 123h1M83 123h9M120 123h1M122 123h5M5 124h5M11 124h1M44 124h12M64 124h3M75 124h1M83 124h9M120 124h1M122 124h5M5 125h5M11 125h1M44 125h12M64 125h3M75 125h1M83 125h9M120 125h1M122 125h5M5 126h5M11 126h1M44 126h12M64 126h3M75 126h1M83 126h9M120 126h1M122 126h5M5 127h5M11 127h1M44 127h12M64 127h3M75 127h1M83 127h1M91 127h1M120 127h1M122 127h5M5 128h5M11 128h1M44 128h23M75 128h9M91 128h1M120 128h1M122 128h5M5 129h5M11 129h1M49 129h35M88 129h3M120 129h1M122 129h5M5 130h5M11 130h1M49 130h35M88 130h3M120 130h1M122 130h5M5 131h5M11 131h1M50 131h15M81 131h3M88 131h1M120 131h1M122 131h5M5 132h5M11 132h1M50 132h15M81 132h2M88 132h1M120 132h1M122 132h5M5 133h5M11 133h1M50 133h15M81 133h2M88 133h1M120 133h1M122 133h5M5 134h5M11 134h1M50 134h15M71 134h3M75 134h2M81 134h2M87 134h1M120 134h1M122 134h5M5 135h5M11 135h1M50 135h15M70 135h1M77 135h1M81 135h2M84 135h3M120 135h1M122 135h5M5 136h5M11 136h1M50 136h15M81 136h2M84 136h3M120 136h1M122 136h5M5 137h5M11 137h1M53 137h12M81 137h2M84 137h2M120 137h1M122 137h5M5 138h5M11 138h1M44 138h1M53 138h12M81 138h2M84 138h2M120 138h1M122 138h4M5 139h5M11 139h1M44 139h1M53 139h12M81 139h2M84 139h2M120 139h1M122 139h5M5 140h5M11 140h1M44 140h1M53 140h6M63 140h2M81 140h3M120 140h1M122 140h5M5 141h5M11 141h1M44 141h1M53 141h6M63 141h2M81 141h3M120 141h1M122 141h5M5 142h5M11 142h1M44 142h1M55 142h4M62 142h3M81 142h2M120 142h1M122 142h5M5 143h5M11 143h1M44 143h1M55 143h4M62 143h3M81 143h2M5 144h5M11 144h1M45 144h3M55 144h4M62 144h5M81 144h2M109 144h9M5 145h5M11 145h1M46 145h2M55 145h4M62 145h5M81 145h2M109 145h9M5 146h5M11 146h1M46 146h2M55 146h4M62 146h5M81 146h2M109 146h3M113 146h5M5 147h5M11 147h1M46 147h2M55 147h4M62 147h5M81 147h2M109 147h20M5 148h5M11 148h1M49 148h1M58 148h12M77 148h6M109 148h20M5 149h5M11 149h1M49 149h1M58 149h9M81 149h2M109 149h10M120 149h9M5 150h3M9 150h1M11 150h1M49 150h1M58 150h12M81 150h2M114 150h19M5 151h5M11 151h1M51 151h2M58 151h12M81 151h2M114 151h19M5 152h5M11 152h1M51 152h2M60 152h23M114 152h19M5 153h5M11 153h1M51 153h2M60 153h4M65 153h7M73 153h10M114 153h7M122 153h5M128 153h5M5 154h5M11 154h1M51 154h2M60 154h23M114 154h9M129 154h4M5 155h5M11 155h1M53 155h3M60 155h8M69 155h14M114 155h1M116 155h7M129 155h4M5 156h5M11 156h1M55 156h1M114 156h9M129 156h4M5 157h5M11 157h1M55 157h1M114 157h9M129 157h4M5 158h5M11 158h1M55 158h1M114 158h9M129 158h4M5 159h5M11 159h1M55 159h1M114 159h6M129 159h4M5 160h5M11 160h1M55 160h1M114 160h6M129 160h4M5 161h5M11 161h1M55 161h1M62 161h3M69 161h4M76 161h3M114 161h5M129 161h4M5 162h5M11 162h1M55 162h4M62 162h3M69 162h4M76 162h3M114 162h5M129 162h4M5 163h5M11 163h1M55 163h4M62 163h3M69 163h4M76 163h3M114 163h6M129 163h4M5 164h5M11 164h1M62 164h3M69 164h4M76 164h3M114 164h6M129 164h4M5 165h5M11 165h1M114 165h19M5 166h5M116 166h6M123 166h8M5 167h5M11 167h1M116 167h15M5 168h5M11 168h1M116 168h7M124 168h7M5 169h5M11 169h1M116 169h15M5 170h5M11 170h1M5 171h5M11 171h1M5 172h5M11 172h1M5 173h5M11 173h1M120 173h1M122 173h5M5 174h5M11 174h1M120 174h1M122 174h5M5 175h5M11 175h1M120 175h1M122 175h5M5 176h5M11 176h1M120 176h1M122 176h5M5 177h5M11 177h1M120 177h1M122 177h5M5 178h5M11 178h1M120 178h1M122 178h5M5 179h5M11 179h17M29 179h92M122 179h5M5 180h5M122 180h5M5 181h122M5 182h3M9 182h118M5 183h122M8 184h116M8 185h116" />
<path stroke="#000001" d="M55 3h1M41 5h1M121 5h1M85 43h1M123 66h1M71 79h1M7 92h1M120 97h1M86 121h1M44 137h1M126 138h1M8 150h1M64 153h1M72 153h1M68 155h1M119 162h1M123 168h1M8 182h1" />
<path stroke="#000100" d="M80 3h1M9 5h1M73 5h1M108 7h1M89 9h1M3 34h1M17 36h1M72 37h1M74 65h1M93 72h1M43 84h1M122 104h1M7 111h1M122 120h1M74 134h1M115 155h1M119 161h1M122 166h1M28 179h1" />
<path stroke="#010000" d="M112 4h1M35 9h1M51 9h1M12 28h1M122 51h1M77 53h1M81 56h1M78 63h1M85 64h1M120 65h1M88 94h1M122 102h1M90 103h1M36 109h1M125 112h1M56 122h1M112 146h1M119 149h1M121 153h1M127 153h1M11 166h1" />
<path stroke="#ffffff" d="M10 8h112M10 9h1M121 9h1M10 10h1M12 10h4M17 10h2M20 10h63M84 10h36M121 10h1M10 11h1M12 11h76M91 11h29M121 11h1M12 12h76M91 12h29M121 12h1M12 13h11M24 13h64M91 13h29M121 13h1M16 14h4M21 14h67M91 14h29M121 14h1M16 15h68M95 15h25M121 15h1M16 16h68M95 16h25M121 16h1M16 17h38M70 17h16M93 17h27M121 17h1M18 18h28M48 18h6M70 18h4M76 18h2M79 18h7M89 18h2M93 18h9M103 18h17M121 18h1M18 19h28M48 19h6M70 19h4M76 19h10M89 19h2M93 19h27M121 19h1M18 20h30M74 20h14M91 20h29M121 20h1M18 21h31M73 21h15M91 21h29M121 21h1M18 22h31M73 22h13M87 22h1M91 22h29M121 22h1M18 23h2M21 23h28M73 23h15M91 23h29M121 23h1M18 24h31M73 24h15M91 24h29M121 24h1M18 25h31M77 25h6M86 25h2M91 25h2M96 25h24M121 25h1M18 26h31M77 26h6M86 26h2M91 26h2M96 26h24M121 26h1M18 27h31M77 27h9M87 27h1M91 27h1M93 27h8M102 27h18M121 27h1M18 28h18M37 28h3M41 28h8M77 28h10M93 28h27M121 28h1M18 29h31M56 29h1M62 29h1M69 29h1M77 29h11M91 29h29M121 29h1M18 30h31M56 30h1M62 30h1M69 30h1M77 30h11M91 30h29M121 30h1M18 31h31M55 31h2M60 31h3M68 31h2M77 31h11M91 31h1M93 31h27M121 31h1M18 32h31M79 32h9M91 32h4M96 32h24M121 32h1M18 33h31M81 33h7M91 33h29M121 33h1M23 34h26M81 34h7M91 34h2M94 34h26M121 34h1M23 35h26M81 35h7M91 35h29M121 35h1M23 36h24M48 36h1M81 36h7M91 36h15M107 36h13M121 36h1M12 37h2M23 37h26M74 37h2M83 37h5M91 37h29M121 37h1M12 38h2M23 38h26M74 38h2M83 38h5M91 38h2M94 38h23M118 38h2M121 38h1M12 39h2M23 39h26M74 39h2M83 39h5M91 39h2M94 39h26M121 39h1M12 40h37M53 40h2M62 40h3M86 40h2M91 40h29M121 40h1M12 41h37M53 41h2M62 41h3M86 41h2M91 41h29M121 41h1M12 42h37M53 42h2M62 42h3M86 42h2M91 42h29M121 42h1M10 43h1M12 43h36M77 43h1M86 43h2M91 43h29M121 43h1M10 44h1M12 44h14M27 44h22M77 44h1M87 44h1M91 44h29M121 44h1M10 45h1M12 45h37M77 45h1M91 45h23M115 45h5M121 45h1M10 46h1M12 46h29M42 46h7M77 46h1M91 46h29M121 46h1M10 47h1M12 47h36M91 47h29M121 47h1M10 48h1M12 48h34M91 48h29M121 48h1M10 49h1M12 49h34M91 49h29M121 49h1M10 50h1M12 50h34M79 50h2M91 50h29M121 50h1M10 51h1M12 51h33M91 51h29M121 51h1M10 52h1M12 52h33M91 52h26M118 52h2M121 52h1M10 53h1M12 53h32M82 53h1M91 53h29M121 53h1M10 54h1M12 54h31M82 54h1M91 54h18M110 54h10M121 54h1M10 55h1M12 55h20M33 55h10M82 55h1M91 55h29M121 55h1M10 56h1M12 56h13M26 56h1M28 56h15M82 56h1M91 56h29M121 56h1M10 57h1M12 57h31M82 57h1M91 57h22M114 57h6M121 57h1M10 58h1M12 58h4M17 58h24M91 58h29M121 58h1M10 59h1M12 59h29M91 59h29M121 59h1M10 60h1M12 60h28M91 60h29M121 60h1M10 61h1M12 61h28M91 61h24M116 61h4M121 61h1M10 62h1M12 62h28M50 62h6M69 62h7M91 62h29M121 62h1M10 63h1M12 63h28M50 63h6M69 63h7M91 63h29M121 63h1M10 64h1M12 64h28M50 64h1M52 64h4M69 64h7M91 64h29M121 64h1M10 65h1M12 65h28M92 65h28M121 65h1M10 66h1M12 66h27M92 66h28M121 66h1M10 67h1M12 67h25M93 67h27M121 67h1M10 68h1M12 68h25M93 68h27M121 68h1M10 69h1M12 69h18M31 69h6M93 69h27M121 69h1M10 70h1M12 70h25M95 70h25M121 70h1M10 71h1M12 71h10M23 71h14M95 71h25M121 71h1M10 72h1M12 72h25M95 72h25M121 72h1M10 73h1M12 73h6M19 73h17M39 73h1M83 73h4M96 73h24M121 73h1M10 74h1M12 74h24M39 74h1M83 74h4M96 74h24M121 74h1M10 75h1M12 75h24M39 75h1M83 75h4M96 75h24M121 75h1M10 76h1M12 76h24M37 76h2M81 76h1M96 76h24M121 76h1M10 77h1M12 77h23M96 77h24M121 77h1M10 78h1M12 78h20M60 78h7M96 78h8M105 78h15M121 78h1M10 79h1M12 79h20M56 79h15M96 79h13M110 79h10M121 79h1M10 80h1M12 80h20M55 80h17M97 80h23M121 80h1M10 81h1M12 81h20M53 81h21M97 81h23M121 81h1M10 82h1M12 82h20M53 82h21M97 82h23M121 82h1M10 83h1M12 83h19M34 83h1M53 83h21M78 83h1M97 83h23M121 83h1M10 84h1M12 84h19M34 84h1M51 84h12M65 84h11M77 84h1M97 84h23M121 84h1M10 85h1M12 85h19M34 85h1M51 85h11M66 85h10M77 85h1M97 85h23M121 85h1M10 86h1M12 86h19M34 86h3M50 86h11M67 86h10M97 86h23M121 86h1M12 87h20M36 87h1M50 87h3M54 87h6M68 87h9M78 87h3M97 87h23M121 87h1M10 88h1M12 88h20M36 88h1M49 88h10M70 88h8M79 88h2M97 88h23M121 88h1M10 89h1M12 89h23M49 89h10M69 89h9M79 89h2M96 89h24M121 89h1M10 90h1M12 90h25M49 90h9M70 90h8M81 90h1M96 90h23M121 90h1M10 91h1M12 91h25M49 91h8M71 91h7M81 91h1M96 91h24M121 91h1M10 92h1M12 92h25M49 92h8M71 92h7M81 92h1M96 92h24M121 92h1M10 93h1M12 93h25M49 93h7M72 93h6M95 93h25M10 94h1M12 94h25M49 94h7M72 94h6M95 94h15M111 94h9M121 94h1M10 95h1M12 95h6M19 95h18M49 95h7M72 95h6M95 95h25M121 95h1M10 96h1M12 96h24M49 96h8M63 96h2M71 96h7M95 96h25M121 96h1M10 97h1M12 97h24M49 97h9M61 97h2M65 97h2M70 97h8M95 97h25M121 97h1M10 98h1M12 98h24M50 98h13M65 98h12M97 98h23M121 98h1M10 99h1M12 99h23M50 99h12M66 99h1M68 99h9M95 99h1M100 99h20M121 99h1M10 100h1M12 100h23M51 100h10M67 100h9M95 100h1M100 100h20M121 100h1M10 101h1M12 101h23M51 101h9M68 101h8M95 101h3M101 101h19M121 101h1M10 102h1M12 102h23M53 102h21M97 102h1M101 102h19M121 102h1M10 103h1M12 103h7M20 103h15M53 103h21M97 103h1M101 103h19M121 103h1M10 104h1M12 104h23M53 104h3M57 104h17M97 104h1M101 104h19M121 104h1M10 105h1M12 105h8M21 105h14M55 105h17M100 105h20M121 105h1M10 106h1M12 106h23M56 106h15M100 106h7M108 106h12M121 106h1M10 107h1M12 107h23M60 107h7M100 107h7M108 107h12M121 107h1M10 108h1M12 108h23M100 108h20M121 108h1M10 109h1M12 109h24M100 109h20M121 109h1M10 110h1M12 110h24M100 110h20M121 110h1M10 111h1M12 111h24M97 111h23M121 111h1M10 112h1M12 112h24M50 112h1M93 112h2M96 112h9M106 112h14M121 112h1M10 113h1M12 113h24M45 113h4M92 113h1M96 113h24M121 113h1M10 114h1M12 114h24M45 114h4M92 114h1M96 114h24M121 114h1M10 115h1M12 115h25M95 115h25M121 115h1M10 116h1M12 116h16M29 116h3M33 116h4M95 116h25M121 116h1M10 117h1M12 117h25M95 117h25M121 117h1M10 118h1M12 118h25M38 118h1M95 118h15M111 118h9M121 118h1M10 119h1M12 119h27M95 119h25M121 119h1M10 120h1M12 120h26M95 120h25M121 120h1M10 121h1M12 121h28M92 121h13M106 121h14M121 121h1M10 122h1M12 122h15M28 122h12M92 122h28M121 122h1M10 123h1M12 123h29M56 123h7M76 123h6M92 123h5M98 123h22M121 123h1M10 124h1M12 124h29M56 124h7M76 124h6M92 124h28M121 124h1M10 125h1M12 125h29M56 125h7M76 125h6M92 125h28M121 125h1M10 126h1M12 126h29M56 126h7M76 126h6M92 126h28M121 126h1M10 127h1M12 127h29M92 127h2M95 127h25M121 127h1M10 128h1M12 128h29M92 128h28M121 128h1M10 129h1M12 129h29M91 129h29M121 129h1M10 130h1M12 130h29M91 130h29M121 130h1M10 131h1M12 131h9M22 131h19M49 131h1M89 131h31M121 131h1M10 132h1M12 132h29M49 132h1M89 132h31M121 132h1M10 133h1M12 133h29M49 133h1M89 133h7M97 133h23M121 133h1M10 134h1M12 134h29M49 134h1M88 134h10M99 134h21M121 134h1M10 135h1M12 135h29M87 135h33M121 135h1M10 136h1M12 136h29M87 136h33M121 136h1M10 137h1M12 137h29M51 137h2M86 137h34M121 137h1M10 138h1M12 138h29M86 138h34M121 138h1M10 139h1M12 139h29M86 139h34M121 139h1M10 140h1M12 140h29M84 140h36M121 140h1M10 141h1M12 141h29M84 141h13M98 141h22M121 141h1M10 142h1M12 142h29M54 142h1M83 142h37M121 142h1M10 143h1M12 143h29M54 143h1M83 143h37M10 144h1M12 144h20M33 144h8M44 144h1M54 144h1M83 144h26M118 144h2M10 145h1M12 145h29M44 145h1M54 145h1M83 145h11M95 145h14M118 145h2M12 146h29M44 146h2M67 146h3M77 146h2M83 146h26M118 146h2M10 147h1M12 147h29M44 147h2M67 147h3M77 147h2M83 147h26M10 148h1M12 148h6M19 148h22M44 148h5M56 148h2M83 148h26M10 149h1M12 149h29M44 149h5M56 149h2M83 149h26M10 150h1M12 150h29M44 150h5M56 150h2M83 150h3M87 150h19M107 150h7M10 151h1M12 151h29M44 151h4M49 151h2M83 151h31M10 152h1M12 152h29M44 152h7M83 152h31M10 153h1M12 153h29M44 153h7M83 153h31M10 154h1M12 154h29M44 154h7M83 154h25M109 154h5M10 155h1M12 155h29M44 155h9M83 155h31M10 156h1M12 156h29M44 156h11M62 156h2M69 156h3M75 156h2M83 156h31M10 157h1M12 157h29M44 157h11M62 157h2M69 157h3M75 157h1M83 157h31M10 158h1M12 158h6M19 158h22M44 158h11M62 158h1M69 158h1M75 158h1M83 158h31M10 159h1M12 159h29M44 159h11M62 159h1M69 159h1M75 159h1M83 159h31M10 160h1M12 160h28M45 160h10M83 160h20M104 160h10M10 161h1M12 161h27M40 161h1M44 161h1M46 161h9M83 161h30M10 162h1M12 162h24M39 162h2M44 162h2M49 162h6M83 162h11M95 162h19M10 163h1M12 163h24M39 163h2M44 163h2M49 163h6M83 163h31M10 164h1M12 164h29M44 164h15M83 164h20M104 164h10M10 165h1M12 165h29M44 165h15M83 165h31M10 166h1M12 166h26M39 166h2M44 166h15M83 166h33M10 167h1M12 167h29M44 167h14M84 167h32M10 168h1M12 168h27M41 168h2M46 168h10M58 168h4M78 168h6M86 168h30M10 169h1M12 169h8M21 169h18M41 169h2M46 169h10M58 169h4M78 169h6M86 169h30M10 170h1M12 170h27M46 170h16M78 170h42M10 171h1M12 171h25M48 171h9M58 171h62M10 172h1M12 172h25M48 172h72M10 173h1M12 173h18M31 173h10M44 173h64M109 173h11M121 173h1M10 174h1M12 174h29M44 174h76M121 174h1M10 175h1M12 175h29M44 175h76M121 175h1M10 176h1M12 176h9M22 176h12M35 176h6M44 176h76M121 176h1M10 177h1M12 177h4M17 177h24M44 177h60M105 177h15M121 177h1M10 178h1M13 178h107M121 178h1M10 179h1M121 179h1M10 180h111" />
<path stroke="#fffffe" d="M16 10h1M83 10h1M20 14h1M101 27h1M92 28h1M95 32h1M47 36h1M106 36h1M26 44h1M109 54h1M32 55h1M39 66h1M18 73h1M69 88h1M110 94h1M18 95h1M67 99h1M19 103h1M56 104h1M107 107h1M110 118h1M97 123h1M32 144h1M94 145h1M86 150h1M18 158h1M30 173h1M121 180h1" />
<path stroke="#feffff" d="M19 10h1M78 18h1M102 18h1M20 23h1M92 31h1M117 38h1M93 39h1M48 43h1M114 45h1M117 52h1M16 58h1M22 71h1M10 87h1M20 105h1M107 106h1M105 112h1M28 116h1M32 116h1M37 118h1M105 121h1M94 127h1M21 131h1M98 134h1M97 141h1M45 145h1M10 146h1M18 148h1M106 150h1M48 151h1M108 154h1M76 157h1M103 160h1M57 171h1M108 173h1M104 177h1M12 178h1" />
<path stroke="#ffc051" d="M88 11h1M88 12h1M88 13h1M88 14h1M86 15h5M92 15h1M86 16h5M92 16h1M48 20h1M73 20h1M49 21h1M72 21h1M49 22h1M72 22h1M49 23h1M72 23h1M49 24h1M72 24h1M49 25h1M72 25h1M83 25h1M95 25h1M49 26h1M72 26h1M83 26h1M95 26h1M49 27h1M72 27h1M49 28h1M72 28h1M87 28h2M49 29h4M57 29h1M63 29h1M70 29h3M88 29h1M49 30h2M52 30h1M57 30h1M63 30h1M70 30h3M88 30h1M49 31h6M57 31h3M63 31h5M70 31h3M88 31h3M88 34h3M88 35h3M88 36h1M88 37h1M88 38h1M88 39h1M88 40h1M88 41h1M88 42h1M88 43h1M88 44h1M88 45h1M88 46h1M88 47h1M88 48h1M88 49h1M88 50h1M88 51h1M88 52h1M88 53h1M88 54h1M88 55h1M88 56h1M88 57h1M88 58h1M88 59h1M88 60h1M88 61h1M88 62h1M88 63h1M57 64h2M88 64h1M57 65h2M88 65h1M57 66h2M88 66h1M55 67h13M88 67h1M88 68h1M88 69h1M88 70h1M59 71h4M88 71h1M59 72h4M88 72h1M57 73h2M88 73h1M57 74h2M88 74h1M57 75h2M88 75h1M58 76h1M58 77h2M72 106h1M72 107h1M72 108h1M72 109h1M72 110h1M72 111h2M73 112h1M43 113h1M73 113h2M43 114h1M73 114h2M43 115h1M69 115h4M43 116h1M69 116h4M43 117h1M43 118h1M43 119h1M43 120h1M64 120h13M43 121h1M73 121h2M43 122h1M73 122h2M43 123h1M73 123h2M43 124h1M73 124h2M43 125h1M43 126h1M43 127h1M43 128h1M43 129h1M43 130h1M43 131h1M43 132h1M43 133h1M43 134h1M43 135h1M43 136h1M43 137h1M43 138h1M43 139h1M43 140h1M43 141h1M43 142h1M43 143h1M43 144h1M43 145h1M43 146h1M43 147h1M43 148h1M43 149h1M43 150h1M43 151h1M41 152h3M41 153h3M41 156h3M59 156h3M64 156h5M72 156h3M77 156h6M41 157h3M59 157h3M64 157h3M68 157h1M72 157h3M77 157h6M43 158h1M59 158h3M68 158h1M74 158h1M79 158h4M43 159h1M59 159h3M68 159h1M74 159h1M79 159h4M43 160h2M59 160h1M82 160h1M59 161h1M82 161h1M36 162h1M48 162h1M59 162h1M82 162h1M36 163h1M48 163h1M59 163h1M82 163h1M59 164h1M82 164h1M59 165h1M82 165h1M59 166h1M82 166h1M58 167h1M83 167h1M39 171h1M41 171h5M39 172h1M41 172h5M43 173h1M43 174h1M43 175h1M43 176h1M43 177h1" />
<path stroke="#ffa300" d="M89 11h2M89 12h2M89 13h2M89 14h2M84 15h2M91 15h1M93 15h2M84 16h2M91 16h1M93 16h2M46 18h2M74 18h2M46 19h2M74 19h2M49 20h4M56 20h3M63 20h4M70 20h3M50 21h3M56 21h3M63 21h4M70 21h2M50 22h3M56 22h3M63 22h4M70 22h2M50 23h3M56 23h3M63 23h4M70 23h2M50 24h3M56 24h3M63 24h4M70 24h2M50 25h3M56 25h3M63 25h4M70 25h2M84 25h2M93 25h2M50 26h3M56 26h3M63 26h4M70 26h2M84 26h2M93 26h2M50 27h3M56 27h3M63 27h4M70 27h2M86 27h1M88 27h3M92 27h1M50 28h22M89 28h3M53 29h2M58 29h2M64 29h4M89 29h2M53 30h2M58 30h2M64 30h4M89 30h2M89 36h2M89 37h2M89 38h2M89 39h2M89 40h2M89 41h2M89 42h2M89 43h2M89 44h2M89 45h2M89 46h2M89 47h2M89 48h2M89 49h2M89 50h2M89 51h2M89 52h2M89 53h2M89 54h2M89 55h2M89 56h2M89 57h2M89 58h2M89 59h2M89 60h2M89 61h2M89 62h2M89 63h2M59 64h6M89 64h2M59 65h6M89 65h2M59 66h6M90 66h1M89 67h2M89 68h2M89 69h2M89 70h2M89 71h2M89 72h2M59 73h6M89 73h2M59 74h6M89 74h2M59 75h6M89 75h2M59 76h5M71 107h1M69 108h3M69 109h3M69 110h3M68 111h4M68 112h5M41 113h2M67 113h6M41 114h2M67 114h6M41 115h2M41 116h2M41 117h2M41 118h2M41 119h2M41 120h2M41 121h2M67 121h6M41 122h2M67 122h6M41 123h2M67 123h6M41 124h2M67 124h3M71 124h2M41 125h2M41 126h2M41 127h1M41 128h2M41 129h2M41 130h2M41 131h2M41 132h2M41 133h2M41 134h2M41 135h2M41 136h2M41 137h2M41 138h2M41 139h2M41 140h2M41 141h2M41 142h2M41 143h2M41 144h2M41 145h2M41 146h2M41 147h2M41 148h2M41 149h2M41 150h2M41 151h2M41 158h2M64 158h4M72 158h2M77 158h2M41 159h2M64 159h4M72 159h2M77 159h2M40 160h3M61 160h21M39 161h1M41 161h3M45 161h1M60 161h2M65 161h4M73 161h3M79 161h3M37 162h2M46 162h2M60 162h2M65 162h4M73 162h3M79 162h3M37 163h2M46 163h2M60 163h2M65 163h4M73 163h3M79 163h3M60 164h2M65 164h4M73 164h3M79 164h3M60 165h2M65 165h4M73 165h3M79 165h3M60 166h2M65 166h4M73 166h3M79 166h3M59 167h3M65 167h4M73 167h3M79 167h4M56 168h2M84 168h2M56 169h2M84 169h2M37 171h2M40 171h1M46 171h2M37 172h2M40 172h1M46 172h2M41 173h2M41 174h2M41 175h2M41 176h2M41 177h2" />
<path stroke="#fffeff" d="M23 13h1M86 22h1M36 28h1M40 28h1M93 34h1M93 38h1M41 46h1M25 56h1M27 56h1M113 57h1M115 61h1M51 64h1M30 69h1M104 78h1M109 79h1M53 87h1M119 90h1M121 93h1M38 120h1M27 122h1M96 133h1M113 161h1M94 162h1M103 164h1M38 166h1M20 169h1M21 176h1M34 176h1M16 177h1" />
<path stroke="#793a24" d="M54 17h2M86 17h3M54 18h3M63 18h4M86 18h2M54 19h3M63 19h4M86 19h2M53 20h3M59 20h4M67 20h1M88 20h1M53 21h3M59 21h4M67 21h3M88 21h1M53 22h3M59 22h4M67 22h3M88 22h1M88 23h2M88 24h2M88 25h3M88 26h3M73 27h3M73 28h3M73 29h3M73 30h3M73 31h3M72 32h4M88 32h2M72 33h5M88 33h2M72 34h5M72 35h5M76 36h2M76 37h2M76 38h1M76 39h2M78 40h1M78 41h1M78 42h1M78 43h1M78 44h1M78 45h1M78 46h1M79 47h3M48 48h1M81 48h1M48 49h1M81 49h1M48 50h1M81 50h3M48 51h1M83 51h1M48 52h1M83 52h1M45 53h4M83 53h1M44 54h5M84 54h2M44 55h5M83 55h3M44 56h1M83 56h3M44 57h1M83 57h3M44 58h1M83 58h5M44 59h1M83 59h5M41 60h4M41 61h4M41 65h3M49 65h5M69 65h5M41 66h3M49 66h5M69 66h5M41 67h2M49 67h2M69 67h1M77 67h7M85 67h3M91 67h1M39 68h4M49 68h2M69 68h1M77 68h2M87 68h1M39 69h4M49 69h2M69 69h1M77 69h2M87 69h1M39 70h1M49 70h2M69 70h1M77 70h2M87 70h1M39 71h1M49 71h2M63 71h2M77 71h2M87 71h1M39 72h1M49 72h2M63 72h2M77 72h2M86 72h2M49 73h2M65 73h2M76 73h2M49 74h2M65 74h2M76 74h2M49 75h2M65 75h2M76 75h2M49 76h2M64 76h1M76 76h1M51 77h3M76 77h1M54 78h2M76 78h1M54 79h1M76 79h1M76 80h2M76 81h1M76 82h1M79 93h2M79 95h3M80 96h2M79 97h3M78 98h4M78 99h4M77 100h5M75 105h1M75 106h1M55 107h1M75 107h1M54 108h2M68 108h1M76 108h2M55 109h1M68 109h1M76 109h2M55 110h1M68 110h1M76 110h2M55 111h1M67 111h1M77 111h4M55 112h1M67 112h1M81 112h2M54 113h2M65 113h2M81 113h2M54 114h2M65 114h2M81 114h2M44 115h2M53 115h2M67 115h2M81 115h2M92 115h1M44 116h2M53 116h2M67 116h2M81 116h2M92 116h1M44 117h1M53 117h2M62 117h1M81 117h2M92 117h1M44 118h1M53 118h2M62 118h1M81 118h2M89 118h4M44 119h1M53 119h2M62 119h1M81 119h2M89 119h4M40 120h1M44 120h11M62 120h1M81 120h2M89 120h2M58 121h5M78 121h5M88 121h3M58 122h5M78 122h3M82 122h1M88 122h3M87 127h4M87 128h4M44 129h5M87 129h1M44 130h5M87 130h1M46 131h3M87 131h1M46 132h3M83 132h5M46 133h3M83 133h5M48 134h1M83 134h4M48 135h1M83 135h1M48 136h1M83 136h1M48 137h3M83 137h1M50 138h1M83 138h1M50 139h1M83 139h1M50 140h3M50 141h3M53 142h1M53 143h1M53 144h1M53 145h1M53 146h1M53 147h1M54 148h2M54 149h2M54 150h2M54 151h2M55 152h5M55 153h5M42 154h2M55 154h5M42 155h2M56 155h4M56 156h3M57 157h2M57 158h2M56 159h3M56 160h3M56 161h3M41 162h3M41 163h3M42 164h2M43 165h1M62 165h3M69 165h4M76 165h3M43 166h1M62 166h3M69 166h4M76 166h3M43 167h1M64 167h1M69 167h4M76 167h3M44 168h2M65 168h4M75 168h1M77 168h1M44 169h2M65 169h4M75 169h3M43 170h3M76 170h2" />
<path stroke="#a75032" d="M56 17h14M90 17h3M57 18h6M67 18h3M91 18h2M57 19h6M67 19h3M91 19h2M68 20h2M89 20h2M89 21h2M89 22h2M90 23h1M90 24h1M90 32h1M77 33h2M90 33h1M77 34h2M77 35h2M78 36h1M78 37h4M78 38h4M78 39h2M81 39h1M79 40h5M79 41h5M79 42h5M79 43h5M79 44h5M79 45h8M79 46h3M83 46h4M82 47h5M82 48h5M82 49h5M84 50h3M84 51h4M84 52h4M84 53h4M86 54h2M86 55h2M45 56h3M86 56h2M45 57h3M86 57h2M45 58h3M45 59h3M45 60h3M57 60h8M45 61h3M57 61h8M57 62h8M57 63h4M62 63h3M43 67h1M51 67h3M70 67h4M43 68h5M51 68h3M70 68h4M79 68h8M91 68h1M43 69h5M51 69h3M70 69h4M79 69h8M91 69h1M40 70h8M51 70h3M70 70h4M79 70h8M91 70h2M51 71h8M65 71h9M79 71h4M84 71h2M91 71h2M51 72h8M65 72h9M79 72h7M91 72h2M51 73h6M67 73h7M78 73h4M93 73h2M51 74h6M67 74h7M78 74h4M93 74h2M51 75h6M67 75h7M78 75h4M93 75h2M51 76h7M65 76h9M77 76h2M55 77h3M67 77h3M77 77h2M77 78h2M77 79h2M78 80h1M74 105h1M73 106h2M74 107h1M53 108h1M67 108h1M73 108h3M53 109h2M63 109h5M73 109h3M53 110h2M63 110h1M65 110h3M73 110h3M53 111h1M62 111h5M74 111h3M53 112h2M58 112h9M74 112h5M80 112h1M37 113h2M50 113h4M58 113h5M64 113h1M75 113h6M37 114h2M50 114h4M58 114h7M75 114h6M39 115h2M46 115h7M58 115h9M73 115h6M80 115h1M39 116h2M46 116h7M58 116h2M61 116h6M73 116h8M39 117h2M45 117h8M58 117h4M78 117h3M84 117h8M40 118h1M45 118h8M58 118h4M78 118h3M84 118h5M40 119h1M45 119h8M58 119h4M78 119h3M84 119h5M58 120h4M78 120h3M88 120h1M67 125h8M67 126h8M67 127h8M84 127h3M67 128h8M84 128h3M84 129h3M84 130h3M44 131h2M84 131h3M44 132h2M44 133h2M44 134h4M44 135h4M44 136h4M45 137h2M45 138h3M49 138h1M45 139h5M45 140h5M45 141h5M46 142h7M45 143h8M48 144h5M48 145h5M48 146h5M48 147h5M50 148h4M50 149h4M50 150h4M53 151h1M53 152h2M53 153h2M41 154h1M53 154h2M41 155h1M41 164h1M41 165h2M41 166h2M41 167h2M62 167h2M39 168h2M62 168h3M69 168h6M39 169h2M62 169h3M69 169h6M39 170h3M62 170h8M71 170h5" />
<path stroke="#c1d3dc" d="M89 17h1M88 18h1M88 19h1M55 29h1M60 29h2M68 29h1M55 30h1M60 30h2M68 30h1M74 36h2M77 40h1M77 41h1M77 42h1M79 48h2M79 49h2M82 51h1M82 52h1M49 61h7M68 61h8M49 62h1M68 62h1M49 63h1M68 63h1M49 64h1M68 64h1M63 123h1M82 123h1M63 124h1M82 124h1M63 125h1M82 125h1M63 126h1M82 126h1M56 127h8M76 127h7M49 135h1M49 136h1M51 138h2M51 139h2M54 146h1M54 147h1M56 151h2M63 158h1M71 158h1M76 158h1M63 159h1M70 159h2M76 159h1M43 168h1M43 169h1M42 170h1" />
<path stroke="#fec051" d="M51 30h1" />
<path stroke="#ee8b79" d="M52 36h2M60 36h2M52 37h1M60 37h2M60 38h2M60 39h2M51 40h2M70 40h3M51 41h2M70 41h3M51 42h2M70 42h3M51 43h1M70 43h1M51 44h1M70 44h1M51 45h1M70 45h1M51 46h1M70 46h2M51 47h1M69 47h3M51 48h1M51 49h1M51 50h1M51 51h1M51 52h1M51 53h1M54 53h1M62 53h1M51 54h1M51 55h2M51 56h11M63 56h4M51 57h16M39 77h6M86 77h5M39 78h5M84 78h3M39 79h5M84 79h3M39 80h4M84 80h3M39 81h4M84 81h3M39 82h4M84 82h3M39 83h9M84 83h5M82 84h1M84 84h8M82 85h1M84 85h8M40 102h8M49 102h1M40 103h8M49 103h1M43 104h5M84 104h9M45 105h3M89 105h4M45 106h3M89 106h2M92 106h1M45 107h3M89 107h4M45 108h3M89 108h4M45 109h3M88 109h5M45 110h3M88 110h5M41 111h5M87 111h6M65 131h16M79 132h2M80 133h1M70 134h1M77 134h1M80 134h1M80 135h1M80 136h1M80 137h1M80 138h1M80 139h1M60 140h3M80 140h1M60 141h3M80 141h1M60 142h2M80 142h1M61 143h1M80 143h1M61 144h1M80 144h1M61 145h1M80 145h1M59 146h3M79 146h2M59 147h3M79 147h2M70 148h2M70 149h2M70 150h2M79 150h2M70 151h2M73 151h7" />
<path stroke="#fecca9" d="M53 37h1M55 38h5M55 39h5M55 40h7M55 41h7M55 42h7M52 43h13M71 43h2M52 44h13M71 44h2M52 45h15M71 45h2M52 46h15M72 46h1M52 47h15M72 47h1M52 48h9M62 48h5M52 49h15M52 50h15M52 51h8M61 51h6M52 52h2M55 52h7M63 52h4M52 53h2M63 53h4M52 54h3M62 54h5M53 55h14M45 77h3M44 78h4M87 78h5M44 79h4M87 79h5M43 80h5M87 80h3M91 80h1M43 81h2M46 81h2M87 81h5M43 82h5M87 82h5M82 83h1M89 83h3M40 104h3M49 104h1M40 105h5M84 105h5M40 106h5M84 106h5M40 107h5M84 107h5M40 108h5M84 108h5M40 109h5M84 109h4M40 110h5M84 110h4M84 111h3M65 132h14M65 133h6M77 133h3M65 134h5M78 134h2M65 135h5M71 135h6M78 135h2M65 136h15M65 137h15M65 138h15M65 139h15M59 140h1M65 140h15M59 141h1M65 141h15M59 142h1M65 142h15M59 143h2M65 143h15M59 144h2M67 144h13M59 145h2M67 145h9M77 145h3M70 146h7M70 147h7M72 148h5M72 149h5M72 150h7" />
<path stroke="#d95763" d="M52 38h3M62 38h3M55 54h7M71 133h6M67 149h3M77 149h4" />
<path stroke="#783a24" d="M77 38h1M84 67h1M86 71h1M54 77h1M79 96h1" />
<path stroke="#a75132" d="M80 39h1M83 71h1M64 110h1M60 116h1M48 138h1M45 142h1" />
<path stroke="#a65032" d="M82 46h1M61 63h1M73 107h1M79 112h1M70 170h1" />
<path stroke="#fecda9" d="M61 48h1" />
<path stroke="#fecca8" d="M60 51h1M90 80h1M76 145h1" />
<path stroke="#793a25" d="M83 54h1M81 122h1M56 157h1M56 158h1" />
<path stroke="#ee8a79" d="M62 56h1M80 151h1" />
<path stroke="#ffa301" d="M89 66h1M70 124h1M60 160h1" />
<path stroke="#009dff" d="M40 73h8M87 73h1M40 74h8M87 74h1M40 75h3M44 75h4M87 75h1M82 76h4M37 77h1M81 77h2M36 78h2M81 78h2M36 79h2M81 79h2M34 80h4M81 80h2M34 81h4M79 81h2M34 82h4M79 82h2M36 83h2M79 83h2M35 84h4M78 84h3M35 85h4M78 85h3M37 86h2M78 86h3M37 87h1M81 87h2M37 88h2M81 88h2M36 89h4M81 89h2M39 90h9M82 90h10M93 90h2M39 91h9M82 91h10M93 91h2M39 92h9M82 92h10M93 92h2M37 96h2M40 96h8M83 96h5M89 96h4M37 97h2M40 97h8M83 97h7M91 97h2M92 98h4M93 99h2M49 100h1M93 100h2M93 101h2M93 102h4M93 103h4M94 104h3M51 105h2M94 105h4M51 106h2M94 106h4M51 107h2M94 107h4M49 108h2M94 108h4M49 109h2M94 109h2M49 110h2M94 110h2M49 111h2M94 111h1M46 112h4M44 113h1M84 113h8M44 114h1M84 114h8" />
<path stroke="#29adff" d="M91 73h1M91 74h1M91 75h1M92 76h1M93 77h2M93 78h2M93 79h2M93 80h2M93 81h3M93 82h3M93 83h3M93 84h3M93 85h3M39 86h10M93 86h3M39 87h10M83 87h13M39 88h3M43 88h5M83 88h13M40 89h8M83 89h12M92 90h1M92 91h1M92 92h1M39 96h1M39 97h1M37 98h12M83 98h9M36 99h13M83 99h10M36 100h13M83 100h10M36 101h3M83 101h10M36 102h3M36 103h3M36 104h3M36 105h3M36 106h3M36 107h3M37 108h2M37 109h2M37 110h2M37 111h2M39 112h1M40 113h1M40 114h1" />
<path stroke="#009cff" d="M43 75h1" />
<path stroke="#ffcca9" d="M45 81h1" />
<path stroke="#019dff" d="M35 83h1M88 96h1" />
<path stroke="#009dfe" d="M38 87h1M90 97h1" />
<path stroke="#29acff" d="M42 88h1" />
<path stroke="#ef8b79" d="M91 106h1" />
<path stroke="#a65132" d="M54 111h1" />
<path stroke="#a75033" d="M63 113h1M79 115h1M47 137h1" />
<path stroke="#fea300" d="M42 127h1" />
<path stroke="#ee8b78" d="M72 151h1" />
<path stroke="#ffc151" d="M67 157h1" />
<path stroke="#c1d3dd" d="M70 158h1" />
<path stroke="#793b24" d="M76 168h1" />
</svg>