<svg xmlns="http://www.w3.org/2000/svg" viewBox="0 -0.5 133 187" shape-rendering="crispEdges">
<metadata>Made with Pixels to Svg https://codepen.io/shshaw/pen/XbxvNj</metadata>
<path stroke="#000000" d="M7 2h10M18 2h5M24 2h101M7 3h52M60 3h21M82 3h43M5 4h23M29 4h6M36 4h11M48 4h79M5 5h122M5 6h33M39 6h48M88 6h15M104 6h14M119 6h8M5 7h26M32 7h72M105 7h22M5 8h5M122 8h5M5 9h5M11 9h110M122 9h5M5 10h5M11 10h1M120 10h1M122 10h5M5 11h5M11 11h1M120 11h1M122 11h5M122 12h5M120 13h1M122 13h5M120 14h1M122 14h5M120 15h1M122 15h5M120 16h1M122 16h5M120 17h1M122 17h5M120 18h1M122 18h5M120 19h1M122 19h5M120 20h1M122 20h5M120 21h1M122 21h5M120 22h1M122 22h5M53 23h3M59 23h4M67 23h3M120 23h1M122 23h5M53 24h3M59 24h4M67 24h3M120 24h1M122 24h5M53 25h3M59 25h4M67 25h3M73 25h4M120 25h1M122 25h5M53 26h3M59 26h4M67 26h3M73 26h4M120 26h1M122 26h5M53 27h3M59 27h4M67 27h3M76 27h1M120 27h1M122 27h5M76 28h1M120 28h1M123 28h4M76 29h1M120 29h1M122 29h5M76 30h1M120 30h1M122 30h5M76 31h1M120 31h1M122 31h5M49 32h23M76 32h3M120 32h1M122 32h5M49 33h23M79 33h2M120 33h1M122 33h5M49 34h19M69 34h3M79 34h2M120 34h1M122 34h5M49 35h23M79 35h2M120 35h1M122 35h5M49 36h3M54 36h6M62 36h12M79 36h2M120 36h1M122 36h2M125 36h2M49 37h3M54 37h6M62 37h12M82 37h1M120 37h1M122 37h5M49 38h3M65 38h9M82 38h1M120 38h1M122 38h5M49 39h6M62 39h12M82 39h1M120 39h1M122 39h5M49 40h2M65 40h5M73 40h4M84 40h2M120 40h1M122 40h5M49 41h2M65 41h5M73 41h4M84 41h2M120 41h1M122 41h5M49 42h2M65 42h5M73 42h4M84 42h2M120 42h1M122 42h5M5 43h5M11 43h1M49 43h2M65 43h5M73 43h4M84 43h2M120 43h1M122 43h5M5 44h5M11 44h1M49 44h2M65 44h5M73 44h1M75 44h2M84 44h3M120 44h1M122 44h5M5 45h5M11 45h1M50 45h1M67 45h3M73 45h4M87 45h1M120 45h1M122 45h5M5 46h5M11 46h1M49 46h2M67 46h3M73 46h4M87 46h1M120 46h1M122 46h5M5 47h5M11 47h1M48 47h3M67 47h2M73 47h6M87 47h1M120 47h1M122 47h5M5 48h5M11 48h1M46 48h2M49 48h2M67 48h12M87 48h1M120 48h1M122 48h5M5 49h5M11 49h1M46 49h2M49 49h2M67 49h12M87 49h1M120 49h1M122 49h5M5 50h5M11 50h1M46 50h2M49 50h2M67 50h12M87 50h1M120 50h1M122 50h5M5 51h5M11 51h1M45 51h3M49 51h2M67 51h15M120 51h1M122 51h5M5 52h5M11 52h1M45 52h3M49 52h2M54 52h1M62 52h1M67 52h15M120 52h1M122 52h1M124 52h3M5 53h5M11 53h1M44 53h1M49 53h2M55 53h7M67 53h15M120 53h1M122 53h5M5 54h5M11 54h1M43 54h1M49 54h2M67 54h5M73 54h9M120 54h1M122 54h5M5 55h5M11 55h1M43 55h1M49 55h2M67 55h15M120 55h1M122 55h5M5 56h5M11 56h1M43 56h1M48 56h3M67 56h15M120 56h1M122 56h5M5 57h4M11 57h1M43 57h1M48 57h3M67 57h15M120 57h1M122 57h5M5 58h5M11 58h1M41 58h3M48 58h35M120 58h1M122 58h5M5 59h5M11 59h1M41 59h3M48 59h35M120 59h1M122 59h5M5 60h5M11 60h1M40 60h1M48 60h9M65 60h23M120 60h1M122 60h5M5 61h5M11 61h1M40 61h1M48 61h1M56 61h1M65 61h3M76 61h12M120 61h1M122 61h5M5 62h5M11 62h1M40 62h9M56 62h1M65 62h3M76 62h12M120 62h1M122 62h5M5 63h5M11 63h1M40 63h9M56 63h1M65 63h3M76 63h10M87 63h1M120 63h1M122 63h5M5 64h5M11 64h1M40 64h9M56 64h1M65 64h3M76 64h12M120 64h1M122 64h5M5 65h5M11 65h1M40 65h1M44 65h5M54 65h3M65 65h4M74 65h14M91 65h1M120 65h1M122 65h5M5 66h1M7 66h3M11 66h1M40 66h1M44 66h5M54 66h3M65 66h4M74 66h14M91 66h1M120 66h1M122 66h5M5 67h5M11 67h1M37 67h4M44 67h5M54 67h1M68 67h1M74 67h3M92 67h1M120 67h1M122 67h1M124 67h3M5 68h5M11 68h1M37 68h2M48 68h1M54 68h15M74 68h3M92 68h1M120 68h1M122 68h5M5 69h5M11 69h1M38 69h1M48 69h1M54 69h9M64 69h5M74 69h3M92 69h1M120 69h1M122 69h5M5 70h5M11 70h1M37 70h2M48 70h1M54 70h15M74 70h3M93 70h2M120 70h1M122 70h5M5 71h5M11 71h1M37 71h2M40 71h8M75 71h2M93 71h2M122 71h5M5 72h5M11 72h1M37 72h2M40 72h9M74 72h3M93 72h2M120 72h1M122 72h5M5 73h5M11 73h1M36 73h3M48 73h1M74 73h2M82 73h1M95 73h1M120 73h1M122 73h5M5 74h5M11 74h1M36 74h3M48 74h1M74 74h2M82 74h1M92 74h1M95 74h1M120 74h1M123 74h4M5 75h5M11 75h1M36 75h3M48 75h1M74 75h2M82 75h1M92 75h1M95 75h1M120 75h1M122 75h5M5 76h5M11 76h1M36 76h1M39 76h10M74 76h2M79 76h2M86 76h6M93 76h3M120 76h1M122 76h5M5 77h5M11 77h1M35 77h2M38 77h1M48 77h3M70 77h6M79 77h2M83 77h2M91 77h2M95 77h1M120 77h1M122 77h5M5 78h5M11 78h1M32 78h4M38 78h1M48 78h6M69 78h7M79 78h2M83 78h1M92 78h1M95 78h1M120 78h1M122 78h4M5 79h5M11 79h1M32 79h4M38 79h1M48 79h6M69 79h7M79 79h2M83 79h1M92 79h1M95 79h1M120 79h1M122 79h5M5 80h5M11 80h1M32 80h2M38 80h1M48 80h6M69 80h7M79 80h2M83 80h1M92 80h1M95 80h2M120 80h1M122 80h5M5 81h5M11 81h1M32 81h2M38 81h1M48 81h8M69 81h7M77 81h2M81 81h3M92 81h1M96 81h1M120 81h1M122 81h5M5 82h5M11 82h1M32 82h2M38 82h1M48 82h1M50 82h6M69 82h5M75 82h1M77 82h2M81 82h3M92 82h1M96 82h1M120 82h1M122 82h5M5 83h5M11 83h1M31 83h3M38 83h1M48 83h6M55 83h1M69 83h8M81 83h1M83 83h1M92 83h1M96 83h1M120 83h1M122 83h5M5 84h5M11 84h1M31 84h3M39 84h18M68 84h9M81 84h1M83 84h1M92 84h1M96 84h1M120 84h1M122 84h5M5 85h5M11 85h1M31 85h3M39 85h18M68 85h9M81 85h1M83 85h1M92 85h1M96 85h1M120 85h1M122 85h5M5 86h5M11 86h1M31 86h3M49 86h7M68 86h9M81 86h12M96 86h1M120 86h1M122 86h4M5 87h5M11 87h1M32 87h4M49 87h1M76 87h1M96 87h1M120 87h1M122 87h5M5 88h5M11 88h1M32 88h4M49 88h1M76 88h1M96 88h1M120 88h1M122 88h5M5 89h5M11 89h1M35 89h1M49 89h1M77 89h2M95 89h1M120 89h1M122 89h5M5 90h5M11 90h1M37 90h2M49 90h1M79 90h2M95 90h1M120 90h1M123 90h4M5 91h5M11 91h1M37 91h2M49 91h1M79 91h2M95 91h1M120 91h1M122 91h5M5 92h5M11 92h1M37 92h2M49 92h1M79 92h2M95 92h1M120 92h1M122 92h5M5 93h5M11 93h1M37 93h13M81 93h14M120 93h1M122 93h5M5 94h5M11 94h1M37 94h36M74 94h21M120 94h1M122 94h5M5 95h5M11 95h1M37 95h3M41 95h11M82 95h2M85 95h10M120 95h1M122 95h5M5 96h5M11 96h1M36 96h1M52 96h1M82 96h1M93 96h2M120 96h1M122 96h5M5 97h5M11 97h1M36 97h1M51 97h2M82 97h1M93 97h2M120 97h1M122 97h5M5 98h5M11 98h1M36 98h1M53 98h2M82 98h1M96 98h1M120 98h1M122 98h5M5 99h5M11 99h1M35 99h1M55 99h1M82 99h1M96 99h4M120 99h1M122 99h5M5 100h5M11 100h1M35 100h1M55 100h1M82 100h1M96 100h4M120 100h1M122 100h5M5 101h5M11 101h1M35 101h1M39 101h12M55 101h9M75 101h8M98 101h3M120 101h1M122 101h5M5 102h5M11 102h1M35 102h1M39 102h1M48 102h1M50 102h1M55 102h9M75 102h18M98 102h3M120 102h1M122 102h5M5 103h5M11 103h1M35 103h1M39 103h1M48 103h1M50 103h1M55 103h9M75 103h18M98 103h3M120 103h1M122 103h5M5 104h5M11 104h1M35 104h1M39 104h1M48 104h1M50 104h1M54 104h9M76 104h7M93 104h1M98 104h3M120 104h1M122 104h5M5 105h5M11 105h1M35 105h1M39 105h1M48 105h3M53 105h2M56 105h7M76 105h8M93 105h1M98 105h2M120 105h1M122 105h5M5 106h5M11 106h1M35 106h1M39 106h1M48 106h3M53 106h2M56 106h7M76 106h8M93 106h1M98 106h2M120 106h1M122 106h5M5 107h5M11 107h1M35 107h1M39 107h1M48 107h3M53 107h2M56 107h7M76 107h8M93 107h1M98 107h2M120 107h1M122 107h5M5 108h5M11 108h1M35 108h2M39 108h1M48 108h1M51 108h2M56 108h7M78 108h6M93 108h1M98 108h2M120 108h1M122 108h5M5 109h5M11 109h1M36 109h1M39 109h1M48 109h1M51 109h2M56 109h7M78 109h6M93 109h1M96 109h4M120 109h1M122 109h5M5 110h5M11 110h1M36 110h1M39 110h1M48 110h1M51 110h2M57 110h6M78 110h6M93 110h1M96 110h4M122 110h5M5 111h5M11 111h1M36 111h1M39 111h2M46 111h3M51 111h2M56 111h1M58 111h4M81 111h3M93 111h1M95 111h2M120 111h1M122 111h5M5 112h5M11 112h1M36 112h3M40 112h6M51 112h2M56 112h2M83 112h10M95 112h1M120 112h1M122 112h5M5 113h5M11 113h1M36 113h1M39 113h1M49 113h1M56 113h2M83 113h1M93 113h3M120 113h1M122 113h2M125 113h2M5 114h5M11 114h1M36 114h1M39 114h1M49 114h1M56 114h2M83 114h1M94 114h1M120 114h1M122 114h5M5 115h5M11 115h1M37 115h2M55 115h3M83 115h9M93 115h2M120 115h1M122 115h5M5 116h5M11 116h1M37 116h2M55 116h3M83 116h9M93 116h2M120 116h1M122 116h5M5 117h5M11 117h1M37 117h2M55 117h3M63 117h15M83 117h1M93 117h2M120 117h1M122 117h5M5 118h5M11 118h1M39 118h1M55 118h3M63 118h15M83 118h1M93 118h2M120 118h1M122 118h5M5 119h5M11 119h1M39 119h1M55 119h3M63 119h15M83 119h1M93 119h2M120 119h1M122 119h5M5 120h5M11 120h1M39 120h1M56 120h2M63 120h1M77 120h1M83 120h5M91 120h4M120 120h1M122 120h5M5 121h5M11 121h1M40 121h1M44 121h14M63 121h4M75 121h3M83 121h5M91 121h1M120 121h1M122 121h5M5 122h5M11 122h1M40 122h1M44 122h14M63 122h4M75 122h3M83 122h5M91 122h1M120 122h1M122 122h5M5 123h5M11 123h1M44 123h12M64 123h3M75 123h1M83 123h2M86 123h6M120 123h1M122 123h5M5 124h5M11 124h1M44 124h12M64 124h3M75 124h1M83 124h9M120 124h1M122 124h5M5 125h5M11 125h1M44 125h12M64 125h3M75 125h1M83 125h9M120 125h1M122 125h5M5 126h5M11 126h1M44 126h12M64 126h3M75 126h1M83 126h9M120 126h1M122 126h5M5 127h5M11 127h1M44 127h12M64 127h3M75 127h1M83 127h1M120 127h1M122 127h5M5 128h5M11 128h1M44 128h23M75 128h9M91 128h1M120 128h1M122 128h5M5 129h5M11 129h1M49 129h35M88 129h3M120 129h1M122 129h5M5 130h5M11 130h1M49 130h18M68 130h16M88 130h3M120 130h1M122 130h5M5 131h5M11 131h1M50 131h15M81 131h3M88 131h1M120 131h1M122 131h5M5 132h5M11 132h1M50 132h15M81 132h2M88 132h1M120 132h1M122 132h5M5 133h5M11 133h1M50 133h15M81 133h2M88 133h1M120 133h1M122 133h5M5 134h5M11 134h1M50 134h15M71 134h6M81 134h2M87 134h1M120 134h1M122 134h5M5 135h5M11 135h1M50 135h15M70 135h1M77 135h1M81 135h2M84 135h3M120 135h1M122 135h5M5 136h5M11 136h1M50 136h15M81 136h2M84 136h3M120 136h1M122 136h5M5 137h5M11 137h1M44 137h1M53 137h5M59 137h6M81 137h2M84 137h2M120 137h1M122 137h5M5 138h5M11 138h1M44 138h1M53 138h12M81 138h2M84 138h2M120 138h1M122 138h5M5 139h5M11 139h1M44 139h1M53 139h12M81 139h2M84 139h2M120 139h1M122 139h5M5 140h5M11 140h1M44 140h1M53 140h6M63 140h2M81 140h3M120 140h1M122 140h5M5 141h5M11 141h1M44 141h1M53 141h6M63 141h2M81 141h3M120 141h1M122 141h5M5 142h5M11 142h1M44 142h1M55 142h4M62 142h3M81 142h2M120 142h1M122 142h5M5 143h5M11 143h1M44 143h1M55 143h4M62 143h3M81 143h2M5 144h5M11 144h1M45 144h3M55 144h4M62 144h5M81 144h2M5 145h5M11 145h1M46 145h2M55 145h1M57 145h2M62 145h5M81 145h2M5 146h5M11 146h1M46 146h2M55 146h4M62 146h5M81 146h2M5 147h5M11 147h1M46 147h2M55 147h4M62 147h5M81 147h2M5 148h5M11 148h1M49 148h1M58 148h11M77 148h6M5 149h5M11 149h1M49 149h1M58 149h9M81 149h2M5 150h3M9 150h1M11 150h1M49 150h1M58 150h12M81 150h2M5 151h5M11 151h1M52 151h1M58 151h12M81 151h2M5 152h5M11 152h1M51 152h2M60 152h23M5 153h5M11 153h1M51 153h2M60 153h23M5 154h5M11 154h1M51 154h2M60 154h23M5 155h5M11 155h1M53 155h3M60 155h23M5 156h5M11 156h1M55 156h1M5 157h5M11 157h1M55 157h1M5 158h5M11 158h1M55 158h1M5 159h5M11 159h1M55 159h1M5 160h5M11 160h1M55 160h1M5 161h5M11 161h1M55 161h1M62 161h3M69 161h4M76 161h3M5 162h5M11 162h1M55 162h4M62 162h3M69 162h4M76 162h3M5 163h5M11 163h1M55 163h4M62 163h3M69 163h4M76 163h3M5 164h5M11 164h1M62 164h3M69 164h4M76 164h3M5 165h5M11 165h1M6 166h4M11 166h1M5 167h5M11 167h1M5 168h1M7 168h3M11 168h1M5 169h5M11 169h1M5 170h5M11 170h1M5 171h5M11 171h1M5 172h5M11 172h1M5 173h5M11 173h1M120 173h1M122 173h5M5 174h5M11 174h1M120 174h1M122 174h5M5 175h5M11 175h1M120 175h1M122 175h5M5 176h5M11 176h1M120 176h1M123 176h4M5 177h5M11 177h1M120 177h1M122 177h5M5 178h5M11 178h1M120 178h1M122 178h5M5 179h5M11 179h64M76 179h18M95 179h26M122 179h5M5 180h5M122 180h5M5 181h51M57 181h1M59 181h12M72 181h55M5 182h122M5 183h60M66 183h30M97 183h30M8 184h62M71 184h53M8 185h40M49 185h44M94 185h30" />
<path stroke="#010000" d="M17 2h1M81 3h1M28 4h1M47 4h1M31 7h1M120 12h1M123 52h1M123 67h1M37 69h1M74 71h1M120 71h1M92 73h1M49 82h1M54 83h1M51 96h1M55 120h1M58 137h1M69 148h1M122 176h1M94 179h1" />
<path stroke="#000100" d="M23 2h1M87 6h1M103 6h1M118 6h1M124 36h1M49 45h1M9 57h1M86 63h1M63 69h1M48 71h1M122 74h1M56 86h1M126 86h1M122 90h1M73 94h1M40 95h1M84 95h1M83 104h1M124 113h1M95 114h1M91 127h1M67 130h1M56 145h1M8 150h1M6 168h1M56 181h1M71 181h1M96 183h1M93 185h1" />
<path stroke="#000001" d="M59 3h1M35 4h1M38 6h1M104 7h1M122 28h1M68 34h1M74 44h1M72 54h1M6 66h1M85 77h1M126 78h1M74 82h1M77 83h1M56 110h1M120 110h1M57 111h1M93 114h1M85 123h1M51 151h1M5 166h1M75 179h1M58 181h1M65 183h1M70 184h1M48 185h1" />
<path stroke="#ff9f02" d="M10 8h84M95 8h27M10 9h1M121 9h1M10 10h1M121 10h1M10 11h1M121 11h1M121 12h1M121 13h1M121 14h1M121 15h1M121 16h1M121 17h1M121 18h1M121 19h1M121 20h1M121 21h1M121 22h1M121 23h1M121 24h1M121 25h1M121 26h1M121 27h1M121 28h1M121 29h1M121 31h1M121 32h1M121 33h1M121 34h1M121 35h1M121 36h1M121 37h1M121 38h1M121 39h1M121 40h1M121 41h1M121 42h1M10 43h1M121 43h1M10 44h1M121 44h1M10 45h1M121 45h1M10 46h1M121 46h1M10 47h1M121 47h1M10 48h1M121 48h1M10 49h1M121 49h1M10 50h1M121 50h1M10 51h1M121 51h1M10 52h1M121 52h1M10 53h1M121 53h1M10 54h1M121 54h1M10 55h1M121 55h1M10 56h1M121 56h1M10 57h1M121 57h1M10 58h1M10 59h1M121 59h1M10 60h1M121 60h1M10 61h1M121 61h1M10 62h1M121 62h1M10 63h1M121 63h1M10 64h1M121 64h1M10 65h1M121 65h1M10 66h1M121 66h1M10 67h1M121 67h1M10 68h1M121 68h1M10 69h1M121 69h1M10 70h1M121 70h1M10 71h1M121 71h1M10 72h1M121 72h1M10 73h1M121 73h1M10 74h1M121 74h1M10 75h1M121 75h1M10 76h1M121 76h1M10 77h1M121 77h1M10 78h1M121 78h1M10 79h1M121 79h1M10 80h1M121 80h1M10 81h1M121 81h1M10 82h1M121 82h1M10 83h1M121 83h1M10 84h1M121 84h1M10 85h1M121 85h1M10 86h1M121 86h1M10 87h1M121 87h1M10 88h1M121 88h1M10 89h1M121 89h1M10 90h1M121 90h1M10 91h1M121 91h1M10 92h1M121 92h1M10 93h1M121 93h1M10 94h1M121 94h1M10 95h1M121 95h1M10 96h1M121 96h1M10 97h1M121 97h1M10 98h1M121 98h1M10 99h1M121 99h1M10 100h1M121 100h1M10 101h1M121 101h1M10 102h1M121 102h1M10 103h1M121 103h1M10 104h1M121 104h1M10 105h1M121 105h1M10 106h1M121 106h1M10 107h1M121 107h1M10 108h1M121 108h1M10 109h1M121 109h1M10 110h1M121 110h1M10 111h1M121 111h1M10 112h1M121 112h1M10 113h1M121 113h1M10 114h1M121 114h1M10 115h1M121 115h1M10 116h1M121 116h1M10 117h1M121 117h1M10 118h1M121 118h1M10 119h1M121 119h1M10 120h1M121 120h1M10 121h1M121 121h1M10 122h1M121 122h1M10 123h1M121 123h1M10 124h1M121 124h1M10 125h1M121 125h1M10 126h1M121 126h1M10 127h1M121 127h1M10 128h1M121 128h1M10 129h1M121 129h1M10 130h1M121 130h1M10 131h1M121 131h1M10 132h1M121 132h1M10 133h1M121 133h1M10 134h1M121 134h1M10 135h1M121 135h1M10 136h1M121 136h1M10 137h1M121 137h1M10 138h1M121 138h1M10 139h1M121 139h1M10 140h1M121 140h1M10 141h1M121 141h1M10 142h1M121 142h1M10 143h1M10 144h1M10 145h1M10 146h1M10 147h1M10 148h1M10 149h1M10 150h1M10 151h1M10 152h1M10 153h1M10 154h1M10 155h1M10 157h1M10 158h1M10 159h1M10 160h1M10 161h1M10 162h1M10 163h1M10 165h1M10 166h1M10 167h1M10 168h1M10 170h1M10 171h1M10 172h1M10 173h1M121 173h1M10 174h1M121 174h1M10 175h1M121 175h1M10 176h1M121 176h1M10 177h1M121 177h1M10 178h1M121 178h1M10 179h1M121 179h1M10 180h42M53 180h14M68 180h54" />
<path stroke="#fe9f02" d="M94 8h1M10 169h1M67 180h1" />
<path stroke="#ffffff" d="M12 10h108M12 11h76M91 11h29M12 12h14M27 12h61M91 12h29M12 13h76M91 13h29M16 14h16M33 14h55M91 14h29M16 15h44M61 15h15M77 15h7M95 15h25M17 16h67M95 16h25M16 17h38M70 17h16M93 17h27M18 18h28M48 18h6M70 18h4M76 18h10M89 18h2M93 18h27M18 19h28M48 19h6M70 19h4M76 19h10M89 19h2M93 19h1M95 19h25M18 20h30M74 20h14M91 20h29M18 21h31M73 21h15M91 21h29M18 22h31M73 22h15M91 22h29M18 23h31M73 23h15M91 23h29M18 24h31M73 24h15M91 24h3M95 24h25M18 25h31M77 25h6M86 25h2M91 25h2M96 25h24M18 26h31M77 26h6M86 26h2M91 26h2M96 26h24M18 27h13M32 27h11M44 27h2M47 27h2M77 27h9M87 27h1M91 27h1M93 27h21M115 27h5M18 28h31M77 28h10M92 28h28M18 29h30M56 29h1M62 29h1M69 29h1M77 29h11M91 29h5M97 29h23M18 30h31M56 30h1M62 30h1M69 30h1M77 30h11M91 30h29M18 31h31M55 31h1M60 31h3M68 31h2M77 31h11M91 31h14M106 31h14M18 32h14M33 32h16M79 32h9M91 32h29M18 33h31M81 33h7M91 33h29M23 34h26M81 34h7M91 34h29M23 35h26M81 35h7M91 35h24M116 35h4M23 36h26M81 36h7M91 36h26M118 36h2M12 37h2M23 37h26M74 37h2M83 37h5M91 37h29M12 38h2M23 38h26M74 38h2M83 38h5M91 38h29M12 39h2M23 39h26M74 39h2M83 39h5M91 39h29M12 40h37M53 40h2M62 40h3M86 40h2M91 40h29M12 41h37M53 41h2M62 41h3M86 41h2M91 41h29M12 42h22M35 42h14M54 42h1M62 42h3M86 42h2M91 42h29M12 43h4M17 43h32M77 43h1M86 43h2M91 43h27M119 43h1M12 44h37M77 44h1M87 44h1M91 44h24M116 44h4M12 45h37M77 45h1M91 45h25M117 45h3M12 46h4M17 46h32M77 46h1M91 46h29M12 47h24M37 47h11M91 47h29M12 48h13M26 48h20M91 48h29M12 49h34M91 49h29M12 50h34M79 50h2M91 50h12M104 50h16M12 51h33M91 51h29M12 52h33M91 52h29M12 53h32M82 53h1M91 53h29M12 54h31M82 54h1M91 54h1M93 54h27M12 55h31M82 55h1M91 55h4M96 55h24M12 56h31M82 56h1M91 56h29M12 57h31M82 57h1M91 57h29M12 58h29M91 58h29M12 59h29M91 59h29M12 60h28M91 60h29M12 61h28M91 61h29M12 62h28M50 62h6M69 62h7M91 62h29M12 63h15M28 63h12M50 63h6M69 63h7M91 63h29M12 64h28M50 64h6M69 64h1M71 64h5M91 64h29M12 65h28M92 65h28M12 66h28M92 66h28M12 67h25M93 67h27M12 68h25M93 68h27M12 69h25M93 69h27M12 70h7M20 70h17M95 70h25M12 71h25M95 71h19M115 71h5M12 72h25M95 72h25M12 73h24M39 73h1M83 73h4M96 73h24M12 74h24M39 74h1M83 74h4M96 74h24M12 75h24M39 75h1M83 75h4M96 75h24M12 76h24M37 76h2M81 76h1M96 76h24M12 77h23M96 77h24M12 78h20M96 78h24M12 79h20M96 79h24M12 80h20M97 80h23M12 81h10M23 81h9M97 81h23M12 82h13M26 82h6M97 82h23M12 83h2M15 83h16M34 83h1M78 83h1M97 83h23M12 84h19M34 84h1M77 84h1M97 84h10M108 84h12M12 85h19M34 85h1M77 85h1M97 85h23M12 86h19M34 86h3M58 86h1M62 86h6M77 86h1M97 86h21M119 86h1M12 87h20M36 87h1M77 87h4M97 87h23M12 88h20M36 88h1M77 88h4M97 88h23M12 89h3M16 89h6M23 89h12M79 89h2M96 89h17M114 89h6M12 90h25M81 90h1M96 90h6M103 90h17M12 91h25M81 91h1M96 91h24M12 92h20M33 92h4M81 92h1M96 92h24M12 93h25M96 93h24M12 94h25M95 94h25M12 95h22M35 95h2M95 95h25M12 96h24M50 96h1M95 96h25M12 97h24M50 97h1M95 97h25M12 98h24M51 98h2M97 98h8M106 98h14M12 99h23M51 99h4M95 99h1M100 99h20M12 100h23M51 100h4M95 100h1M100 100h20M12 101h11M24 101h11M54 101h1M64 101h6M73 101h1M95 101h3M101 101h19M12 102h2M15 102h20M54 102h1M97 102h1M101 102h19M12 103h10M23 103h12M54 103h1M97 103h1M101 103h19M12 104h23M53 104h1M97 104h1M101 104h19M12 105h23M100 105h20M12 106h23M100 106h20M12 107h6M19 107h16M100 107h2M103 107h17M13 108h22M100 108h10M111 108h9M13 109h23M100 109h20M12 110h7M20 110h16M100 110h20M12 111h24M97 111h8M106 111h14M12 112h24M50 112h1M93 112h2M96 112h24M12 113h5M18 113h18M45 113h4M92 113h1M96 113h9M106 113h14M12 114h24M45 114h4M92 114h1M96 114h24M12 115h25M95 115h25M12 116h25M95 116h25M12 117h10M23 117h14M95 117h25M12 118h27M95 118h3M99 118h19M119 118h1M12 119h27M95 119h25M12 120h27M95 120h25M12 121h28M92 121h28M12 122h28M93 122h1M95 122h16M112 122h8M12 123h29M56 123h7M76 123h6M92 123h28M12 124h29M56 124h7M76 124h6M92 124h28M12 125h29M56 125h7M76 125h6M92 125h4M97 125h23M12 126h29M56 126h7M76 126h6M92 126h12M105 126h15M12 127h29M92 127h28M12 128h29M92 128h28M12 129h29M91 129h29M12 130h29M91 130h29M12 131h29M49 131h1M89 131h31M12 132h29M49 132h1M89 132h31M12 133h29M49 133h1M89 133h31M12 134h5M18 134h1M20 134h21M49 134h1M88 134h32M12 135h26M39 135h2M87 135h33M12 136h14M27 136h14M87 136h33M12 137h29M51 137h2M86 137h34M12 138h4M17 138h24M86 138h34M12 139h9M22 139h19M86 139h34M12 140h29M84 140h36M12 141h29M84 141h16M101 141h19M12 142h29M54 142h1M83 142h14M98 142h22M12 143h29M54 143h1M83 143h24M108 143h11M12 144h29M44 144h1M54 144h1M83 144h6M90 144h19M118 144h2M12 145h29M44 145h2M54 145h1M83 145h26M118 145h2M12 146h29M44 146h2M67 146h3M77 146h2M83 146h26M118 146h2M13 147h2M16 147h25M44 147h2M67 147h3M77 147h2M83 147h26M12 148h29M44 148h5M56 148h2M83 148h26M12 149h29M44 149h5M56 149h2M83 149h26M12 150h29M44 150h5M56 150h2M83 150h30M12 151h29M44 151h7M83 151h31M12 152h29M44 152h7M83 152h31M12 153h29M44 153h7M83 153h31M12 154h29M44 154h7M83 154h31M12 155h29M44 155h9M83 155h31M12 156h29M44 156h11M62 156h2M69 156h3M75 156h2M83 156h31M12 157h18M31 157h10M44 157h11M62 157h2M69 157h3M75 157h2M83 157h31M12 158h29M44 158h11M62 158h1M69 158h1M75 158h1M83 158h10M94 158h20M12 159h29M44 159h11M62 159h1M69 159h1M75 159h1M83 159h31M12 160h28M45 160h10M83 160h25M109 160h5M12 161h27M40 161h1M44 161h1M46 161h9M83 161h9M93 161h21M12 162h24M39 162h2M44 162h2M49 162h6M83 162h11M95 162h19M12 163h24M39 163h2M44 163h2M49 163h6M83 163h31M12 164h27M40 164h1M44 164h15M83 164h31M12 165h29M44 165h15M83 165h31M12 166h29M44 166h15M83 166h33M12 167h10M23 167h18M44 167h14M84 167h32M12 168h14M27 168h12M41 168h2M46 168h10M58 168h4M78 168h6M86 168h26M113 168h3M12 169h13M26 169h13M41 169h2M46 169h10M58 169h4M78 169h6M86 169h30M12 170h27M46 170h16M78 170h42M12 171h25M48 171h72M12 172h25M48 172h65M114 172h6M12 173h29M44 173h76M12 174h29M44 174h69M114 174h6M12 175h29M44 175h76M12 176h29M44 176h47M92 176h28M12 177h29M44 177h76M12 178h21M34 178h86" />
<path stroke="#ffc051" d="M88 11h1M88 12h1M88 13h1M88 14h1M86 15h5M92 15h1M86 16h5M92 16h1M48 20h1M73 20h1M49 21h1M72 21h1M49 22h1M72 22h1M49 23h1M72 23h1M49 24h1M72 24h1M49 25h1M72 25h1M83 25h1M95 25h1M49 26h1M72 26h1M83 26h1M95 26h1M49 27h1M72 27h1M49 28h1M87 28h2M49 29h4M57 29h1M63 29h1M70 29h3M88 29h1M49 30h4M57 30h1M63 30h1M70 30h3M88 30h1M49 31h6M57 31h3M63 31h5M70 31h3M88 31h3M88 34h3M88 35h3M88 36h1M88 37h1M88 38h1M88 39h1M88 40h1M88 41h1M88 42h1M88 43h1M88 44h1M88 45h1M88 46h1M88 47h1M88 48h1M88 49h1M88 50h1M88 51h1M88 52h1M88 53h1M88 54h1M88 55h1M88 56h1M88 57h1M88 58h1M88 59h1M88 60h1M88 61h1M88 62h1M88 63h1M57 64h2M88 64h1M57 65h2M88 65h1M57 66h2M88 66h1M55 67h13M88 67h1M88 68h1M88 69h1M88 70h1M59 71h4M88 71h1M59 72h4M88 72h1M57 73h2M88 73h1M57 74h2M88 74h1M57 75h2M88 75h1M58 76h1M58 77h2M59 78h1M59 79h1M59 80h1M59 81h1M59 82h1M59 83h1M59 84h3M59 85h3M59 87h1M59 88h1M59 89h1M59 90h1M59 91h1M59 92h1M59 93h1M72 95h1M72 96h1M72 97h1M72 98h1M72 99h1M72 100h1M70 102h3M70 103h3M72 104h1M72 105h1M72 106h1M72 107h1M72 108h1M72 109h1M72 110h1M72 111h2M73 112h1M43 113h1M73 113h2M43 114h1M73 114h2M43 115h1M69 115h4M43 116h1M69 116h4M43 117h1M43 118h1M43 119h1M43 120h1M64 120h13M43 121h1M73 121h2M43 122h1M73 122h2M43 123h1M73 123h2M43 124h1M73 124h2M43 125h1M43 126h1M43 127h1M43 128h1M43 129h1M43 130h1M43 131h1M43 132h1M43 133h1M43 134h1M43 135h1M43 136h1M43 137h1M43 138h1M43 139h1M43 140h1M43 141h1M43 142h1M43 143h1M43 144h1M43 145h1M43 146h1M43 147h1M43 148h1M43 149h1M43 150h1M43 151h1M41 152h3M41 153h3M41 156h3M59 156h3M64 156h5M72 156h3M77 156h6M41 157h3M59 157h3M64 157h5M72 157h3M77 157h2M80 157h3M43 158h1M59 158h3M68 158h1M74 158h1M79 158h4M43 159h1M59 159h3M68 159h1M74 159h1M79 159h4M43 160h2M59 160h1M82 160h1M59 161h1M82 161h1M36 162h1M48 162h1M59 162h1M82 162h1M36 163h1M48 163h1M59 163h1M82 163h1M59 164h1M82 164h1M59 165h1M82 165h1M59 166h1M82 166h1M58 167h1M83 167h1M39 171h1M41 171h5M39 172h1M41 172h5M43 173h1M43 174h1M43 175h1M43 176h1M43 177h1" />
<path stroke="#ffa300" d="M89 11h2M89 12h2M89 13h2M89 14h2M84 15h2M91 15h1M93 15h1M84 16h2M91 16h1M93 16h2M46 18h1M74 18h2M46 19h2M74 19h2M49 20h4M56 20h3M63 20h4M70 20h3M50 21h3M56 21h3M63 21h4M70 21h2M50 22h3M56 22h1M58 22h1M63 22h4M70 22h2M50 23h3M56 23h3M63 23h4M70 23h2M50 24h3M56 24h3M63 24h4M70 24h2M50 25h3M56 25h3M63 25h4M70 25h2M84 25h2M93 25h2M50 26h3M56 26h3M63 26h4M70 26h2M84 26h2M93 26h2M50 27h3M56 27h3M63 27h4M70 27h2M86 27h1M88 27h3M92 27h1M50 28h14M65 28h7M89 28h3M53 29h2M58 29h2M64 29h4M89 29h2M53 30h2M58 30h2M64 30h4M90 30h1M89 36h2M89 37h2M89 38h2M89 39h2M89 40h2M89 41h2M89 42h2M89 43h2M89 44h2M89 45h2M89 46h2M89 47h2M89 48h2M89 49h2M89 50h2M89 51h2M89 52h2M89 53h1M89 54h2M89 55h1M89 56h2M89 57h2M89 58h1M89 59h2M89 60h2M89 61h2M89 62h2M89 63h2M59 64h6M89 64h2M59 65h6M89 65h2M59 66h6M89 66h2M89 67h2M89 68h2M89 69h2M89 70h2M89 71h2M89 72h2M59 73h6M89 73h2M59 74h6M89 74h2M59 75h6M89 75h2M59 76h5M60 77h4M60 78h3M60 79h3M60 80h3M60 81h3M60 82h3M60 83h3M62 84h1M62 85h1M60 87h3M60 88h3M60 89h3M60 90h3M60 91h3M60 92h3M60 93h3M69 95h3M69 96h3M69 97h3M69 98h3M69 99h3M69 100h3M69 102h1M69 103h1M69 104h3M69 105h3M69 106h3M69 107h3M69 108h3M70 109h2M69 110h3M68 111h2M71 111h1M68 112h1M70 112h3M41 113h2M67 113h6M41 114h2M67 114h6M41 115h2M41 116h2M41 117h2M41 118h2M41 119h2M41 120h2M41 121h2M67 121h6M41 122h2M67 122h6M41 123h2M67 123h6M41 124h2M67 124h6M41 125h2M41 126h2M41 127h2M41 128h2M41 129h2M41 130h2M41 131h2M41 132h2M41 133h2M41 134h2M41 135h2M41 136h2M41 137h2M41 138h2M41 139h2M41 140h2M41 141h2M41 142h2M41 143h2M41 144h2M41 145h2M41 146h2M41 147h2M41 148h2M41 149h2M42 150h1M41 151h2M41 158h2M64 158h4M72 158h2M77 158h2M41 159h2M64 159h4M72 159h2M77 159h2M40 160h3M60 160h22M39 161h1M41 161h3M45 161h1M60 161h2M65 161h4M73 161h3M79 161h3M37 162h2M46 162h2M60 162h2M65 162h4M73 162h3M79 162h3M37 163h2M46 163h2M60 163h2M65 163h4M73 163h3M79 163h3M60 164h2M65 164h4M73 164h3M79 164h3M60 165h2M65 165h4M73 165h3M79 165h3M60 166h2M65 166h4M73 166h3M79 166h3M59 167h3M65 167h4M73 167h3M79 167h4M56 168h2M84 168h2M56 169h2M84 169h2M37 171h2M40 171h1M46 171h2M37 172h2M40 172h1M46 172h2M41 173h2M41 174h2M41 175h2M41 176h2M41 177h2" />
<path stroke="#feffff" d="M26 12h1M32 14h1M94 19h1M43 27h1M48 29h1M36 47h1M107 84h1M34 95h1M23 101h1M102 107h1M110 108h1M19 110h1M17 113h1M111 122h1M26 136h1M16 138h1M21 139h1M100 141h1M97 142h1M107 143h1M30 157h1M93 158h1M108 160h1M94 162h1M39 164h1M26 168h1M113 172h1M91 176h1" />
<path stroke="#c83138" d="M1 14h15M1 15h15M1 16h15M1 17h7M9 17h7M0 18h3M14 18h4M0 19h3M14 19h4M0 20h3M14 20h4M0 21h3M14 21h4M0 22h3M14 22h4M0 23h3M14 23h4M0 24h3M14 24h4M0 25h3M14 25h4M0 26h3M14 26h4M0 27h3M10 27h8M0 28h3M10 28h8M0 29h3M10 29h8M0 30h3M10 30h8M0 31h3M10 31h8M0 32h18M0 33h18M3 34h20M3 35h20M3 36h20M14 37h9M14 38h9M14 39h9M109 144h9M109 145h9M109 146h9M109 147h20M109 148h20M109 149h2M112 149h12M125 149h4M114 150h19M114 151h19M114 152h8M129 152h4M114 153h8M129 153h4M114 154h8M129 154h4M114 155h8M129 155h4M114 156h8M129 156h4M114 157h6M121 157h1M129 157h4M114 158h4M129 158h4M114 159h4M129 159h4M114 160h4M129 160h4M114 161h4M129 161h4M114 162h4M129 162h4M114 163h4M129 163h4M114 164h4M129 164h4M114 165h4M129 165h4M116 166h15M116 167h15M116 168h15M116 169h15" />
<path stroke="#fffffe" d="M60 15h1M31 27h1M114 27h1M96 29h1M32 32h1M115 35h1M34 42h1M16 43h1M92 54h1M27 63h1M70 64h1M19 70h1M114 71h1M22 81h1M25 82h1M118 86h1M102 90h1M32 92h1M95 93h1M14 102h1M18 107h1M12 109h1M98 118h1M118 118h1M92 122h1M94 122h1M96 125h1M17 134h1M38 135h1M15 147h1M92 161h1M22 167h1M112 168h1M25 169h1" />
<path stroke="#fffeff" d="M76 15h1M16 16h1M94 24h1M46 27h1M56 31h1M105 31h1M117 36h1M53 42h1M118 43h1M115 44h1M116 45h1M16 46h1M25 48h1M103 50h1M95 55h1M14 83h1M15 89h1M22 89h1M113 89h1M105 98h1M22 103h1M12 108h1M105 111h1M105 113h1M22 117h1M104 126h1M19 134h1M119 143h1M89 144h1M12 147h1M113 150h1M113 174h1M33 178h1" />
<path stroke="#fea300" d="M94 15h1M47 18h1M57 22h1M64 28h1M89 30h1M90 53h1M90 55h1M69 112h1" />
<path stroke="#c93138" d="M8 17h1" />
<path stroke="#793a24" d="M54 17h2M86 17h3M54 18h3M63 18h4M86 18h2M54 19h3M63 19h4M86 19h2M53 20h3M59 20h4M67 20h1M88 20h1M53 21h3M59 21h4M67 21h3M88 21h1M53 22h3M59 22h4M67 22h3M88 22h1M88 23h2M88 24h2M88 25h3M88 26h3M73 27h3M73 28h3M73 29h3M73 30h3M73 31h3M72 32h4M88 32h2M72 33h5M88 33h2M72 34h5M72 35h5M76 36h2M76 37h2M76 38h2M76 39h2M78 40h1M78 41h1M78 42h1M78 43h1M78 44h1M78 45h1M78 46h1M79 47h3M48 48h1M81 48h1M48 49h1M81 49h1M48 50h1M81 50h3M48 51h1M83 51h1M48 52h1M83 52h1M45 53h4M83 53h1M44 54h5M83 54h3M44 55h5M83 55h3M44 56h1M83 56h3M44 57h1M83 57h3M44 58h1M83 58h5M44 59h1M83 59h5M41 60h4M41 61h4M41 65h3M49 65h5M69 65h5M41 66h3M49 66h5M69 66h5M41 67h2M49 67h2M69 67h1M77 67h1M79 67h9M91 67h1M39 68h4M49 68h2M69 68h1M77 68h2M87 68h1M39 69h4M49 69h2M69 69h1M77 69h2M87 69h1M39 70h1M49 70h2M69 70h1M77 70h2M87 70h1M39 71h1M49 71h2M63 71h2M77 71h2M86 71h2M39 72h1M49 72h2M63 72h2M77 72h2M86 72h2M49 73h2M65 73h2M76 73h2M49 74h2M65 74h2M76 74h2M49 75h2M65 75h2M76 75h2M49 76h2M64 76h1M76 76h1M51 77h4M64 77h1M76 77h1M54 78h2M63 78h1M76 78h1M54 79h2M63 79h1M76 79h1M54 80h2M63 80h1M68 80h1M76 80h2M56 81h1M63 81h1M68 81h1M76 81h1M56 82h1M63 82h1M68 82h1M76 82h1M56 83h1M63 83h1M67 83h2M57 84h2M63 84h5M57 85h2M63 85h5M50 87h5M63 87h1M50 88h5M63 88h1M50 89h5M63 89h1M50 90h6M63 90h2M77 90h2M50 91h6M63 91h2M77 91h2M50 92h6M63 92h2M77 92h2M50 93h9M63 93h18M52 95h17M73 95h9M53 96h2M67 96h1M76 96h6M53 97h2M67 97h2M76 97h6M68 98h1M77 98h5M68 99h1M77 99h5M68 100h1M77 100h5M64 102h5M73 102h2M64 103h5M73 103h2M63 104h2M68 104h1M75 104h1M55 105h1M63 105h1M68 105h1M75 105h1M55 106h1M63 106h1M68 106h1M75 106h1M55 107h1M63 107h1M68 107h1M75 107h1M54 108h2M63 108h1M68 108h1M76 108h2M55 109h1M68 109h1M76 109h2M55 110h1M68 110h1M76 110h2M55 111h1M67 111h1M77 111h4M55 112h1M67 112h1M81 112h2M54 113h2M65 113h2M81 113h2M54 114h2M65 114h2M81 114h2M45 115h1M53 115h2M67 115h2M81 115h2M92 115h1M44 116h2M53 116h2M67 116h2M81 116h2M92 116h1M44 117h1M53 117h2M62 117h1M81 117h2M92 117h1M44 118h1M53 118h2M62 118h1M81 118h2M89 118h4M44 119h1M53 119h2M62 119h1M81 119h2M89 119h4M40 120h1M44 120h11M62 120h1M81 120h2M89 120h2M58 121h5M78 121h5M88 121h3M58 122h5M78 122h5M88 122h3M87 127h4M87 128h4M44 129h5M87 129h1M44 130h2M47 130h2M87 130h1M46 131h3M87 131h1M46 132h3M83 132h5M46 133h3M83 133h5M48 134h1M83 134h4M48 135h1M83 135h1M48 136h1M83 136h1M48 137h3M83 137h1M50 138h1M83 138h1M50 139h1M83 139h1M50 140h3M50 141h3M53 142h1M53 143h1M53 144h1M53 145h1M53 146h1M53 147h1M54 148h2M54 149h2M54 150h2M54 151h2M55 152h5M55 153h5M42 154h2M55 154h5M42 155h2M56 155h4M56 156h3M56 157h3M56 158h3M56 159h3M56 160h3M56 161h3M41 162h3M41 163h3M42 164h2M43 165h1M62 165h3M69 165h4M76 165h3M43 166h1M62 166h3M69 166h4M76 166h3M43 167h1M64 167h1M69 167h4M76 167h3M44 168h2M65 168h4M75 168h3M44 169h2M65 169h4M75 169h3M43 170h3M76 170h2" />
<path stroke="#a75032" d="M56 17h14M90 17h3M57 18h6M67 18h3M91 18h2M57 19h6M67 19h3M91 19h2M68 20h2M89 20h2M89 21h2M89 22h2M90 23h1M90 24h1M90 32h1M77 33h2M90 33h1M77 34h2M77 35h2M78 36h1M78 37h4M78 38h4M78 39h4M79 40h5M79 41h5M79 42h5M79 43h5M79 44h5M79 45h8M79 46h8M82 47h5M82 48h5M82 49h5M84 50h3M85 51h3M84 52h4M84 53h4M86 54h2M86 55h2M45 56h3M86 56h2M45 57h3M86 57h2M45 58h3M45 59h3M45 60h3M57 60h8M45 61h2M57 61h8M57 62h8M57 63h8M43 67h1M51 67h3M71 67h3M43 68h5M51 68h3M70 68h2M73 68h1M79 68h8M91 68h1M43 69h4M51 69h3M70 69h4M79 69h8M91 69h1M40 70h8M51 70h3M70 70h4M79 70h8M91 70h2M51 71h8M65 71h9M79 71h7M91 71h2M51 72h8M65 72h9M79 72h7M91 72h2M51 73h6M67 73h7M78 73h4M93 73h2M51 74h6M67 74h7M78 74h4M93 74h2M51 75h6M67 75h7M78 75h4M93 75h2M51 76h7M65 76h9M77 76h2M55 77h3M65 77h5M77 77h2M56 78h3M64 78h5M77 78h2M56 79h3M64 79h5M77 79h2M56 80h3M64 80h4M78 80h1M57 81h2M64 81h4M57 82h2M64 82h4M57 83h2M64 83h3M55 87h4M64 87h12M55 88h4M64 88h12M55 89h4M64 89h13M57 90h2M65 90h12M56 91h3M65 91h12M56 92h3M65 92h12M55 96h12M73 96h3M55 97h12M73 97h3M55 98h13M73 98h1M75 98h2M56 99h12M73 99h4M56 100h12M73 100h4M65 104h3M73 104h2M64 105h4M73 105h2M64 106h4M73 106h2M64 107h1M66 107h2M73 107h2M53 108h1M64 108h4M73 108h3M53 109h2M63 109h5M73 109h3M53 110h2M63 110h5M73 110h3M53 111h2M62 111h5M74 111h3M53 112h2M58 112h9M74 112h7M37 113h2M50 113h4M58 113h7M75 113h6M37 114h2M50 114h4M58 114h7M75 114h6M39 115h2M46 115h7M58 115h9M73 115h1M75 115h6M39 116h2M46 116h7M58 116h9M73 116h8M39 117h2M45 117h8M58 117h4M78 117h1M80 117h1M84 117h8M40 118h1M45 118h8M58 118h4M78 118h3M84 118h2M87 118h2M40 119h1M45 119h8M58 119h4M78 119h3M84 119h5M58 120h4M78 120h3M88 120h1M67 125h8M67 126h8M68 127h7M84 127h3M67 128h8M84 128h3M84 129h3M84 130h3M44 131h2M84 131h3M44 132h2M44 133h2M44 134h4M44 135h4M44 136h4M45 137h3M45 138h5M45 139h5M45 140h5M45 141h5M45 142h8M45 143h8M48 144h5M48 145h5M48 146h5M48 147h3M52 147h1M50 148h4M50 149h2M53 149h1M50 150h4M53 151h1M53 152h2M53 153h2M41 154h1M53 154h2M41 155h1M41 164h1M41 165h2M41 166h2M41 167h2M62 167h2M39 168h2M62 168h3M69 168h6M39 169h2M62 169h3M69 169h6M39 170h3M62 170h14" />
<path stroke="#c1d3dc" d="M89 17h1M88 18h1M88 19h1M55 29h1M60 29h2M68 29h1M55 30h1M60 30h2M68 30h1M74 36h2M77 41h1M77 42h1M79 48h2M79 49h2M82 51h1M82 52h1M49 61h7M68 61h8M49 62h1M68 62h1M49 63h1M68 63h1M49 64h1M68 64h1M63 123h1M82 123h1M63 124h1M82 124h1M63 125h1M82 125h1M63 126h1M82 126h1M56 127h8M76 127h7M49 135h1M49 136h1M51 138h2M51 139h2M54 146h1M54 147h1M56 151h2M63 158h1M70 158h2M76 158h1M63 159h1M70 159h2M76 159h1M43 168h1M43 169h1M42 170h1" />
<path stroke="#c93038" d="M3 18h11M3 19h11M12 20h2M12 21h2M12 22h2M12 23h2M12 24h2M12 25h2M12 26h2M9 27h1M9 28h1M9 29h1M9 30h1M3 31h7M122 152h7M122 153h7M122 154h1M122 155h1M122 156h1M122 157h1M118 158h5M118 159h2M118 160h2M118 161h2M118 162h2M118 163h2M118 164h2M118 165h11" />
<path stroke="#ffc151" d="M72 28h1" />
<path stroke="#ff9f03" d="M121 30h1M121 58h1M10 156h1M52 180h1" />
<path stroke="#ee8b79" d="M52 36h2M60 36h2M52 37h1M60 37h2M60 38h2M60 39h2M51 40h2M70 40h3M51 41h2M70 41h3M51 42h2M70 42h3M51 43h1M70 43h1M51 44h1M70 44h1M51 45h1M70 45h1M51 46h1M70 46h2M51 47h1M69 47h3M51 48h1M51 49h1M51 50h1M51 51h1M51 52h1M51 53h1M54 53h1M62 53h1M51 54h1M51 55h2M51 56h16M51 57h16M39 77h6M86 77h5M39 78h5M84 78h3M39 79h5M84 79h3M39 80h4M84 80h3M39 81h4M84 81h3M39 82h4M84 82h3M39 83h9M84 83h5M82 84h1M84 84h8M82 85h1M84 85h8M40 102h6M47 102h1M49 102h1M40 103h8M49 103h1M43 104h5M84 104h9M45 105h3M89 105h4M45 106h3M89 106h4M45 107h2M89 107h4M45 108h3M89 108h4M45 109h3M88 109h5M45 110h3M88 110h5M41 111h5M87 111h6M65 131h16M79 132h2M80 133h1M70 134h1M77 134h1M80 134h1M80 135h1M80 136h1M80 137h1M80 138h1M80 139h1M60 140h3M80 140h1M60 141h3M80 141h1M60 142h2M80 142h1M61 143h1M80 143h1M61 144h1M80 144h1M61 145h1M80 145h1M59 146h3M79 146h2M59 147h3M79 147h2M70 148h2M70 149h2M70 150h2M79 150h2M70 151h11" />
<path stroke="#fecca9" d="M53 37h1M55 38h5M55 39h5M55 40h7M55 41h7M55 42h7M52 43h13M71 43h2M52 44h13M71 44h2M52 45h15M71 45h2M52 46h15M72 46h1M52 47h15M72 47h1M52 48h15M52 49h15M52 50h15M52 51h15M52 52h2M55 52h7M63 52h4M52 53h2M63 53h4M52 54h3M62 54h5M53 55h7M61 55h6M45 77h3M44 78h4M87 78h5M44 79h4M87 79h5M43 80h5M87 80h5M43 81h5M87 81h5M44 82h4M87 82h5M82 83h1M89 83h3M40 104h3M49 104h1M40 105h5M84 105h5M40 106h5M84 106h5M40 107h5M84 107h5M40 108h5M84 108h5M40 109h5M84 109h4M40 110h5M84 110h4M84 111h3M65 132h14M65 133h6M77 133h3M65 134h5M78 134h2M65 135h5M71 135h6M78 135h2M65 136h12M78 136h2M65 137h15M65 138h15M65 139h15M59 140h1M65 140h15M59 141h1M65 141h13M79 141h1M59 142h1M66 142h14M59 143h2M65 143h15M59 144h2M67 144h13M59 145h2M67 145h5M73 145h7M70 146h7M70 147h7M72 148h5M72 149h5M72 150h7" />
<path stroke="#d95763" d="M52 38h3M62 38h3M55 54h7M71 133h6M67 149h3M77 149h4" />
<path stroke="#c1d3dd" d="M77 40h1" />
<path stroke="#a65032" d="M84 51h1M56 90h1M51 147h1M52 149h1" />
<path stroke="#fecda9" d="M60 55h1M43 82h1M72 145h1" />
<path stroke="#ffa200" d="M90 58h1M69 109h1M70 111h1M41 150h1" />
<path stroke="#a75132" d="M47 61h1M70 67h1M72 68h1M65 107h1" />
<path stroke="#793a25" d="M78 67h1M44 115h1" />
<path stroke="#a75033" d="M47 69h1M74 98h1M74 115h1M79 117h1M86 118h1M67 127h1" />
<path stroke="#009dff" d="M40 73h8M87 73h1M40 74h8M87 74h1M40 75h8M87 75h1M82 76h4M37 77h1M81 77h2M36 78h2M81 78h2M36 79h2M81 79h2M34 80h4M81 80h2M34 81h4M79 81h2M34 82h4M79 82h2M35 83h3M79 83h2M35 84h4M78 84h3M35 85h4M78 85h3M37 86h2M78 86h3M37 87h2M81 87h2M37 88h2M81 88h2M36 89h4M81 89h2M39 90h5M45 90h3M82 90h10M93 90h2M39 91h10M82 91h4M87 91h5M93 91h2M39 92h10M82 92h10M93 92h2M37 96h2M40 96h3M44 96h6M83 96h10M37 97h2M40 97h10M83 97h10M49 98h2M92 98h4M49 99h2M93 99h2M49 100h2M94 100h1M51 101h3M93 101h2M51 102h3M93 102h4M51 103h3M93 103h4M51 104h2M94 104h3M51 105h2M94 105h4M51 106h2M94 106h4M51 107h2M94 107h4M49 108h2M94 108h4M49 109h2M94 109h2M49 110h2M94 110h2M49 111h2M94 111h1M46 112h2M49 112h1M44 113h1M84 113h8M44 114h1M84 114h8" />
<path stroke="#29adff" d="M91 73h1M91 74h1M91 75h1M92 76h1M93 77h2M93 78h2M93 79h2M93 80h2M93 81h3M93 82h3M93 83h3M93 84h2M93 85h3M39 86h10M93 86h3M39 87h10M83 87h13M39 88h10M83 88h13M40 89h9M83 89h12M92 90h1M92 91h1M92 92h1M39 96h1M39 97h1M37 98h12M83 98h9M36 99h13M83 99h10M36 100h13M83 100h10M36 101h3M83 101h10M36 102h3M36 103h3M36 104h3M36 105h3M36 106h3M36 107h3M37 108h2M37 109h2M37 110h2M37 111h2M39 112h1M40 113h1M40 114h1" />
<path stroke="#29adfe" d="M95 84h1" />
<path stroke="#9badb7" d="M57 86h1M59 86h3M70 101h3M74 101h1" />
<path stroke="#009dfe" d="M44 90h1M86 91h1M48 112h1" />
<path stroke="#009cff" d="M48 90h1" />
<path stroke="#019dff" d="M43 96h1M93 100h1" />
<path stroke="#793b24" d="M68 96h1" />
<path stroke="#ef8b79" d="M46 102h1M47 107h1" />
<path stroke="#783a24" d="M46 130h1" />
<path stroke="#ffcca9" d="M77 136h1M78 141h1" />
<path stroke="#fecca8" d="M65 142h1" />
<path stroke="#c83139" d="M111 149h1M124 149h1M120 157h1" />
<path stroke="#ffc050" d="M79 157h1" />
<path stroke="#ff9e02" d="M10 164h1" />
</svg>