<svg xmlns="http://www.w3.org/2000/svg" viewBox="0 -0.5 133 187" shape-rendering="crispEdges">
<metadata>Made with Pixels to Svg https://codepen.io/shshaw/pen/XbxvNj</metadata>
<path stroke="#000000" d="M8 0h59M68 0h4M73 0h19M93 0h32M8 1h38M47 1h78M6 2h121M6 3h121M6 4h20M27 4h24M52 4h19M72 4h55M6 5h121M6 6h5M122 6h5M6 7h5M12 7h30M43 7h78M122 7h5M6 8h5M12 8h1M120 8h1M122 8h5M6 9h5M12 9h1M120 9h1M122 9h5M120 10h1M122 10h5M120 11h1M122 11h5M120 12h1M122 12h5M120 13h1M122 13h5M120 14h1M122 14h5M120 15h1M122 15h5M120 16h1M122 16h5M120 17h1M122 17h5M120 18h1M122 18h5M120 19h1M122 19h5M120 20h1M122 20h5M120 21h1M122 21h5M54 22h3M60 22h4M68 22h3M120 22h1M122 22h5M54 23h3M60 23h4M68 23h3M74 23h3M120 23h1M122 23h5M54 24h3M60 24h4M68 24h3M74 24h3M120 24h1M122 24h5M54 25h3M60 25h4M68 25h3M120 25h1M122 25h5M120 26h1M122 26h5M120 27h1M122 27h5M120 28h1M122 28h5M120 29h1M122 29h3M126 29h1M50 30h23M77 30h2M120 30h1M122 30h5M50 31h23M77 31h2M120 31h1M122 31h5M50 32h23M79 32h2M120 32h1M122 32h5M50 33h23M79 33h2M120 33h1M122 33h5M50 34h23M79 34h2M120 34h1M122 34h5M50 35h2M63 35h7M71 35h4M79 35h2M120 35h1M122 35h5M50 36h2M63 36h12M82 36h1M120 36h1M122 36h5M50 37h2M67 37h8M82 37h1M120 37h1M122 37h5M50 38h6M63 38h12M82 38h1M120 38h1M122 38h5M50 39h2M66 39h5M74 39h3M84 39h2M120 39h1M122 39h5M50 40h2M66 40h5M74 40h3M84 40h2M120 40h1M122 40h5M6 41h5M12 41h1M50 41h2M66 41h5M74 41h3M84 41h2M120 41h1M122 41h5M6 42h5M12 42h1M50 42h2M66 42h5M74 42h3M84 42h3M122 42h5M6 43h5M12 43h1M50 43h2M66 43h5M74 43h3M84 43h3M120 43h1M122 43h5M6 44h5M12 44h1M50 44h2M68 44h3M74 44h3M87 44h1M120 44h1M122 44h5M6 45h5M12 45h1M50 45h2M68 45h3M74 45h3M87 45h1M120 45h1M122 45h5M6 46h5M12 46h1M49 46h3M68 46h2M74 46h5M87 46h1M120 46h1M122 46h5M6 47h5M12 47h1M47 47h2M50 47h2M68 47h11M87 47h1M120 47h1M122 47h5M6 48h3M10 48h1M12 48h1M47 48h2M50 48h2M68 48h11M87 48h1M120 48h1M122 48h4M6 49h5M12 49h1M47 49h2M50 49h2M68 49h11M87 49h1M120 49h1M122 49h5M6 50h5M12 50h1M46 50h3M50 50h2M68 50h14M120 50h1M122 50h5M6 51h5M12 51h1M46 51h3M50 51h2M55 51h1M63 51h1M68 51h14M120 51h1M122 51h5M6 52h4M12 52h1M45 52h1M50 52h2M56 52h7M68 52h14M120 52h1M122 52h5M6 53h5M12 53h1M44 53h1M50 53h2M68 53h7M76 53h6M120 53h1M122 53h4M6 54h5M12 54h1M44 54h1M50 54h2M68 54h14M120 54h1M122 54h5M6 55h4M12 55h1M44 55h1M49 55h3M68 55h14M120 55h1M122 55h5M6 56h5M12 56h1M44 56h1M49 56h3M68 56h14M120 56h1M122 56h5M6 57h1M8 57h3M12 57h1M42 57h3M49 57h4M54 57h5M60 57h3M64 57h19M120 57h1M122 57h5M6 58h5M12 58h1M42 58h3M49 58h34M120 58h1M122 58h5M6 59h5M12 59h1M41 59h1M49 59h9M66 59h19M86 59h2M120 59h1M122 59h5M7 60h4M12 60h1M41 60h1M49 60h1M57 60h1M66 60h3M77 60h11M120 60h1M122 60h5M6 61h5M12 61h1M41 61h9M57 61h1M66 61h3M77 61h11M120 61h1M122 61h5M6 62h2M9 62h2M12 62h1M41 62h9M57 62h1M66 62h3M77 62h11M120 62h1M122 62h5M6 63h5M12 63h1M41 63h9M57 63h1M66 63h3M77 63h11M120 63h1M122 63h5M6 64h5M12 64h1M41 64h1M45 64h5M55 64h3M66 64h4M75 64h13M91 64h1M120 64h1M122 64h5M6 65h5M12 65h1M41 65h1M45 65h5M55 65h3M66 65h4M75 65h13M91 65h1M120 65h1M122 65h5M6 66h5M12 66h1M38 66h4M45 66h5M55 66h1M69 66h1M75 66h2M92 66h1M120 66h1M122 66h5M6 67h5M12 67h1M38 67h2M49 67h1M55 67h15M75 67h2M92 67h1M120 67h1M122 67h5M6 68h3M10 68h1M12 68h1M38 68h2M49 68h1M55 68h15M75 68h2M92 68h1M120 68h1M122 68h5M6 69h5M12 69h1M38 69h2M49 69h1M55 69h15M75 69h2M92 69h1M120 69h1M122 69h5M6 70h5M12 70h1M38 70h2M49 70h1M55 70h15M75 70h2M93 70h2M120 70h1M122 70h5M6 71h5M12 71h1M38 71h2M41 71h9M75 71h2M93 71h2M120 71h1M122 71h5M6 72h5M12 72h1M38 72h2M41 72h9M75 72h2M93 72h2M120 72h1M122 72h5M6 73h5M12 73h1M37 73h3M49 73h1M75 73h2M82 73h1M92 73h1M95 73h1M120 73h1M122 73h5M6 74h5M12 74h1M37 74h3M49 74h1M75 74h2M82 74h1M92 74h1M95 74h1M120 74h1M122 74h5M6 75h5M12 75h1M37 75h1M40 75h10M75 75h2M79 75h2M86 75h6M93 75h3M120 75h1M122 75h5M6 76h5M12 76h1M36 76h2M49 76h3M71 76h6M79 76h2M83 76h3M91 76h2M95 76h1M120 76h1M122 76h5M6 77h5M12 77h1M33 77h4M50 77h2M53 77h2M70 77h7M79 77h2M83 77h1M95 77h1M120 77h1M122 77h5M6 78h5M12 78h1M33 78h4M49 78h6M70 78h7M79 78h2M83 78h1M92 78h1M95 78h1M120 78h1M122 78h5M6 79h5M12 79h1M33 79h2M49 79h6M70 79h7M79 79h2M83 79h1M92 79h1M95 79h1M120 79h1M122 79h5M6 80h5M12 80h1M33 80h2M49 80h8M70 80h9M81 80h3M92 80h1M96 80h1M120 80h1M122 80h3M126 80h1M6 81h5M12 81h1M33 81h2M49 81h2M52 81h5M70 81h9M81 81h3M92 81h1M96 81h1M120 81h1M122 81h5M6 82h5M12 82h1M33 82h2M49 82h8M70 82h9M81 82h3M92 82h1M96 82h1M120 82h1M122 82h5M6 83h5M12 83h1M32 83h3M49 83h8M70 83h8M81 83h1M83 83h1M92 83h1M96 83h1M120 83h1M122 83h5M6 84h5M12 84h1M32 84h3M40 84h18M69 84h8M81 84h1M83 84h1M92 84h1M96 84h1M120 84h1M122 84h5M6 85h5M12 85h1M32 85h3M40 85h18M69 85h8M81 85h1M83 85h1M92 85h1M96 85h1M120 85h1M122 85h5M6 86h5M32 86h3M50 86h8M69 86h8M81 86h12M96 86h1M120 86h1M122 86h5M6 87h5M12 87h1M33 87h4M50 87h1M96 87h1M120 87h1M122 87h5M6 88h5M12 88h1M33 88h1M35 88h2M50 88h1M96 88h1M120 88h1M122 88h5M6 89h5M12 89h1M36 89h1M50 89h1M77 89h2M95 89h1M120 89h1M122 89h5M6 90h5M12 90h1M38 90h2M50 90h1M79 90h2M95 90h1M120 90h1M122 90h5M6 91h5M38 91h2M50 91h1M79 91h2M95 91h1M120 91h1M122 91h5M6 92h5M12 92h1M38 92h13M82 92h13M120 92h1M122 92h5M6 93h5M12 93h1M38 93h57M120 93h1M122 93h5M6 94h5M12 94h1M38 94h46M85 94h10M120 94h1M122 94h5M6 95h5M12 95h1M38 95h15M82 95h13M120 95h1M122 95h5M6 96h5M12 96h1M37 96h1M52 96h2M82 96h1M93 96h2M120 96h1M122 96h5M6 97h5M12 97h1M37 97h1M52 97h2M82 97h1M93 97h2M120 97h1M122 97h5M6 98h5M12 98h1M37 98h1M54 98h2M82 98h1M96 98h1M120 98h1M122 98h5M6 99h5M12 99h1M36 99h1M56 99h1M82 99h1M96 99h4M120 99h1M122 99h5M6 100h5M12 100h1M36 100h1M56 100h1M82 100h1M96 100h4M120 100h1M122 100h5M6 101h1M8 101h3M12 101h1M36 101h1M40 101h12M56 101h9M76 101h7M98 101h3M120 101h1M122 101h5M6 102h5M12 102h1M36 102h1M40 102h1M49 102h1M51 102h1M56 102h9M76 102h17M98 102h3M120 102h1M122 102h5M6 103h5M12 103h1M36 103h1M40 103h1M49 103h1M51 103h1M56 103h9M76 103h16M98 103h3M120 103h1M122 103h5M6 104h5M12 104h1M36 104h1M40 104h1M49 104h1M51 104h1M55 104h9M77 104h7M98 104h1M100 104h1M120 104h1M122 104h5M6 105h5M12 105h1M36 105h1M40 105h1M49 105h3M54 105h2M57 105h7M77 105h7M98 105h2M120 105h1M122 105h5M6 106h5M12 106h1M36 106h1M40 106h1M49 106h3M54 106h2M57 106h7M77 106h7M98 106h2M120 106h1M122 106h5M6 107h5M12 107h1M36 107h1M40 107h1M49 107h3M54 107h2M57 107h7M77 107h7M98 107h2M120 107h1M122 107h5M6 108h5M12 108h1M36 108h2M40 108h1M49 108h1M52 108h2M57 108h7M78 108h6M98 108h2M120 108h1M122 108h5M6 109h5M12 109h1M37 109h1M40 109h1M49 109h1M52 109h2M57 109h7M78 109h4M83 109h1M96 109h4M120 109h1M122 109h5M6 110h5M12 110h1M37 110h1M40 110h1M49 110h1M52 110h2M57 110h7M78 110h6M96 110h4M120 110h1M122 110h2M125 110h2M6 111h5M12 111h1M37 111h1M40 111h2M47 111h3M52 111h1M57 111h6M81 111h3M95 111h2M120 111h1M122 111h5M6 112h5M12 112h1M37 112h3M41 112h6M52 112h2M57 112h2M83 112h10M95 112h1M120 112h1M122 112h5M6 113h5M12 113h1M37 113h1M40 113h1M50 113h1M57 113h2M83 113h1M93 113h3M120 113h1M122 113h5M6 114h5M12 114h1M37 114h1M40 114h1M50 114h1M57 114h2M83 114h1M93 114h3M120 114h1M122 114h5M6 115h5M12 115h1M38 115h2M56 115h3M83 115h9M93 115h2M120 115h1M122 115h5M6 116h5M12 116h1M38 116h2M56 116h3M83 116h9M93 116h2M120 116h1M122 116h5M6 117h5M12 117h1M38 117h2M56 117h3M64 117h7M72 117h6M83 117h1M93 117h2M120 117h1M122 117h5M6 118h5M12 118h1M40 118h1M56 118h3M64 118h14M83 118h1M93 118h1M120 118h1M122 118h5M6 119h5M12 119h1M40 119h1M56 119h3M64 119h14M83 119h1M93 119h2M120 119h1M122 119h5M6 120h5M12 120h1M40 120h1M56 120h3M64 120h14M83 120h1M93 120h2M120 120h1M122 120h5M6 121h5M12 121h1M40 121h1M56 121h3M64 121h1M77 121h1M83 121h5M91 121h4M120 121h1M122 121h5M6 122h5M12 122h1M41 122h1M45 122h14M64 122h4M76 122h2M83 122h5M91 122h1M120 122h1M122 122h5M6 123h5M12 123h1M41 123h1M45 123h14M64 123h2M67 123h1M76 123h2M83 123h5M91 123h1M120 123h1M122 123h5M6 124h5M12 124h1M45 124h12M65 124h3M76 124h1M83 124h9M120 124h1M122 124h5M6 125h5M12 125h1M45 125h12M65 125h3M76 125h1M83 125h9M120 125h1M122 125h5M6 126h5M12 126h1M45 126h12M65 126h3M76 126h1M83 126h9M120 126h1M122 126h5M6 127h5M12 127h1M45 127h12M65 127h3M76 127h1M83 127h1M91 127h1M120 127h1M122 127h5M6 128h5M12 128h1M45 128h23M76 128h8M91 128h1M120 128h1M122 128h5M6 129h5M12 129h1M50 129h34M88 129h3M120 129h1M122 129h5M6 130h5M12 130h1M50 130h34M88 130h3M120 130h1M122 130h5M6 131h5M12 131h1M51 131h15M81 131h3M88 131h1M120 131h1M122 131h5M6 132h5M12 132h1M51 132h15M81 132h3M88 132h1M120 132h1M122 132h5M6 133h5M12 133h1M51 133h15M81 133h2M88 133h1M120 133h1M122 133h5M6 134h5M12 134h1M51 134h15M81 134h2M88 134h1M120 134h1M122 134h5M6 135h5M12 135h1M51 135h15M70 135h7M81 135h2M87 135h1M120 135h1M122 135h5M7 136h4M12 136h1M51 136h15M69 136h1M77 136h1M81 136h2M84 136h3M120 136h1M122 136h5M6 137h5M12 137h1M51 137h15M81 137h2M84 137h3M120 137h1M122 137h5M6 138h5M12 138h1M45 138h1M54 138h12M81 138h2M84 138h2M120 138h1M122 138h5M6 139h5M12 139h1M45 139h1M54 139h12M81 139h2M84 139h2M120 139h1M122 139h5M6 140h5M12 140h1M45 140h1M54 140h12M81 140h2M84 140h2M120 140h1M122 140h5M6 141h5M12 141h1M45 141h1M54 141h6M64 141h2M81 141h3M120 141h1M122 141h5M6 142h5M12 142h1M45 142h1M56 142h4M63 142h1M65 142h1M81 142h2M120 142h1M122 142h5M6 143h5M12 143h1M45 143h1M56 143h4M63 143h3M81 143h2M6 144h5M12 144h1M46 144h3M56 144h4M63 144h5M81 144h2M6 145h5M12 145h1M46 145h3M56 145h1M58 145h2M63 145h5M81 145h2M6 146h5M12 146h1M47 146h2M56 146h4M63 146h5M81 146h2M6 147h5M12 147h1M47 147h2M56 147h4M63 147h5M81 147h2M6 148h5M12 148h1M47 148h2M56 148h4M63 148h5M81 148h2M6 149h5M12 149h1M50 149h1M59 149h9M81 149h2M6 150h5M12 150h1M50 150h1M59 150h12M77 150h6M6 151h5M12 151h1M50 151h1M59 151h6M66 151h5M81 151h2M6 152h5M12 152h1M52 152h2M59 152h12M81 152h2M6 153h5M12 153h1M52 153h2M61 153h22M6 154h5M12 154h1M52 154h2M61 154h22M6 155h5M12 155h1M52 155h2M61 155h22M6 156h5M12 156h1M54 156h3M61 156h22M6 157h5M12 157h1M56 157h1M6 158h5M12 158h1M56 158h1M6 159h5M12 159h1M56 159h1M6 160h5M12 160h1M56 160h1M6 161h5M12 161h1M56 161h1M6 162h5M12 162h1M56 162h1M63 162h3M70 162h4M77 162h2M6 163h5M12 163h1M56 163h4M63 163h3M70 163h4M77 163h2M6 164h5M12 164h1M56 164h4M63 164h3M70 164h4M77 164h2M6 165h5M12 165h1M63 165h3M70 165h4M77 165h2M6 166h5M12 166h1M6 167h5M12 167h1M6 168h5M12 168h1M6 169h5M12 169h1M6 170h5M12 170h1M6 171h5M12 171h1M6 172h5M12 172h1M6 173h5M12 173h1M6 174h5M12 174h1M6 175h5M12 175h1M120 175h1M122 175h5M6 176h5M12 176h1M120 176h1M122 176h5M6 177h5M12 177h1M120 177h1M122 177h5M6 178h5M12 178h1M120 178h1M122 178h5M6 179h5M12 179h1M120 179h1M122 179h5M6 180h5M12 180h109M122 180h5M6 181h5M122 181h5M6 182h102M109 182h18M6 183h29M36 183h21M59 183h17M77 183h50M6 184h20M27 184h23M51 184h76M6 185h28M35 185h56M92 185h35M9 186h8M18 186h106" />
<path stroke="#010000" d="M67 0h1M46 1h1M125 29h1M70 35h1M75 53h1M126 53h1M53 57h1M63 57h1M85 59h1M8 62h1M12 86h1M34 88h1M84 94h1M94 118h1M6 136h1M65 151h1M108 182h1M34 185h1M17 186h1" />
<path stroke="#000001" d="M72 0h1M92 0h1M51 4h1M120 42h1M9 48h1M126 48h1M7 57h1M59 57h1M6 60h1M49 77h1M125 80h1M51 81h1M81 92h1M7 101h1M92 103h1M99 104h1M82 109h1M66 123h1M64 142h1M57 145h1M57 183h2M76 183h1M26 184h1M50 184h1M91 185h1" />
<path stroke="#000100" d="M26 4h1M71 4h1M42 7h1M66 37h1M10 52h1M10 55h1M9 68h1M52 77h1M92 77h1M96 79h1M12 91h1M124 110h1M53 111h1M71 117h1M35 183h1" />
<path stroke="#ff9f02" d="M11 6h28M40 6h56M97 6h25M11 7h1M121 7h1M11 8h1M121 8h1M11 9h1M121 9h1M121 10h1M121 11h1M121 12h1M121 13h1M121 14h1M121 15h1M121 16h1M121 17h1M121 18h1M121 19h1M121 20h1M121 21h1M121 22h1M121 23h1M121 24h1M121 25h1M121 26h1M121 27h1M121 28h1M121 29h1M121 30h1M121 31h1M121 32h1M121 33h1M121 34h1M121 35h1M121 36h1M121 37h1M121 38h1M121 39h1M121 40h1M11 41h1M121 41h1M11 42h1M121 42h1M11 43h1M121 43h1M11 44h1M121 44h1M11 45h1M121 45h1M11 46h1M121 46h1M11 47h1M121 47h1M11 48h1M121 48h1M11 49h1M121 49h1M11 50h1M121 50h1M11 51h1M121 51h1M11 52h1M121 52h1M11 53h1M121 53h1M11 54h1M11 55h1M121 55h1M11 56h1M121 56h1M11 57h1M121 57h1M11 58h1M121 58h1M11 59h1M121 59h1M11 60h1M121 60h1M11 61h1M121 61h1M11 62h1M121 62h1M11 63h1M121 63h1M11 64h1M121 64h1M11 65h1M121 65h1M11 66h1M121 66h1M11 67h1M121 67h1M11 68h1M121 68h1M11 69h1M121 69h1M11 70h1M11 71h1M121 71h1M11 72h1M121 72h1M11 73h1M121 73h1M11 74h1M121 74h1M11 75h1M121 75h1M11 76h1M121 76h1M11 77h1M121 77h1M11 78h1M121 78h1M11 79h1M121 79h1M11 80h1M121 80h1M11 81h1M121 81h1M11 82h1M121 82h1M11 83h1M121 83h1M121 84h1M11 85h1M121 85h1M11 86h1M121 86h1M11 87h1M121 87h1M121 88h1M11 89h1M121 89h1M11 90h1M121 90h1M11 91h1M121 91h1M11 92h1M121 92h1M11 93h1M121 93h1M11 94h1M121 94h1M11 95h1M121 95h1M11 96h1M121 96h1M11 97h1M121 97h1M11 98h1M121 98h1M11 99h1M121 99h1M11 100h1M121 100h1M11 101h1M121 101h1M11 102h1M121 102h1M11 103h1M121 103h1M11 104h1M121 104h1M11 105h1M121 105h1M11 106h1M121 106h1M11 107h1M121 107h1M11 108h1M121 108h1M11 109h1M121 109h1M11 110h1M121 110h1M11 111h1M121 111h1M11 112h1M121 112h1M11 113h1M121 113h1M11 114h1M121 114h1M11 115h1M121 115h1M11 116h1M121 116h1M11 117h1M121 117h1M11 118h1M11 119h1M121 119h1M11 120h1M121 120h1M11 121h1M121 121h1M11 122h1M121 122h1M11 123h1M121 123h1M11 124h1M121 124h1M11 125h1M121 125h1M11 126h1M121 126h1M11 127h1M121 127h1M11 128h1M121 128h1M11 129h1M121 129h1M11 130h1M121 130h1M11 131h1M121 131h1M11 132h1M121 132h1M11 133h1M121 133h1M11 134h1M121 134h1M11 135h1M121 135h1M11 136h1M121 136h1M11 137h1M121 137h1M11 138h1M121 138h1M11 139h1M121 139h1M11 140h1M121 140h1M11 141h1M121 141h1M11 142h1M121 142h1M11 143h1M11 144h1M11 145h1M11 146h1M11 147h1M11 148h1M11 149h1M11 150h1M11 151h1M11 152h1M11 153h1M11 155h1M11 156h1M11 157h1M11 158h1M11 159h1M11 160h1M11 161h1M11 162h1M11 163h1M11 164h1M11 165h1M11 166h1M11 167h1M11 168h1M11 169h1M11 170h1M11 171h1M11 172h1M11 173h1M11 174h1M11 175h1M121 175h1M11 176h1M121 176h1M11 177h1M121 177h1M11 178h1M121 178h1M11 179h1M121 179h1M11 180h1M121 180h1M11 181h90M102 181h20" />
<path stroke="#ff9f03" d="M39 6h1M101 181h1" />
<path stroke="#ff9e02" d="M96 6h1M121 70h1M11 88h1M121 118h1M11 154h1" />
<path stroke="#ffffff" d="M13 8h107M13 9h9M23 9h18M42 9h10M53 9h14M68 9h20M91 9h29M13 10h75M91 10h29M13 11h75M91 11h29M13 12h1M15 12h4M20 12h18M39 12h49M91 12h29M13 13h36M50 13h6M57 13h27M95 13h1M97 13h23M15 14h69M95 14h25M15 15h40M71 15h15M93 15h27M15 16h11M27 16h20M49 16h6M71 16h4M77 16h9M93 16h27M15 17h32M49 17h6M71 17h2M74 17h1M77 17h9M93 17h27M15 18h4M20 18h18M39 18h8M49 18h6M71 18h2M74 18h1M77 18h9M89 18h2M93 18h27M17 19h28M46 19h3M75 19h13M91 19h29M17 20h33M74 20h14M91 20h5M97 20h23M17 21h33M74 21h14M91 21h29M17 22h29M47 22h3M74 22h14M91 22h4M96 22h24M17 23h33M77 23h6M86 23h2M91 23h2M96 23h24M17 24h11M29 24h21M77 24h6M86 24h2M91 24h2M96 24h24M17 25h33M77 25h9M87 25h1M91 25h1M93 25h14M108 25h12M17 26h33M77 26h10M92 26h6M99 26h5M105 26h15M17 27h33M57 27h1M63 27h1M70 27h1M77 27h11M91 27h7M99 27h21M17 28h33M57 28h1M63 28h1M70 28h1M77 28h11M91 28h2M94 28h2M97 28h23M17 29h33M56 29h2M61 29h3M69 29h2M77 29h11M91 29h29M17 30h6M24 30h26M79 30h9M91 30h29M17 31h33M79 31h9M91 31h29M21 32h29M81 32h7M91 32h29M21 33h29M81 33h7M91 33h29M21 34h18M40 34h10M81 34h7M91 34h29M21 35h29M81 35h7M91 35h15M107 35h13M13 36h19M33 36h11M45 36h5M75 36h2M83 36h5M91 36h29M13 37h1M15 37h35M75 37h2M83 37h5M91 37h19M111 37h1M113 37h7M13 38h30M44 38h6M75 38h2M83 38h5M92 38h7M100 38h20M13 39h33M47 39h3M53 39h3M64 39h2M86 39h2M91 39h29M13 40h6M20 40h23M44 40h6M53 40h3M63 40h3M86 40h2M91 40h29M14 41h36M53 41h3M63 41h3M77 41h1M86 41h2M91 41h29M13 42h37M77 42h1M87 42h1M91 42h29M13 43h37M77 43h1M87 43h1M91 43h29M13 44h37M77 44h1M91 44h27M119 44h1M13 45h31M45 45h5M77 45h1M91 45h29M13 46h34M48 46h1M91 46h29M13 47h34M91 47h29M13 48h22M36 48h11M91 48h29M13 49h34M79 49h2M91 49h28M13 50h33M91 50h29M13 51h11M25 51h21M91 51h21M113 51h7M13 52h32M82 52h1M91 52h29M13 53h31M82 53h1M91 53h29M13 54h31M82 54h1M91 54h29M13 55h31M82 55h1M91 55h29M13 56h31M82 56h1M91 56h29M13 57h29M91 57h29M13 58h29M91 58h23M115 58h5M13 59h28M91 59h29M13 60h28M91 60h29M13 61h28M51 61h5M70 61h7M91 61h29M13 62h15M29 62h12M51 62h6M70 62h7M91 62h29M13 63h28M51 63h6M70 63h7M91 63h29M13 64h28M92 64h28M13 65h28M92 65h28M13 66h25M93 66h27M13 67h25M93 67h27M13 68h25M93 68h23M117 68h3M13 69h25M95 69h25M13 70h25M95 70h25M13 71h25M95 71h25M13 72h25M96 72h24M13 73h24M40 73h1M83 73h4M96 73h24M13 74h24M40 74h1M83 74h4M96 74h24M13 75h24M38 75h2M81 75h1M96 75h24M13 76h23M96 76h24M13 77h20M96 77h24M13 78h20M96 78h24M13 79h20M97 79h23M13 80h20M97 80h23M13 81h20M97 81h23M13 82h20M97 82h23M13 83h10M24 83h8M35 83h1M78 83h1M97 83h23M13 84h19M35 84h1M77 84h1M97 84h23M13 85h19M35 85h1M77 85h1M97 85h10M108 85h4M113 85h7M13 86h19M35 86h3M59 86h1M63 86h6M77 86h1M97 86h23M13 87h20M37 87h1M77 87h4M97 87h23M13 88h20M37 88h1M77 88h4M97 88h22M13 89h23M79 89h2M96 89h24M13 90h25M81 90h1M96 90h24M13 91h25M81 91h1M96 91h24M13 92h25M95 92h25M13 93h25M95 93h25M13 94h10M24 94h13M95 94h25M13 95h25M95 95h25M13 96h24M51 96h1M95 96h19M116 96h4M13 97h24M51 97h1M95 97h25M13 98h24M52 98h2M97 98h23M13 99h23M52 99h4M95 99h1M100 99h20M13 100h23M52 100h4M95 100h1M100 100h11M112 100h8M13 101h23M55 101h1M65 101h6M74 101h1M95 101h3M101 101h19M13 102h23M55 102h1M97 102h1M101 102h19M13 103h23M55 103h1M97 103h1M101 103h13M115 103h5M13 104h17M31 104h5M54 104h1M97 104h1M101 104h19M13 105h23M100 105h20M13 106h23M100 106h20M13 107h23M100 107h20M13 108h23M100 108h20M13 109h24M100 109h15M116 109h4M13 110h8M22 110h15M100 110h20M13 111h24M97 111h23M13 112h24M51 112h1M93 112h2M96 112h20M117 112h3M13 113h24M46 113h4M92 113h1M96 113h24M13 114h2M16 114h21M46 114h4M92 114h1M96 114h11M108 114h12M13 115h25M95 115h25M13 116h25M95 116h25M13 117h25M96 117h3M100 117h20M13 118h27M95 118h25M13 119h26M95 119h25M13 120h27M96 120h24M13 121h9M23 121h17M95 121h3M99 121h21M13 122h28M92 122h28M13 123h28M92 123h28M13 124h29M57 124h7M77 124h5M92 124h28M13 125h29M57 125h7M77 125h5M92 125h28M13 126h29M57 126h7M77 126h5M92 126h3M96 126h24M13 127h29M92 127h27M13 128h29M92 128h28M13 129h29M91 129h29M13 130h29M91 130h24M116 130h4M13 131h15M29 131h13M50 131h1M89 131h31M13 132h29M50 132h1M89 132h31M13 133h29M50 133h1M89 133h31M13 134h29M50 134h1M89 134h31M13 135h29M50 135h1M88 135h19M108 135h12M13 136h29M87 136h33M13 137h29M88 137h32M13 138h29M52 138h2M86 138h34M13 139h29M86 139h34M13 140h29M86 140h29M116 140h4M13 141h29M84 141h26M111 141h9M13 142h29M55 142h1M83 142h37M13 143h29M55 143h1M83 143h37M13 144h29M45 144h1M55 144h1M83 144h37M13 145h29M45 145h1M55 145h1M68 145h3M77 145h3M83 145h37M13 146h29M45 146h2M55 146h1M68 146h3M77 146h3M83 146h37M13 147h5M19 147h23M45 147h2M68 147h3M77 147h3M83 147h37M13 148h29M45 148h2M68 148h3M77 148h3M83 148h37M13 149h29M45 149h5M57 149h2M83 149h11M95 149h17M13 150h29M45 150h5M57 150h2M83 150h29M13 151h26M40 151h2M45 151h5M57 151h2M83 151h29M13 152h29M45 152h7M83 152h29M13 153h29M45 153h7M83 153h33M13 154h21M35 154h7M45 154h7M83 154h31M115 154h1M13 155h20M34 155h8M45 155h7M83 155h33M13 156h29M45 156h9M83 156h33M13 157h28M45 157h11M63 157h2M70 157h3M76 157h1M83 157h33M13 158h29M45 158h11M63 158h2M70 158h3M76 158h1M83 158h33M13 159h29M46 159h10M63 159h1M70 159h1M83 159h33M13 160h29M45 160h11M63 160h1M70 160h1M76 160h1M83 160h33M13 161h28M46 161h10M83 161h33M13 162h27M41 162h1M45 162h1M47 162h9M83 162h33M13 163h24M40 163h2M45 163h2M50 163h6M83 163h33M13 164h24M40 164h2M45 164h2M50 164h3M55 164h1M83 164h33M13 165h29M45 165h15M83 165h33M13 166h29M45 166h15M83 166h35M13 167h29M45 167h15M83 167h35M13 168h29M45 168h14M84 168h34M13 169h27M42 169h2M47 169h6M54 169h3M59 169h4M78 169h6M86 169h32M13 170h27M47 170h10M59 170h4M78 170h6M86 170h34M13 171h26M47 171h10M59 171h4M78 171h4M83 171h1M86 171h34M13 172h5M19 172h1M21 172h19M47 172h11M59 172h4M78 172h17M96 172h24M13 173h25M49 173h71M13 174h14M28 174h10M49 174h53M103 174h17M13 175h29M45 175h75M13 176h27M41 176h1M45 176h24M70 176h13M84 176h36M13 177h29M45 177h5M51 177h69M13 178h29M45 178h44M90 178h18M109 178h11M13 179h51M65 179h9M77 179h43" />
<path stroke="#fffffe" d="M22 9h1M56 13h1M73 18h1M98 27h1M106 35h1M44 36h1M14 37h1M110 37h1M112 37h1M47 46h1M112 51h1M56 61h1M28 62h1M93 69h2M37 94h1M30 104h1M116 112h1M15 114h1M99 117h1M22 121h1M98 121h1M115 130h1M28 131h1M87 137h1M94 149h1M34 154h1M45 159h1M53 164h1M95 172h1" />
<path stroke="#fffeff" d="M41 9h1M38 12h1M73 17h1M19 18h1M95 22h1M96 28h1M23 30h1M91 38h1M99 38h1M46 39h1M63 39h1M19 40h1M13 41h1M118 44h1M44 45h1M95 72h1M23 83h1M107 85h1M112 85h1M119 88h1M115 96h1M111 100h1M114 103h1M107 114h1M95 120h1M107 135h1M39 151h1M33 155h1M41 157h1M76 159h1M54 164h1M53 169h1M39 171h1M18 172h1M27 174h1M102 174h1M69 176h1M74 179h1M76 179h1" />
<path stroke="#feffff" d="M52 9h1M67 9h1M14 12h1M19 12h1M49 13h1M96 13h1M26 16h1M38 18h1M45 19h1M96 20h1M46 22h1M28 24h1M107 25h1M98 26h1M104 26h1M93 28h1M39 34h1M32 36h1M43 38h1M43 40h1M35 48h1M119 49h1M24 51h1M114 58h1M116 68h1M23 94h1M114 96h1M115 109h1M21 110h1M95 117h1M39 119h1M95 126h1M119 127h1M115 140h1M110 141h1M18 147h1M114 154h1M82 171h1M20 172h1M58 172h1M40 176h1M83 176h1M50 177h1M89 178h1M108 178h1M64 179h1M75 179h1" />
<path stroke="#ffc051" d="M88 9h1M88 10h1M88 11h1M88 12h1M86 13h5M92 13h1M86 14h5M92 14h1M49 19h1M74 19h1M50 20h1M73 20h1M50 21h1M73 21h1M50 22h1M73 22h1M50 23h1M73 23h1M83 23h1M95 23h1M50 24h1M73 24h1M83 24h1M95 24h1M50 25h1M73 25h1M50 26h1M73 26h1M87 26h2M50 27h4M58 27h1M64 27h1M71 27h3M88 27h1M50 28h4M58 28h1M64 28h1M71 28h3M88 28h1M50 29h6M58 29h3M64 29h5M71 29h3M88 29h3M88 33h3M88 34h3M88 35h1M88 36h1M88 37h1M88 38h1M88 39h1M88 40h1M88 41h1M88 42h1M88 43h1M88 44h1M88 45h1M88 46h1M88 47h1M88 48h1M88 49h1M88 50h1M88 51h1M88 52h1M88 53h1M88 54h1M88 55h1M88 56h1M88 57h1M88 58h1M88 59h1M88 60h1M88 61h1M88 62h1M58 63h2M88 63h1M58 64h2M88 64h1M58 65h2M88 65h1M56 66h13M88 66h1M88 67h1M88 68h1M88 69h1M88 70h1M60 71h4M88 71h1M60 72h4M88 72h1M58 73h2M88 73h1M58 74h2M88 74h1M59 75h1M59 76h2M60 77h1M60 78h1M60 79h1M60 80h1M60 81h1M60 82h1M60 83h1M60 84h3M60 85h3M60 87h1M60 91h1M60 92h1M73 95h1M73 96h1M73 97h1M73 98h1M73 99h1M73 100h1M71 102h3M71 103h3M73 107h1M73 108h1M73 109h1M73 110h1M73 111h2M74 112h1M44 113h1M74 113h2M44 114h1M74 114h2M44 115h1M70 115h4M44 116h1M70 116h4M44 117h1M44 118h1M44 119h1M44 120h1M44 121h1M65 121h12M44 122h1M74 122h2M44 123h1M74 123h2M44 124h1M74 124h2M44 125h1M44 126h1M44 127h1M44 128h1M44 129h1M44 130h1M44 131h1M44 132h1M44 133h1M44 134h1M44 135h1M44 136h1M44 137h1M44 138h1M44 139h1M44 140h1M44 141h1M44 142h1M44 143h1M44 144h1M44 145h1M44 146h1M44 147h1M44 148h1M44 149h1M44 150h1M44 151h1M44 152h1M42 153h3M42 154h3M42 157h3M60 157h3M65 157h5M73 157h3M77 157h6M42 158h3M60 158h3M65 158h5M73 158h3M77 158h6M44 159h1M61 159h2M69 159h1M75 159h1M79 159h4M44 160h1M60 160h3M69 160h1M75 160h1M79 160h4M44 161h2M60 161h1M82 161h1M60 162h1M82 162h1M37 163h1M49 163h1M60 163h1M82 163h1M37 164h1M49 164h1M60 164h1M82 164h1M60 165h1M82 165h1M60 166h1M82 166h1M60 167h1M82 167h1M59 168h1M83 168h1M40 173h1M42 173h5M40 174h1M42 174h5M44 175h1M44 176h1M44 177h1M44 178h1" />
<path stroke="#ffa300" d="M89 9h2M89 10h2M89 11h2M89 12h2M84 13h2M91 13h1M93 13h2M84 14h2M91 14h1M93 14h2M47 16h2M75 16h2M47 17h2M75 17h2M47 18h2M75 18h2M50 19h4M57 19h3M64 19h4M71 19h3M51 20h3M57 20h3M64 20h4M71 20h2M51 21h3M57 21h3M64 21h3M71 21h2M51 22h3M57 22h3M64 22h4M71 22h2M51 23h3M57 23h3M64 23h4M71 23h2M84 23h2M93 23h2M51 24h3M57 24h3M64 24h4M71 24h2M84 24h2M93 24h2M51 25h3M57 25h3M64 25h4M71 25h2M86 25h1M88 25h3M92 25h1M51 26h22M89 26h3M54 27h2M59 27h2M65 27h4M89 27h2M54 28h2M59 28h2M65 28h4M89 28h2M89 35h2M89 36h2M89 37h2M89 38h2M89 39h2M89 40h2M89 41h2M89 42h2M89 43h2M89 44h2M89 45h2M89 46h2M89 47h2M89 48h2M89 49h2M89 50h2M89 51h2M89 52h2M89 53h2M89 54h2M89 55h2M89 56h2M89 57h2M89 58h2M89 59h2M89 60h2M89 61h2M89 62h2M60 63h6M89 63h2M60 64h6M89 64h2M60 65h2M64 65h2M89 65h2M89 66h2M89 67h2M89 68h2M89 69h2M89 70h2M89 71h2M89 72h2M60 73h6M89 73h2M60 74h6M89 74h2M60 75h5M61 76h4M61 77h3M61 78h3M61 79h3M61 80h3M61 81h3M61 82h3M61 83h3M63 84h1M63 85h1M61 87h3M61 91h3M61 92h3M70 95h3M70 96h3M70 97h3M70 98h3M70 99h3M70 100h3M70 102h1M70 103h1M70 107h3M70 108h3M70 109h3M70 110h3M69 111h1M71 111h2M69 112h5M42 113h2M68 113h6M42 114h2M68 114h6M42 115h2M42 116h2M42 117h2M42 118h2M43 119h1M42 120h2M42 121h2M42 122h2M68 122h6M43 123h1M68 123h6M42 124h1M68 124h6M42 125h2M42 126h2M42 127h2M42 128h2M42 129h2M42 130h2M42 131h2M42 132h2M42 133h2M42 134h2M42 135h2M42 136h2M42 137h2M42 138h2M42 139h2M42 140h2M42 141h2M42 142h2M42 143h2M42 144h2M42 145h2M42 146h2M42 147h2M42 148h2M42 149h2M42 150h2M42 151h2M42 152h2M42 159h2M65 159h4M73 159h2M77 159h2M42 160h2M65 160h4M73 160h2M77 160h2M41 161h3M61 161h21M40 162h1M42 162h3M46 162h1M61 162h2M66 162h4M74 162h3M79 162h3M38 163h2M47 163h2M61 163h2M66 163h4M74 163h3M79 163h3M38 164h2M47 164h2M61 164h2M66 164h4M74 164h3M79 164h3M61 165h2M67 165h3M74 165h3M79 165h3M61 166h2M66 166h4M74 166h3M79 166h2M61 167h2M66 167h4M74 167h3M80 167h2M60 168h3M66 168h4M74 168h3M79 168h4M57 169h2M84 169h2M57 170h2M84 170h2M57 171h2M84 171h2M39 173h1M41 173h1M47 173h2M38 174h2M41 174h1M47 174h2M42 175h2M42 176h2M42 177h2M42 178h2" />
<path stroke="#c93038" d="M2 14h13M2 15h13M2 16h13M2 17h13M2 18h13M0 19h4M13 19h4M0 20h4M13 20h4M0 21h4M13 21h4M0 22h4M13 22h4M0 23h4M13 23h4M0 24h1M2 24h2M13 24h4M0 25h4M10 25h7M0 26h4M10 26h7M0 27h4M10 27h7M0 28h4M10 28h7M0 29h17M0 30h17M0 31h14M15 31h2M4 32h17M4 33h17M13 34h8M13 35h8M112 149h8M112 150h8M112 151h17M112 152h17M116 153h17M116 154h14M131 154h2M116 155h7M129 155h4M116 156h7M129 156h4M116 157h1M118 157h5M129 157h4M116 158h7M129 158h4M116 159h7M129 159h4M116 160h4M129 160h4M116 161h4M129 161h4M116 162h4M129 162h4M116 163h4M129 163h4M116 164h4M129 164h4M116 165h4M129 165h4M118 166h11M130 166h1M118 167h13M118 168h13M118 169h13" />
<path stroke="#793a24" d="M55 15h2M86 15h3M55 16h3M64 16h4M86 16h2M55 17h1M57 17h1M64 17h4M86 17h2M55 18h3M64 18h4M86 18h2M54 19h3M60 19h4M68 19h1M88 19h1M54 20h3M60 20h4M68 20h3M88 20h1M54 21h3M61 21h3M68 21h3M88 21h1M88 22h2M88 23h3M88 24h3M74 25h3M74 26h3M74 27h3M74 28h3M74 29h3M73 30h4M88 30h2M73 31h4M88 31h2M73 32h4M88 32h2M73 33h4M73 34h4M77 35h1M77 36h1M77 37h1M77 38h1M78 39h1M78 40h1M78 41h1M78 42h1M78 43h1M78 44h1M78 45h1M79 46h3M49 47h1M81 47h1M49 48h1M81 48h1M49 49h1M81 49h3M49 50h1M83 50h1M49 51h1M83 51h1M46 52h4M83 52h1M45 53h5M83 53h3M45 54h5M83 54h3M45 55h1M83 55h3M45 56h1M83 56h3M45 57h1M83 57h5M45 58h1M83 58h5M42 59h4M42 60h4M42 64h3M50 64h5M70 64h5M42 65h3M50 65h5M70 65h5M42 66h2M50 66h2M70 66h1M77 66h11M91 66h1M40 67h4M50 67h2M70 67h1M77 67h2M87 67h1M40 68h4M50 68h2M70 68h1M77 68h2M87 68h1M40 69h4M50 69h2M70 69h1M77 69h2M87 69h1M40 70h1M50 70h2M70 70h1M77 70h2M87 70h1M40 71h1M50 71h2M64 71h2M77 71h2M86 71h2M40 72h1M50 72h2M64 72h2M77 72h2M86 72h2M50 73h2M66 73h2M77 73h1M50 74h2M66 74h2M77 74h1M50 75h2M65 75h1M52 76h4M65 76h1M55 77h2M64 77h1M55 78h2M64 78h1M55 79h2M69 79h1M77 79h1M57 80h1M64 80h1M69 80h1M57 81h1M64 81h1M69 81h1M57 82h1M64 82h1M69 82h1M57 83h1M64 83h1M68 83h2M58 84h2M64 84h5M58 85h2M64 85h5M51 87h5M64 87h1M51 88h5M64 88h1M52 89h2M55 89h1M64 89h1M51 90h6M64 90h2M77 90h2M51 91h6M64 91h2M77 91h2M51 92h9M64 92h17M53 95h17M74 95h8M54 96h2M68 96h2M77 96h5M54 97h2M68 97h2M77 97h5M69 98h1M77 98h5M69 99h1M77 99h5M69 100h1M77 100h5M65 102h5M74 102h2M65 103h5M74 103h2M64 104h2M69 104h1M76 104h1M56 105h1M64 105h1M69 105h1M76 105h1M56 106h1M64 106h1M69 106h1M76 106h1M56 107h1M64 107h1M69 107h1M76 107h1M55 108h2M64 108h1M69 108h1M77 108h1M56 109h1M69 109h1M77 109h1M56 110h1M69 110h1M77 110h1M56 111h1M68 111h1M77 111h4M56 112h1M68 112h1M81 112h2M55 113h2M66 113h2M81 113h2M55 114h2M66 114h2M81 114h2M45 115h2M54 115h2M68 115h2M81 115h2M92 115h1M45 116h2M54 116h2M68 116h2M81 116h2M92 116h1M45 117h1M54 117h2M63 117h1M81 117h2M92 117h1M45 118h1M54 118h2M63 118h1M81 118h2M89 118h4M45 119h1M54 119h2M63 119h1M81 119h2M89 119h4M45 120h1M54 120h2M63 120h1M81 120h2M89 120h4M41 121h1M45 121h11M63 121h1M81 121h2M89 121h2M59 122h5M78 122h5M88 122h3M59 123h5M78 123h5M88 123h3M87 127h4M87 128h4M45 129h5M87 129h1M45 130h5M87 130h1M47 131h3M87 131h1M47 132h3M87 132h1M47 133h3M83 133h5M47 134h3M83 134h5M49 135h1M83 135h4M49 136h1M83 136h1M49 137h1M49 138h3M83 138h1M51 139h1M83 139h1M51 140h1M83 140h1M51 141h3M54 142h1M54 143h1M54 144h1M54 145h1M54 146h1M54 147h1M54 148h1M55 149h2M55 150h2M55 151h2M55 152h2M56 153h5M56 154h5M43 155h2M56 155h5M43 156h2M57 156h4M57 157h3M57 158h3M57 159h3M57 160h3M57 161h3M57 162h3M42 163h3M42 164h3M43 165h2M44 166h1M63 166h3M70 166h4M77 166h2M44 167h1M63 167h3M70 167h4M77 167h2M44 168h1M65 168h1M70 168h4M77 168h1M45 169h2M66 169h4M76 169h2M45 170h2M66 170h4M76 170h2M45 171h2M66 171h4M76 171h2M44 172h3M77 172h1" />
<path stroke="#a75032" d="M57 15h14M90 15h3M58 16h6M68 16h3M91 16h2M58 17h6M68 17h3M91 17h2M58 18h6M68 18h3M91 18h2M69 19h2M89 19h2M89 20h2M89 21h2M90 22h1M90 30h1M90 31h1M77 32h2M90 32h1M77 33h2M77 34h2M78 35h1M78 36h4M78 37h4M78 38h4M79 39h5M79 40h5M79 41h5M79 42h2M82 42h2M79 43h5M79 44h8M79 45h8M82 46h5M82 47h5M82 48h5M84 49h3M84 50h4M85 51h3M84 52h4M86 53h2M86 54h2M46 55h3M86 55h2M46 56h3M86 56h2M46 57h3M46 58h3M46 59h3M58 59h8M46 60h1M48 60h1M58 60h8M58 61h7M58 62h8M44 66h1M52 66h3M71 66h4M44 67h5M52 67h3M71 67h4M79 67h8M91 67h1M44 68h5M52 68h3M71 68h4M79 68h8M91 68h1M44 69h5M52 69h3M71 69h4M79 69h8M91 69h1M41 70h8M52 70h3M71 70h4M79 70h8M91 70h1M52 71h8M66 71h9M79 71h7M91 71h2M52 72h8M66 72h9M79 72h7M91 72h2M52 73h6M68 73h7M78 73h4M93 73h2M52 74h6M69 74h6M78 74h4M93 74h2M52 75h7M66 75h9M77 75h2M56 76h3M66 76h5M77 76h2M57 77h3M66 77h4M77 77h2M57 78h3M65 78h5M77 78h2M57 79h3M65 79h4M78 79h1M58 80h2M65 80h4M58 81h2M65 81h4M58 82h2M65 82h4M58 83h2M65 83h3M56 87h4M65 87h12M56 88h4M65 88h12M56 89h4M65 89h12M57 90h3M66 90h11M57 91h3M66 91h11M56 96h12M74 96h3M56 97h12M74 97h3M56 98h13M74 98h3M57 99h12M74 99h3M57 100h12M74 100h3M66 104h3M74 104h2M65 105h4M74 105h2M65 106h4M74 106h2M65 107h4M74 107h2M54 108h1M65 108h4M74 108h3M54 109h2M64 109h5M74 109h3M54 110h2M64 110h5M74 110h3M54 111h2M63 111h5M75 111h2M54 112h1M59 112h9M75 112h6M38 113h2M51 113h4M59 113h7M76 113h5M38 114h2M51 114h4M59 114h7M76 114h5M40 115h2M47 115h7M59 115h9M74 115h7M40 116h2M47 116h7M59 116h9M74 116h7M40 117h2M46 117h8M59 117h4M78 117h3M84 117h8M41 118h1M46 118h8M59 118h4M78 118h3M84 118h5M41 119h1M46 119h8M59 119h4M78 119h3M84 119h5M41 120h1M46 120h8M59 120h4M78 120h3M84 120h5M59 121h4M78 121h3M88 121h1M68 125h8M68 126h8M68 127h8M84 127h3M68 128h8M84 128h3M84 129h3M84 130h3M45 131h2M84 131h3M45 132h2M84 132h3M45 133h2M45 134h2M45 135h4M45 136h4M45 137h4M46 138h3M46 139h5M46 140h5M46 141h5M46 142h8M46 143h8M49 144h5M49 145h5M49 146h5M49 147h5M49 148h5M51 149h4M51 150h4M51 151h4M54 152h1M54 153h2M54 154h2M42 155h1M54 155h2M42 156h1M42 165h1M42 166h2M42 167h2M42 168h2M63 168h2M40 169h2M63 169h3M70 169h6M40 170h2M63 170h3M70 170h6M40 171h2M63 171h3M70 171h6M40 172h3M63 172h14" />
<path stroke="#ac3232" d="M89 15h1M88 16h1M88 17h1M60 88h4M60 89h4M60 90h4M70 104h4M70 105h4M70 106h4M44 170h1M43 171h2M43 172h1" />
<path stroke="#ff0000" d="M89 16h2M89 17h2M42 170h2M42 171h1" />
<path stroke="#783a24" d="M56 17h1M54 89h1" />
<path stroke="#c1d3dc" d="M88 18h1M56 27h1M61 27h2M69 27h1M56 28h1M61 28h2M69 28h1M75 35h2M77 39h1M77 40h1M79 47h2M79 48h2M82 50h1M82 51h1M50 60h7M69 60h8M50 61h1M69 61h1M50 62h1M69 62h1M50 63h1M69 63h1M64 124h1M82 124h1M64 125h1M82 125h1M64 126h1M82 126h1M57 127h8M77 127h6M50 136h1M50 137h1M52 139h2M52 140h2M55 147h1M55 148h1M57 152h2M64 159h1M71 159h2M64 160h1M71 160h2M44 169h1" />
<path stroke="#793b24" d="M60 21h1M51 89h1M83 137h1M78 168h1" />
<path stroke="#ffa301" d="M67 21h1M63 65h1M70 111h1M79 167h1M38 173h1" />
<path stroke="#c93039" d="M1 24h1M129 166h1" />
<path stroke="#c93138" d="M14 31h1M130 154h1M117 157h1" />
<path stroke="#ee8b79" d="M52 35h11M52 36h2M62 36h1M62 37h1M62 38h1M71 39h3M71 40h3M71 41h2M52 42h1M71 42h2M52 43h1M71 43h2M52 44h1M71 44h2M52 45h1M71 45h1M52 46h1M70 46h3M52 47h1M52 48h1M52 49h1M52 50h1M52 51h1M52 52h1M52 53h1M52 54h1M52 55h2M52 56h16M40 76h6M86 76h1M88 76h3M40 77h5M84 77h3M40 78h5M84 78h3M40 79h4M84 79h3M40 80h4M84 80h3M40 81h4M84 81h3M40 82h4M84 82h3M40 83h9M84 83h5M84 84h8M82 85h1M84 85h8M41 102h8M50 102h1M41 103h8M50 103h1M44 104h5M84 104h5M90 104h3M46 105h3M89 105h4M46 106h3M89 106h4M46 107h3M89 107h4M46 108h3M89 108h4M46 109h3M88 109h5M46 110h3M88 110h5M42 111h5M87 111h6M66 131h15M79 132h2M80 133h1M80 134h1M80 135h1M80 136h1M80 137h1M80 138h1M80 139h1M80 140h1M61 141h3M80 141h1M61 142h2M80 142h1M61 143h2M80 143h1M61 144h2M80 144h1M61 145h2M61 146h2M60 147h3M60 148h3M71 150h1M71 151h1M79 151h2M71 152h10" />
<path stroke="#fecca9" d="M54 36h8M56 37h6M56 38h6M52 39h1M56 39h7M52 40h1M56 40h7M52 41h1M56 41h7M73 41h1M53 42h13M73 42h1M53 43h13M73 43h1M53 44h15M73 44h1M53 45h15M73 45h1M53 46h15M73 46h1M53 47h15M53 48h4M58 48h10M53 49h15M53 50h2M56 50h12M53 51h2M56 51h7M64 51h4M53 52h3M63 52h5M53 53h3M63 53h1M65 53h3M53 54h15M54 55h10M65 55h3M46 76h3M45 77h4M87 77h5M45 78h4M87 78h5M44 79h5M87 79h5M44 80h2M47 80h2M87 80h5M44 81h5M87 81h5M44 82h5M87 82h5M82 83h1M89 83h3M41 104h3M50 104h1M41 105h5M84 105h5M41 106h5M84 106h5M41 107h5M84 107h5M41 108h5M84 108h5M41 109h5M84 109h4M41 110h5M84 110h2M87 110h1M84 111h3M66 132h1M68 132h11M66 133h14M66 134h4M77 134h3M66 135h4M77 135h3M66 136h3M70 136h7M78 136h2M66 137h9M76 137h4M66 138h14M66 139h4M71 139h9M66 140h14M60 141h1M66 141h14M60 142h1M66 142h14M60 143h1M66 143h14M60 144h1M68 144h12M60 145h1M71 145h6M80 145h1M60 146h1M71 146h6M80 146h1M71 147h6M80 147h1M71 148h6M80 148h1M71 149h6M72 150h5M72 151h7" />
<path stroke="#d95763" d="M52 37h4M63 37h3M56 53h7M70 134h7M68 149h3M77 149h4" />
<path stroke="#a75132" d="M81 42h1M55 112h1" />
<path stroke="#ef8b79" d="M72 45h1M82 84h1" />
<path stroke="#ffcda9" d="M57 48h1" />
<path stroke="#ffcca9" d="M55 50h1M86 110h1M67 132h1" />
<path stroke="#a75033" d="M84 51h1M68 74h1M65 77h1" />
<path stroke="#fecda9" d="M64 53h1M46 80h1M70 139h1" />
<path stroke="#fe9f02" d="M121 54h1M11 84h1" />
<path stroke="#fecca8" d="M64 55h1M75 137h1" />
<path stroke="#a65032" d="M47 60h1M65 61h1M92 70h1" />
<path stroke="#ffa200" d="M62 65h1M42 119h1M42 123h1M43 124h1" />
<path stroke="#009dff" d="M41 73h8M87 73h1M41 74h8M87 74h1M82 75h4M38 76h1M81 76h2M37 77h3M81 77h2M37 78h3M81 78h2M35 79h5M81 79h2M35 80h4M79 80h2M35 81h5M79 81h2M35 82h5M79 82h2M36 83h4M79 83h2M36 84h4M78 84h3M36 85h4M78 85h3M38 86h2M78 86h3M38 87h2M81 87h2M38 88h2M81 88h2M37 89h4M81 89h2M41 90h9M82 90h10M93 90h2M40 91h10M82 91h10M93 91h2M38 96h2M41 96h10M83 96h3M87 96h6M38 97h2M41 97h10M83 97h10M50 98h2M92 98h4M50 99h2M93 99h2M50 100h2M93 100h2M52 101h3M93 101h2M52 102h3M93 102h4M52 103h3M93 103h4M52 104h2M93 104h4M52 105h2M93 105h5M53 106h1M93 106h5M52 107h2M93 107h3M97 107h1M50 108h2M93 108h5M50 109h2M93 109h3M50 110h2M93 110h3M50 111h2M93 111h2M47 112h4M45 113h1M84 113h8M45 114h1M84 114h8" />
<path stroke="#29adff" d="M91 73h1M91 74h1M93 76h2M93 77h2M93 78h2M93 79h2M93 80h3M93 81h3M93 82h3M93 83h3M93 84h3M93 85h3M40 86h10M93 86h3M40 87h10M83 87h13M40 88h10M83 88h13M41 89h9M83 89h12M92 90h1M92 91h1M40 96h1M40 97h1M38 98h12M83 98h9M37 99h13M83 99h10M37 100h13M83 100h10M37 101h3M83 101h10M37 102h3M37 103h3M37 104h3M37 105h3M37 106h3M37 107h3M38 108h2M38 109h2M38 110h2M38 111h2M40 112h1M41 113h1M41 114h1" />
<path stroke="#29adfe" d="M92 75h1" />
<path stroke="#019dff" d="M39 76h1M39 80h1M40 90h1M96 107h1" />
<path stroke="#ee8a79" d="M87 76h1M89 104h1" />
<path stroke="#793a25" d="M64 79h1" />
<path stroke="#9badb7" d="M58 86h1M60 86h3M71 101h3M75 101h1" />
<path stroke="#009cff" d="M86 96h1" />
<path stroke="#009dfe" d="M52 106h1" />
<path stroke="#fec051" d="M60 159h1" />
<path stroke="#fea300" d="M66 165h1M81 166h1" />
</svg>