<svg xmlns="http://www.w3.org/2000/svg" viewBox="0 -0.5 55 24" shape-rendering="crispEdges">
<metadata>Made with Pixels to Svg https://codepen.io/shshaw/pen/XbxvNj</metadata>
<path stroke="#222034" d="M3 0h4M8 0h7M16 0h9M26 0h4M31 0h1M34 0h15M51 0h1M2 1h1M52 1h1M2 2h1M52 2h1M1 3h2M52 3h2M1 4h2M7 4h2M10 4h2M16 4h1M18 4h2M26 4h4M34 4h5M40 4h1M43 4h4M48 4h1M52 4h2M1 5h2M6 5h1M12 5h1M15 5h1M20 5h1M25 5h1M34 5h1M41 5h1M43 5h1M52 5h2M1 6h2M6 6h1M12 6h1M14 6h1M24 6h1M31 6h1M34 6h1M41 6h1M43 6h1M53 6h1M1 7h2M6 7h1M24 7h1M31 7h1M34 7h1M41 7h1M43 7h1M52 7h2M1 8h2M7 8h2M31 8h1M34 8h1M41 8h1M43 8h6M52 8h2M1 9h2M10 9h3M14 9h1M24 9h1M31 9h1M36 9h2M39 9h2M43 9h1M1 10h2M12 10h1M14 10h1M24 10h1M31 10h1M34 10h1M38 10h1M43 10h1M52 10h2M6 11h1M14 11h1M21 11h1M24 11h1M31 11h1M34 11h1M39 11h1M43 11h1M53 11h1M1 12h1M6 12h1M15 12h1M20 12h1M25 12h1M30 12h1M34 12h1M40 12h1M43 12h1M1 13h2M7 13h1M9 13h1M16 13h4M27 13h3M34 13h1M41 13h1M43 13h5M53 13h1M1 14h1M52 14h2M1 15h2M52 15h2M1 16h1M52 16h2M1 17h2M52 17h2M1 18h1M3 18h21M27 18h4M32 18h8M41 18h3M45 18h1M47 18h5M53 18h1M1 19h1M53 19h1M1 20h1M52 20h2M4 21h2M7 21h6M14 21h21M36 21h3M42 21h1M44 21h9" />
<path stroke="#222134" d="M7 0h1M25 0h1M49 0h1M9 4h1M39 4h1M52 6h1M14 8h1M34 9h1M52 9h1M2 11h1M52 12h1M48 13h1M2 14h1M25 18h1M31 18h1M40 18h1M46 18h1M2 20h1M13 21h1M40 21h1M43 21h1" />
<path stroke="#232034" d="M15 0h1M30 0h1M33 0h1M17 4h1M47 4h1M21 6h1M14 7h1M1 11h1M52 11h1M12 12h1M8 13h1M11 13h1M26 13h1M2 16h1M24 18h1M3 21h1M6 21h1M39 21h1" />
<path stroke="#222035" d="M32 0h1M50 0h1M30 5h1M9 8h1M24 8h1M35 9h1M38 9h1M53 9h1M12 11h1M2 12h1M53 12h1M10 13h1M52 13h1M26 18h1M44 18h1M2 21h1M35 21h1M41 21h1" />
<path stroke="#e5892b" d="M3 1h5M10 1h3M14 1h6M21 1h7M29 1h1M31 1h2M34 1h1M36 1h8M45 1h4M50 1h2M3 2h3M7 2h9M18 2h8M27 2h4M32 2h4M37 2h3M41 2h1M43 2h4M48 2h4M3 3h5M9 3h9M20 3h13M34 3h3M38 3h5M45 3h7M3 4h4M12 4h3M20 4h2M23 4h3M30 4h4M41 4h2M50 4h1M3 5h3M7 5h2M10 5h1M14 5h1M19 5h1M21 5h4M28 5h1M31 5h2M35 5h6M42 5h1M44 5h4M49 5h3M3 6h3M7 6h5M13 6h1M16 6h5M22 6h1M25 6h5M32 6h1M35 6h1M37 6h4M42 6h1M44 6h4M49 6h3M3 7h1M5 7h1M7 7h2M10 7h4M15 7h2M18 7h6M25 7h4M30 7h1M33 7h1M35 7h2M38 7h1M40 7h1M42 7h1M44 7h4M49 7h3M3 8h4M11 8h3M15 8h3M19 8h5M25 8h4M30 8h1M32 8h2M35 8h3M39 8h2M42 8h1M49 8h3M3 9h7M13 9h1M16 9h8M25 9h5M32 9h2M41 9h2M45 9h2M48 9h4M3 10h3M7 10h5M13 10h1M15 10h2M18 10h6M25 10h1M27 10h4M35 10h1M37 10h1M40 10h3M46 10h6M3 11h3M7 11h1M9 11h3M13 11h1M15 11h1M17 11h4M23 11h1M25 11h2M28 11h3M33 11h1M35 11h4M40 11h1M44 11h8M3 12h3M7 12h5M13 12h2M17 12h3M21 12h4M26 12h2M29 12h1M32 12h1M35 12h5M41 12h2M44 12h5M50 12h1M3 13h2M6 13h1M12 13h2M15 13h1M20 13h1M22 13h4M30 13h2M33 13h1M36 13h1M38 13h3M42 13h1M49 13h3M3 14h9M13 14h3M17 14h10M28 14h5M35 14h6M44 14h3M48 14h3M4 15h6M11 15h11M24 15h2M27 15h8M36 15h2M39 15h1M41 15h1M45 15h7M3 16h10M14 16h5M20 16h4M25 16h19M45 16h3M49 16h1M3 17h3M7 17h21M29 17h1M31 17h4M37 17h9M47 17h4" />
<path stroke="#e4892b" d="M8 1h1M20 1h1M35 1h1M44 1h1M16 2h1M31 2h1M40 2h1M18 3h1M33 3h1M13 5h1M16 5h1M15 6h1M30 6h1M33 6h1M36 6h1M48 6h1M17 7h1M29 7h1M32 7h1M10 8h1M15 9h1M30 9h1M17 10h1M26 10h1M32 10h1M44 10h1M16 11h1M22 11h1M33 12h1M51 12h1M5 13h1M14 13h1M32 13h1M35 13h1M16 14h1M34 14h1M43 14h1M3 15h1M42 15h1M44 16h1M50 16h1M28 17h1M46 17h1" />
<path stroke="#e5882b" d="M9 1h1M30 1h1M33 1h1M17 2h1M26 2h1M47 2h1M19 3h1M37 3h1M43 3h1M15 4h1M51 4h1M11 5h1M17 5h1M26 5h1M29 5h1M9 7h1M39 7h1M48 7h1M29 8h1M38 8h1M6 10h1M33 10h1M36 10h1M39 10h1M45 10h1M8 11h1M32 11h1M41 11h1M16 12h1M28 12h1M31 12h1M49 12h1M21 13h1M41 14h1M47 14h1M10 15h1M22 15h1M40 15h1M43 15h1M24 16h1M48 16h1M51 16h1M35 17h1" />
<path stroke="#e5892a" d="M13 1h1M28 1h1M49 1h1M6 2h1M36 2h1M42 2h1M8 3h1M44 3h1M22 4h1M49 4h1M9 5h1M18 5h1M27 5h1M33 5h1M48 5h1M23 6h1M4 7h1M37 7h1M18 8h1M44 9h1M47 9h1M27 11h1M42 11h1M37 13h1M12 14h1M27 14h1M33 14h1M42 14h1M51 14h1M23 15h1M26 15h1M35 15h1M38 15h1M44 15h1M13 16h1M19 16h1M6 17h1M30 17h1M36 17h1M51 17h1" />
<path stroke="#45275b" d="M1 2h1M53 2h1M0 3h1M54 3h1M0 4h1M54 4h1M0 5h1M54 5h1M54 6h1M0 7h1M54 7h1M0 8h1M54 8h1M0 9h1M54 9h1M0 10h1M54 11h1M0 12h1M54 12h1M0 13h1M54 13h1M0 14h1M54 14h1M0 15h1M54 15h1M0 16h1M0 17h1M54 17h1M2 18h1M52 18h1M54 18h1M0 19h1M2 19h2M7 19h28M36 19h1M38 19h2M41 19h6M48 19h2M51 19h2M54 19h1M0 20h1M3 20h14M19 20h2M22 20h18M41 20h7M49 20h3M54 20h1M1 21h1M53 21h1M2 22h9M12 22h4M17 22h6M24 22h4M29 22h1M31 22h5M37 22h5M43 22h2M46 22h3M50 22h4" />
<path stroke="#44275b" d="M0 6h1M0 18h1M5 19h1M35 19h1M47 19h1M50 19h1M40 20h1M11 22h1M23 22h1" />
<path stroke="#45265b" d="M54 10h1M54 16h1M6 19h1M17 20h1M30 22h1M36 22h1M42 22h1M45 22h1" />
<path stroke="#45275a" d="M0 11h1M4 19h1M37 19h1M40 19h1M18 20h1M21 20h1M48 20h1M1 22h1M16 22h1M28 22h1M49 22h1" />
</svg>