<svg xmlns="http://www.w3.org/2000/svg" viewBox="0 -0.5 55 24" shape-rendering="crispEdges">
<metadata>Made with Pixels to Svg https://codepen.io/shshaw/pen/XbxvNj</metadata>
<path stroke="#232034" d="M3 0h1M6 0h1M42 0h1M2 1h1M37 5h1M2 7h1M18 9h1M2 10h1M11 10h1M32 10h1M6 12h1M28 14h1M2 16h1M30 18h1M9 21h1" />
<path stroke="#222134" d="M4 0h1M16 0h1M2 5h1M1 6h1M18 7h1M39 7h1M2 8h1M53 8h1M18 10h1M2 11h1M37 12h1M6 13h1M20 14h1M25 18h1M37 18h1M43 18h1M19 21h1M22 21h1M43 21h1" />
<path stroke="#222034" d="M5 0h1M7 0h9M17 0h25M43 0h7M51 0h1M52 1h1M2 2h1M52 2h1M1 3h1M52 3h1M1 4h2M52 4h2M1 5h1M7 5h5M15 5h7M24 5h1M32 5h5M38 5h1M42 5h3M46 5h2M52 5h2M2 6h1M6 6h1M12 6h1M18 6h1M23 6h1M25 6h1M32 6h1M39 6h1M45 6h1M52 6h2M1 7h1M6 7h1M12 7h1M23 7h1M25 7h1M32 7h1M45 7h1M52 7h2M1 8h1M6 8h1M18 8h1M23 8h1M25 8h1M32 8h1M45 8h1M52 8h1M1 9h2M7 9h3M22 9h1M26 9h1M32 9h1M39 9h1M45 9h1M52 9h2M12 10h1M22 10h1M26 10h1M33 10h1M35 10h4M45 10h1M52 10h2M1 11h1M12 11h1M21 11h7M32 11h1M36 11h1M45 11h1M52 11h2M1 12h2M12 12h1M18 12h1M21 12h1M27 12h1M32 12h1M45 12h1M52 12h2M1 13h2M12 13h1M18 13h1M20 13h1M28 13h1M32 13h1M38 13h1M45 13h1M52 13h2M1 14h2M7 14h5M18 14h1M32 14h1M39 14h1M45 14h1M52 14h2M1 15h2M52 15h2M1 16h1M52 16h2M1 17h2M52 17h2M1 18h1M3 18h22M26 18h4M31 18h4M36 18h1M39 18h4M44 18h8M1 19h1M53 19h1M1 20h2M52 20h2M2 21h7M10 21h7M18 21h1M20 21h2M23 21h12M36 21h7M44 21h6M51 21h2" />
<path stroke="#222035" d="M50 0h1M2 3h1M53 3h1M45 5h1M48 5h1M39 8h1M1 10h1M10 10h1M34 10h1M18 11h1M35 18h1M38 18h1M53 18h1M17 21h1M35 21h1M50 21h1" />
<path stroke="#e5892b" d="M3 1h1M5 1h4M10 1h2M13 1h1M15 1h5M22 1h5M29 1h6M36 1h8M45 1h6M3 2h4M8 2h4M14 2h2M17 2h5M23 2h9M33 2h3M37 2h3M41 2h2M44 2h8M4 3h4M9 3h4M14 3h5M20 3h14M35 3h1M37 3h1M39 3h1M41 3h6M48 3h4M3 4h5M9 4h15M25 4h10M37 4h7M47 4h2M50 4h1M3 5h2M6 5h1M12 5h3M22 5h2M25 5h7M39 5h2M49 5h3M3 6h3M7 6h4M13 6h5M20 6h3M24 6h1M26 6h6M34 6h5M40 6h5M46 6h2M50 6h2M3 7h3M7 7h5M13 7h1M15 7h3M19 7h4M24 7h1M26 7h3M30 7h1M33 7h3M37 7h2M41 7h3M46 7h6M3 8h3M7 8h10M19 8h4M24 8h1M26 8h6M33 8h5M40 8h5M46 8h2M49 8h3M3 9h4M10 9h1M12 9h1M14 9h2M17 9h1M20 9h2M24 9h2M28 9h4M33 9h1M35 9h4M42 9h1M44 9h1M46 9h1M48 9h4M3 10h7M13 10h5M19 10h3M23 10h3M27 10h5M39 10h5M46 10h6M3 11h3M7 11h4M13 11h5M20 11h1M28 11h4M33 11h3M37 11h3M43 11h2M46 11h6M3 12h3M7 12h1M11 12h1M13 12h5M19 12h2M24 12h3M28 12h4M33 12h4M38 12h5M44 12h1M46 12h3M50 12h1M3 13h1M5 13h1M7 13h5M13 13h3M17 13h1M19 13h1M22 13h4M27 13h1M29 13h3M33 13h4M39 13h5M46 13h1M48 13h4M3 14h1M5 14h2M12 14h6M19 14h1M21 14h7M29 14h2M33 14h6M41 14h2M44 14h1M46 14h4M51 14h1M3 15h1M5 15h3M9 15h8M18 15h5M24 15h1M26 15h11M38 15h4M43 15h1M45 15h2M48 15h4M3 16h1M5 16h3M10 16h2M13 16h6M20 16h1M22 16h5M28 16h5M34 16h8M43 16h1M45 16h7M3 17h6M10 17h7M18 17h17M36 17h5M43 17h9" />
<path stroke="#e5892a" d="M4 1h1M28 1h1M12 2h1M36 2h1M8 3h1M38 3h1M47 3h1M46 4h1M49 4h1M11 6h1M31 7h1M40 7h1M48 8h1M11 9h1M23 9h1M41 9h1M47 9h1M6 11h1M42 11h1M8 12h1M23 12h1M4 13h1M16 13h1M37 13h1M8 15h1M17 15h1M23 15h1M44 15h1M47 15h1M4 16h1M19 16h1M9 17h1M42 17h1" />
<path stroke="#e5882b" d="M9 1h1M12 1h1M21 1h1M27 1h1M51 1h1M32 2h1M13 3h1M19 3h1M34 3h1M40 3h1M24 4h1M36 4h1M45 4h1M51 4h1M5 5h1M41 5h1M19 6h1M49 6h1M36 7h1M17 8h1M38 8h1M13 9h1M16 9h1M19 9h1M34 9h1M40 9h1M43 9h1M11 11h1M41 11h1M10 12h1M22 12h1M43 12h1M49 12h1M21 13h1M50 14h1M4 15h1M25 15h1M37 15h1M9 16h1M12 16h1M21 16h1M27 16h1M33 16h1M42 16h1M17 17h1M35 17h1M41 17h1" />
<path stroke="#e4892b" d="M14 1h1M20 1h1M35 1h1M44 1h1M7 2h1M13 2h1M16 2h1M22 2h1M40 2h1M43 2h1M3 3h1M36 3h1M8 4h1M35 4h1M44 4h1M33 6h1M48 6h1M14 7h1M29 7h1M44 7h1M27 9h1M44 10h1M19 11h1M40 11h1M9 12h1M51 12h1M26 13h1M44 13h1M47 13h1M4 14h1M31 14h1M40 14h1M43 14h1M42 15h1M8 16h1M44 16h1" />
<path stroke="#45275b" d="M1 2h1M53 2h1M54 3h1M0 4h1M54 4h1M0 5h1M54 5h1M0 6h1M0 7h1M54 7h1M0 8h1M0 9h1M0 10h1M54 10h1M0 12h1M54 12h1M0 14h1M54 14h1M0 15h1M54 15h1M0 16h1M54 16h1M0 17h1M54 17h1M0 18h1M2 18h1M52 18h1M54 18h1M2 19h5M8 19h8M17 19h7M25 19h1M27 19h1M29 19h8M38 19h8M47 19h6M54 19h1M6 20h8M15 20h2M19 20h28M50 20h1M54 20h1M1 21h1M53 21h1M1 22h2M4 22h1M6 22h3M10 22h2M13 22h1M15 22h10M26 22h11M38 22h1M40 22h5M46 22h3M50 22h4" />
<path stroke="#44275b" d="M0 3h1M54 6h1M54 9h1M26 19h1M4 20h1M49 20h1M5 22h1M14 22h1" />
<path stroke="#45275a" d="M54 8h1M0 11h1M54 11h1M7 19h1M16 19h1M28 19h1M37 19h1M46 19h1M0 20h1M3 20h1M18 20h1M48 20h1M51 20h1M25 22h1M37 22h1M49 22h1" />
<path stroke="#45265b" d="M0 13h1M54 13h1M0 19h1M24 19h1M5 20h1M14 20h1M17 20h1M47 20h1M3 22h1M9 22h1M12 22h1M39 22h1M45 22h1" />
</svg>