<svg xmlns="http://www.w3.org/2000/svg" viewBox="0 -0.5 160 80" shape-rendering="crispEdges">
<metadata>Made with Pixels to Svg https://codepen.io/shshaw/pen/XbxvNj</metadata>
<path stroke="#000000" d="M5 0h11M17 0h15M33 0h108M142 0h13M5 1h4M10 1h16M27 1h24M52 1h52M105 1h12M118 1h23M142 1h13M3 2h2M155 2h2M3 3h2M155 3h2M3 4h2M155 4h2M3 5h2M155 5h2M3 6h2M155 6h2M3 7h2M155 7h2M2 8h3M155 8h3M2 9h3M155 9h3M2 10h3M155 10h3M2 11h2M155 11h3M2 12h3M155 12h3M2 13h3M155 13h3M2 14h3M155 14h3M2 15h3M155 15h3M2 16h3M155 16h3M2 17h3M155 17h3M2 18h3M155 18h3M2 19h3M155 19h3M2 20h3M155 20h3M2 21h3M155 21h3M2 22h3M155 22h3M2 23h3M21 23h8M82 23h7M155 23h3M2 24h3M21 24h8M82 24h7M155 24h3M2 25h3M19 25h2M29 25h1M33 25h2M63 25h2M81 25h1M89 25h1M155 25h3M2 26h3M19 26h2M29 26h1M33 26h2M63 26h2M81 26h1M89 26h1M155 26h3M2 27h3M17 27h2M30 27h2M33 27h2M63 27h2M79 27h2M90 27h2M155 27h3M2 28h3M17 28h2M30 28h2M33 28h2M63 28h2M79 28h2M90 28h2M155 28h3M2 29h3M17 29h2M32 29h6M44 29h7M55 29h2M59 29h9M78 29h1M100 29h6M114 29h4M122 29h5M135 29h4M155 29h3M2 30h3M17 30h2M32 30h6M44 30h7M55 30h2M59 30h9M78 30h1M100 30h6M111 30h1M114 30h5M122 30h5M135 30h4M155 30h3M2 31h3M17 31h2M32 31h6M44 31h7M55 31h2M59 31h9M78 31h1M100 31h6M111 31h1M114 31h5M122 31h5M135 31h4M155 31h3M2 32h3M19 32h2M33 32h2M43 32h1M51 32h1M55 32h4M63 32h2M78 32h1M98 32h2M106 32h2M111 32h3M119 32h3M127 32h1M133 32h2M139 32h2M155 32h3M2 33h3M19 33h2M33 33h2M43 33h1M51 33h1M55 33h4M63 33h2M78 33h1M98 33h2M106 33h2M111 33h3M119 33h3M127 33h1M133 33h2M139 33h2M155 33h3M2 34h2M21 34h4M33 34h2M41 34h2M51 34h1M55 34h2M63 34h2M78 34h1M97 34h1M106 34h2M111 34h1M119 34h1M127 34h1M131 34h2M141 34h2M155 34h3M2 35h3M21 35h4M33 35h2M41 35h2M51 35h1M55 35h2M63 35h2M78 35h1M97 35h1M106 35h2M111 35h1M119 35h1M127 35h1M131 35h2M141 35h2M155 35h3M2 36h3M25 36h5M33 36h2M48 36h3M55 36h2M63 36h2M78 36h1M86 36h7M103 36h5M111 36h1M119 36h1M127 36h1M131 36h2M141 36h2M155 36h3M2 37h3M25 37h5M33 37h2M48 37h4M55 37h2M63 37h2M78 37h1M86 37h7M103 37h5M111 37h1M119 37h1M127 37h1M131 37h2M141 37h2M155 37h3M2 38h3M30 38h2M33 38h2M43 38h5M51 38h1M55 38h2M63 38h2M78 38h1M92 38h1M98 38h5M106 38h2M111 38h1M119 38h1M127 38h1M131 38h12M155 38h3M2 39h3M30 39h2M33 39h2M43 39h5M51 39h1M55 39h2M63 39h2M78 39h1M92 39h1M98 39h5M106 39h2M111 39h1M119 39h1M127 39h1M131 39h12M155 39h3M2 40h3M30 40h2M33 40h2M43 40h5M51 40h1M55 40h2M63 40h2M78 40h1M92 40h1M98 40h5M106 40h2M111 40h1M119 40h1M127 40h1M131 40h1M133 40h10M155 40h3M2 41h3M30 41h2M33 41h2M41 41h2M51 41h1M55 41h2M63 41h2M78 41h1M92 41h1M97 41h1M106 41h2M111 41h1M119 41h1M127 41h1M131 41h2M155 41h3M2 42h3M30 42h2M33 42h2M41 42h2M51 42h1M55 42h1M63 42h2M78 42h1M92 42h1M97 42h1M106 42h2M111 42h1M119 42h1M127 42h1M131 42h2M155 42h3M2 43h3M17 43h2M30 43h2M33 43h2M41 43h2M51 43h1M55 43h2M63 43h2M79 43h2M90 43h2M97 43h1M106 43h2M111 43h1M119 43h1M127 43h1M131 43h2M141 43h2M155 43h3M2 44h3M18 44h1M30 44h2M33 44h2M41 44h2M51 44h1M55 44h2M63 44h2M79 44h2M90 44h2M97 44h1M106 44h2M111 44h1M119 44h1M127 44h1M131 44h2M141 44h2M155 44h3M2 45h3M19 45h2M29 45h1M33 45h2M41 45h2M49 45h3M55 45h2M63 45h2M81 45h1M89 45h1M97 45h1M105 45h3M111 45h1M119 45h1M127 45h1M133 45h2M139 45h1M155 45h3M2 46h3M19 46h2M29 46h1M33 46h2M41 46h2M49 46h3M55 46h2M63 46h2M81 46h1M89 46h1M97 46h1M105 46h3M111 46h1M119 46h1M127 46h1M133 46h2M139 46h2M155 46h3M2 47h3M21 47h6M28 47h1M33 47h5M43 47h6M51 47h1M55 47h2M63 47h4M82 47h2M85 47h4M98 47h7M106 47h2M111 47h1M119 47h1M127 47h1M135 47h4M155 47h3M2 48h1M4 48h1M21 48h8M33 48h5M43 48h6M51 48h1M55 48h2M64 48h4M82 48h7M98 48h7M106 48h2M111 48h1M119 48h1M127 48h1M135 48h4M155 48h3M2 49h2M155 49h3M2 50h3M155 50h3M2 51h3M155 51h3M2 52h3M155 52h3M2 53h3M155 53h3M2 54h3M155 54h3M2 55h3M155 55h3M2 56h3M155 56h3M2 57h3M155 57h3M2 58h3M155 58h3M2 59h3M155 59h3M2 60h3M155 60h3M2 61h3M155 61h3M2 62h3M155 62h1M157 62h1M2 63h3M155 63h3M2 64h3M155 64h3M2 65h3M155 65h3M2 66h3M155 66h3M2 67h3M155 67h3M2 68h3M155 68h3M2 69h3M155 69h3M2 70h1M5 70h69M75 70h42M118 70h37M157 70h1M2 71h1M5 71h78M84 71h4M89 71h12M102 71h37M140 71h15M157 71h1M2 72h1M5 72h39M45 72h30M76 72h79M157 72h1M2 73h1M157 73h1M2 74h1M157 74h1M2 75h3M155 75h3M2 76h3M155 76h3M3 77h47M51 77h71M123 77h34M3 78h69M73 78h28M102 78h55" />
<path stroke="#010000" d="M16 0h1M32 0h1M26 1h1M104 1h1M111 29h1M4 34h1M132 40h1M17 44h1M140 45h1M27 47h1M67 47h1M84 47h1M4 49h1M74 70h1M117 70h1M83 71h1M101 71h1M139 71h1M101 78h1" />
<path stroke="#000001" d="M141 0h1M117 1h1M141 1h1M4 11h1M156 62h1M75 72h1M50 77h1" />
<path stroke="#000100" d="M9 1h1M51 1h1M118 29h1M51 36h1M56 42h1M3 48h1M63 48h1M88 71h1M44 72h1M122 77h1M72 78h1" />
<path stroke="#df7126" d="M5 2h18M24 2h112M137 2h18M5 3h7M13 3h35M49 3h52M102 3h53M5 4h41M47 4h11M59 4h2M62 4h17M80 4h13M94 4h61M5 5h37M43 5h48M92 5h63M5 6h20M26 6h46M73 6h82M5 7h1M7 7h5M13 7h89M103 7h6M110 7h36M147 7h8M5 8h50M56 8h29M86 8h69M5 9h29M35 9h120M5 10h132M138 10h13M152 10h3M5 11h17M23 11h54M78 11h42M121 11h34M5 12h2M8 12h15M24 12h34M59 12h85M145 12h10M5 13h45M51 13h6M58 13h97M5 14h20M26 14h22M49 14h6M56 14h99M5 15h8M14 15h44M59 15h47M107 15h40M148 15h7M5 16h2M8 16h5M14 16h23M38 16h117M5 17h143M150 17h5M5 18h11M17 18h10M28 18h127M5 19h28M34 19h72M107 19h3M111 19h44M5 20h41M47 20h108M5 21h5M11 21h68M80 21h62M143 21h12M5 22h39M45 22h110M5 23h16M29 23h4M34 23h46M81 23h1M89 23h17M107 23h48M5 24h10M16 24h5M29 24h20M50 24h32M89 24h28M118 24h3M122 24h33M5 25h14M21 25h8M30 25h3M35 25h28M65 25h16M82 25h7M90 25h38M129 25h26M5 26h14M21 26h5M27 26h2M30 26h3M35 26h5M41 26h22M65 26h16M82 26h7M90 26h20M111 26h16M128 26h27M5 27h12M20 27h10M32 27h1M35 27h28M65 27h8M74 27h5M81 27h9M92 27h17M110 27h45M5 28h7M13 28h4M19 28h11M32 28h1M35 28h28M65 28h1M67 28h12M81 28h9M92 28h27M120 28h35M5 29h5M11 29h6M19 29h12M38 29h6M51 29h4M57 29h2M68 29h10M79 29h21M107 29h4M112 29h2M119 29h3M127 29h8M139 29h16M5 30h12M19 30h13M38 30h6M51 30h4M57 30h2M68 30h10M79 30h21M106 30h5M112 30h2M119 30h1M121 30h1M127 30h8M139 30h16M5 31h12M19 31h4M24 31h8M38 31h6M51 31h4M57 31h2M68 31h10M79 31h1M81 31h1M83 31h17M106 31h5M112 31h2M119 31h3M127 31h7M139 31h16M5 32h14M21 32h12M35 32h8M44 32h7M52 32h2M59 32h4M65 32h13M79 32h19M100 32h3M104 32h2M108 32h3M114 32h5M122 32h5M128 32h5M135 32h4M141 32h10M152 32h3M5 33h14M21 33h12M35 33h8M44 33h7M52 33h3M59 33h4M65 33h13M79 33h19M100 33h6M108 33h3M114 33h5M122 33h5M128 33h5M135 33h4M141 33h14M5 34h16M25 34h8M35 34h6M43 34h7M52 34h3M57 34h6M65 34h13M79 34h18M98 34h8M108 34h3M112 34h2M115 34h4M120 34h7M128 34h3M133 34h8M143 34h12M5 35h16M25 35h8M35 35h6M43 35h1M45 35h6M52 35h3M57 35h6M65 35h8M74 35h4M79 35h18M99 35h7M108 35h3M112 35h7M120 35h7M128 35h3M133 35h8M143 35h12M5 36h20M30 36h3M35 36h13M52 36h3M57 36h3M61 36h2M65 36h12M79 36h7M94 36h9M108 36h3M112 36h7M120 36h7M128 36h3M133 36h8M143 36h12M5 37h20M30 37h3M35 37h8M44 37h4M52 37h1M54 37h1M57 37h6M65 37h13M79 37h7M93 37h10M108 37h3M112 37h7M120 37h2M123 37h4M128 37h3M133 37h8M143 37h12M5 38h25M32 38h1M35 38h2M38 38h5M48 38h3M52 38h3M58 38h5M65 38h13M79 38h13M93 38h5M103 38h3M108 38h3M112 38h7M121 38h6M128 38h3M143 38h12M5 39h25M32 39h1M35 39h8M48 39h3M52 39h3M57 39h6M65 39h9M75 39h3M79 39h13M93 39h5M103 39h3M108 39h3M112 39h7M120 39h7M128 39h3M143 39h12M5 40h25M32 40h1M35 40h8M48 40h3M52 40h3M57 40h6M65 40h13M79 40h7M87 40h5M93 40h5M103 40h3M108 40h3M112 40h7M120 40h7M128 40h3M143 40h12M5 41h25M32 41h1M35 41h6M43 41h8M52 41h3M57 41h6M65 41h13M79 41h11M91 41h1M93 41h4M98 41h8M108 41h3M112 41h7M120 41h7M128 41h3M133 41h22M5 42h16M22 42h8M32 42h1M35 42h6M43 42h8M52 42h3M58 42h5M65 42h13M79 42h13M93 42h4M98 42h8M108 42h3M112 42h7M120 42h7M128 42h3M133 42h22M5 43h12M19 43h11M32 43h1M35 43h6M43 43h8M52 43h3M57 43h6M65 43h14M81 43h8M93 43h4M98 43h8M108 43h3M112 43h7M120 43h7M128 43h3M133 43h8M143 43h12M5 44h12M19 44h11M32 44h1M35 44h6M43 44h8M52 44h3M57 44h6M65 44h14M81 44h9M92 44h5M98 44h8M108 44h2M112 44h7M120 44h7M128 44h3M133 44h8M143 44h12M5 45h14M21 45h8M30 45h3M35 45h6M43 45h6M52 45h3M57 45h2M60 45h3M65 45h16M82 45h7M90 45h7M98 45h7M108 45h3M112 45h7M120 45h7M128 45h5M135 45h4M141 45h12M154 45h1M5 46h6M12 46h7M21 46h8M30 46h3M35 46h6M43 46h3M47 46h2M52 46h3M57 46h4M62 46h1M65 46h15M82 46h7M90 46h7M98 46h7M109 46h2M112 46h7M120 46h7M128 46h5M135 46h4M141 46h14M5 47h13M19 47h2M29 47h4M38 47h5M49 47h2M52 47h3M57 47h6M68 47h14M89 47h9M105 47h1M108 47h3M112 47h7M120 47h7M128 47h7M139 47h16M5 48h16M29 48h1M31 48h2M38 48h5M49 48h2M52 48h3M57 48h6M68 48h6M75 48h7M89 48h9M105 48h1M108 48h3M112 48h7M120 48h7M128 48h7M139 48h16M5 49h3M9 49h9M19 49h73M94 49h61M5 50h61M67 50h22M90 50h4M95 50h46M142 50h13M5 51h80M86 51h10M97 51h16M114 51h4M119 51h10M130 51h3M134 51h21M5 52h76M82 52h21M104 52h51M5 53h15M21 53h73M95 53h60M5 54h33M39 54h60M100 54h14M115 54h24M140 54h15M5 55h61M67 55h88M5 56h46M52 56h27M80 56h61M142 56h13M5 57h28M34 57h4M39 57h40M80 57h75M5 58h37M43 58h24M68 58h10M79 58h76M5 59h52M58 59h4M63 59h10M74 59h81M5 60h20M26 60h17M44 60h86M131 60h24M5 61h23M29 61h124M154 61h1M5 62h1M7 62h33M41 62h5M47 62h8M56 62h58M115 62h40M5 63h82M88 63h67M6 64h78M85 64h4M90 64h4M95 64h3M99 64h29M129 64h21M151 64h4M6 65h5M12 65h32M45 65h2M48 65h88M137 65h5M143 65h10M154 65h1M5 66h46M52 66h103M5 67h73M79 67h23M103 67h30M134 67h21M5 68h51M57 68h19M77 68h53M131 68h24M5 69h56M62 69h11M74 69h34M109 69h7M117 69h38" />
<path stroke="#df7127" d="M23 2h1M12 3h1M93 4h1M25 6h1M72 6h1M12 7h1M102 7h1M55 8h1M34 9h1M137 10h1M151 10h1M58 12h1M50 13h1M25 14h1M149 17h1M106 19h1M10 21h1M79 21h1M44 22h1M128 25h1M127 26h1M119 28h1M10 29h1M31 29h1M23 31h1M134 31h1M151 32h1M77 36h1M37 38h1M120 38h1M21 42h1M57 42h1M89 43h1M59 45h1M153 45h1M11 46h1M80 46h1M18 47h1M18 49h1M93 49h1M94 50h1M118 51h1M103 52h1M20 53h1M38 54h1M99 54h1M114 54h1M139 54h1M66 55h1M79 57h1M57 59h1M25 60h1M28 61h1M55 62h1M5 64h1M51 66h1M78 67h1M56 68h1M76 68h1M130 68h1M61 69h1M73 69h1M108 69h1" />
<path stroke="#de7126" d="M136 2h1M48 3h1M58 4h1M42 5h1M91 5h1M22 11h1M120 11h1M57 13h1M48 14h1M13 15h1M58 15h1M7 16h1M13 16h1M16 18h1M27 18h1M110 19h1M46 20h1M33 23h1M80 23h1M15 24h1M117 24h1M121 24h1M26 26h1M110 26h1M73 27h1M120 30h1M80 31h1M82 31h1M54 32h1M103 32h1M50 34h1M114 34h1M73 35h1M60 36h1M57 38h1M86 40h1M90 41h1M92 43h1M46 46h1M61 46h1M30 48h1M74 48h1M8 49h1M113 51h1M129 51h1M81 52h1M79 56h1M141 56h1M38 57h1M42 58h1M67 58h1M62 59h1M73 59h1M43 60h1M114 62h1M84 64h1M89 64h1M94 64h1M98 64h1M128 64h1M44 65h1M153 65h1M133 67h1" />
<path stroke="#df7026" d="M101 3h1M46 4h1M61 4h1M79 4h1M6 7h1M109 7h1M146 7h1M85 8h1M77 11h1M7 12h1M23 12h1M144 12h1M55 14h1M106 15h1M147 15h1M37 16h1M148 17h1M33 19h1M142 21h1M106 23h1M49 24h1M40 26h1M19 27h1M109 27h1M12 28h1M66 28h1M106 29h1M44 35h1M98 35h1M93 36h1M43 37h1M53 37h1M122 37h1M74 39h1M110 44h1M108 46h1M92 49h1M66 50h1M89 50h1M141 50h1M85 51h1M96 51h1M133 51h1M94 53h1M51 56h1M33 57h1M78 58h1M130 60h1M153 61h1M6 62h1M40 62h1M46 62h1M87 63h1M150 64h1M5 65h1M11 65h1M47 65h1M136 65h1M142 65h1M102 67h1M116 69h1" />
<path stroke="#394a50" d="M2 6h1M157 6h1M2 7h1M157 7h1M0 8h2M158 8h1M0 9h2M158 9h2M0 10h2M158 10h2M0 11h2M158 11h2M0 12h2M158 12h2M0 13h2M158 13h2M0 14h1M158 14h2M0 15h2M158 15h2M0 16h2M158 16h2M0 17h2M158 17h1M0 18h1M158 18h2M0 19h2M158 19h2M0 20h2M158 20h2M0 21h2M158 21h2M0 22h2M158 22h2M0 23h2M158 23h2M0 24h2M158 24h2M0 25h2M158 25h2M0 26h2M158 26h2M0 27h2M158 27h2M0 28h2M158 28h2M0 29h2M158 29h2M0 30h2M158 30h2M0 31h2M158 31h2M0 32h2M158 32h2M0 33h2M158 33h2M0 34h2M159 34h1M0 35h2M158 35h2M0 36h2M158 36h2M0 37h2M158 37h2M0 38h2M158 38h2M0 39h2M158 39h2M0 40h2M158 40h2M0 41h2M158 41h2M0 42h2M158 42h2M0 43h2M158 43h2M0 44h2M158 44h2M0 45h2M158 45h2M0 46h2M158 46h2M1 47h1M158 47h2M0 48h2M158 48h2M0 49h2M158 49h2M0 50h2M158 50h2M0 51h2M159 51h1M0 52h2M158 52h2M0 53h2M158 53h2M0 54h2M158 54h2M0 55h2M158 55h2M0 56h2M158 56h2M0 57h2M158 57h2M0 58h2M158 58h2M0 59h2M158 59h2M0 60h2M158 60h2M0 61h2M158 61h2M0 62h2M158 62h2M0 63h2M158 63h1M0 64h2M158 64h2M0 65h2M158 65h1M0 66h2M158 66h2M0 67h2M158 67h2M0 68h2M158 68h2M0 69h2M158 69h2M0 70h2M3 70h2M155 70h2M159 70h1M0 71h2M4 71h1M155 71h2M158 71h1M0 72h2M3 72h2M155 72h2M158 72h2M0 73h2M3 73h52M56 73h18M75 73h53M129 73h28M158 73h2M0 74h2M3 74h117M121 74h36M158 74h2M0 75h2M5 75h119M125 75h30M158 75h2M0 76h2M5 76h18M24 76h72M97 76h24M122 76h22M145 76h1M147 76h8M158 76h2M2 77h1M157 77h1M2 78h1M157 78h1M3 79h34M38 79h24M63 79h72M136 79h21" />
<path stroke="#384a50" d="M159 8h1M1 18h1M0 47h1M158 51h1M159 63h1M159 65h1M120 74h1M62 79h1" />
<path stroke="#394b50" d="M1 14h1M159 17h1M158 34h1M159 71h1M128 73h1M23 76h1M135 79h1" />
<path stroke="#394a51" d="M158 70h1M3 71h1M55 73h1M74 73h1M124 75h1M96 76h1M121 76h1M144 76h1M146 76h1M37 79h1" />
</svg>