<svg xmlns="http://www.w3.org/2000/svg" viewBox="0 -0.5 400 200" shape-rendering="crispEdges">
<metadata>Made with Pixels to Svg https://codepen.io/shshaw/pen/XbxvNj</metadata>
<path stroke="#222034" d="M136 17h40M177 17h90M136 18h55M192 18h48M241 18h26M135 19h1M267 19h2M135 20h1M267 20h2M135 21h1M267 21h2M135 22h1M267 22h2M133 23h3M267 23h2M133 24h3M267 24h4M133 25h3M267 25h4M133 26h3M267 26h4M133 27h3M267 27h4M133 28h3M267 28h4M133 29h3M267 29h4M133 30h3M145 30h2M160 30h2M169 30h9M186 30h13M205 30h11M227 30h10M242 30h2M255 30h2M267 30h4M133 31h3M145 31h2M160 31h2M169 31h9M186 31h13M205 31h11M227 31h10M242 31h2M255 31h2M267 31h4M133 32h3M145 32h4M158 32h4M167 32h2M178 32h2M186 32h2M199 32h3M205 32h2M216 32h2M226 32h1M237 32h2M244 32h2M253 32h2M267 32h4M133 33h3M145 33h4M158 33h4M167 33h2M178 33h2M186 33h2M199 33h3M205 33h2M216 33h2M226 33h1M237 33h2M244 33h2M253 33h2M268 33h3M133 34h3M145 34h4M158 34h4M165 34h2M180 34h2M186 34h2M199 34h3M205 34h2M218 34h2M224 34h2M239 34h1M244 34h2M253 34h2M267 34h4M133 35h3M145 35h4M158 35h4M165 35h2M180 35h2M186 35h2M199 35h3M205 35h2M218 35h2M224 35h2M239 35h1M244 35h2M253 35h2M267 35h4M133 36h3M145 36h2M149 36h2M156 36h2M160 36h2M165 36h2M180 36h2M186 36h2M199 36h3M205 36h2M218 36h2M224 36h2M239 36h1M246 36h2M251 36h2M267 36h4M133 37h3M145 37h2M149 37h2M156 37h2M160 37h2M165 37h2M180 37h2M186 37h2M199 37h3M205 37h2M218 37h2M224 37h2M239 37h1M246 37h2M251 37h2M267 37h4M133 38h3M145 38h2M149 38h2M156 38h2M160 38h2M165 38h2M180 38h2M186 38h2M199 38h3M205 38h2M218 38h2M224 38h2M239 38h1M248 38h3M267 38h4M133 39h3M145 39h2M151 39h1M154 39h2M160 39h2M165 39h2M180 39h2M186 39h13M205 39h2M218 39h2M224 39h2M239 39h1M248 39h3M267 39h4M133 40h3M145 40h2M151 40h1M154 40h2M160 40h2M165 40h2M180 40h2M186 40h13M205 40h2M218 40h2M224 40h2M239 40h1M248 40h3M267 40h2M270 40h1M133 41h3M145 41h2M151 41h1M154 41h2M160 41h2M165 41h2M180 41h2M186 41h2M193 41h2M205 41h2M218 41h2M224 41h2M239 41h1M246 41h2M251 41h2M267 41h4M133 42h3M145 42h2M151 42h1M154 42h2M160 42h2M165 42h2M180 42h2M186 42h2M193 42h2M205 42h2M218 42h2M224 42h2M239 42h1M246 42h2M251 42h2M267 42h4M133 43h3M145 43h2M151 43h1M154 43h2M160 43h2M165 43h2M180 43h2M186 43h2M195 43h2M205 43h2M218 43h2M224 43h2M239 43h1M244 43h2M253 43h2M267 43h4M133 44h3M145 44h2M151 44h1M154 44h2M160 44h2M165 44h2M180 44h2M186 44h2M195 44h2M205 44h2M218 44h2M224 44h2M239 44h1M244 44h2M253 44h2M267 44h4M133 45h3M145 45h2M152 45h2M160 45h2M167 45h2M178 45h2M186 45h2M197 45h2M205 45h2M216 45h2M226 45h1M237 45h2M244 45h2M253 45h2M267 45h4M133 46h3M145 46h2M152 46h2M160 46h2M167 46h2M178 46h2M186 46h2M197 46h2M205 46h2M216 46h2M226 46h1M237 46h2M244 46h2M253 46h2M267 46h4M133 47h3M145 47h2M152 47h2M160 47h2M169 47h9M186 47h1M199 47h3M205 47h11M227 47h10M242 47h2M255 47h2M267 47h4M133 48h3M267 48h4M133 49h3M267 49h4M133 50h3M267 50h4M133 51h3M267 51h4M133 52h3M267 52h4M133 53h3M267 53h4M133 54h3M267 54h4M133 55h3M267 55h4M133 56h3M267 56h4M133 57h3M267 57h4M133 58h3M267 58h4M133 59h2M136 59h131M269 59h2M133 60h2M136 60h131M269 60h2M133 61h2M269 61h2M133 62h2M269 62h2M133 63h3M267 63h4M135 64h134M135 65h134" />
<path stroke="#222035" d="M176 17h1M191 18h1M187 47h1" />
<path stroke="#222134" d="M240 18h1M267 33h1M269 40h1" />
<path stroke="#ffffff" d="M136 19h131M136 20h131M136 21h32M169 21h54M224 21h43M136 22h45M182 22h26M209 22h58M136 23h131M136 24h131M136 25h131M136 26h131M136 27h131M136 28h131M136 29h47M184 29h83M136 30h9M147 30h12M162 30h7M178 30h8M199 30h6M216 30h11M237 30h5M244 30h11M257 30h10M136 31h9M147 31h13M162 31h7M178 31h8M199 31h6M216 31h11M237 31h5M244 31h11M257 31h10M136 32h9M149 32h9M162 32h5M169 32h9M180 32h6M188 32h11M202 32h3M207 32h9M218 32h8M227 32h10M239 32h5M246 32h7M255 32h12M136 33h9M149 33h9M162 33h5M169 33h9M180 33h6M188 33h11M202 33h3M207 33h9M218 33h8M227 33h10M239 33h5M246 33h2M249 33h4M255 33h12M136 34h9M149 34h9M162 34h3M167 34h13M182 34h4M188 34h11M202 34h3M207 34h11M220 34h4M226 34h13M240 34h4M246 34h7M255 34h12M136 35h9M149 35h9M162 35h3M167 35h13M182 35h4M188 35h11M202 35h3M207 35h11M220 35h4M226 35h13M240 35h4M246 35h7M255 35h12M136 36h9M147 36h2M151 36h5M158 36h2M162 36h3M167 36h13M182 36h4M188 36h11M202 36h3M207 36h11M220 36h4M226 36h13M240 36h6M248 36h3M253 36h14M136 37h9M147 37h2M151 37h5M158 37h2M162 37h3M167 37h13M182 37h4M188 37h11M202 37h3M207 37h11M220 37h4M226 37h13M240 37h6M248 37h3M253 37h14M136 38h9M147 38h2M151 38h5M158 38h2M162 38h3M167 38h13M182 38h4M188 38h11M202 38h3M207 38h11M220 38h4M226 38h13M240 38h8M251 38h16M136 39h9M147 39h4M152 39h2M156 39h4M162 39h3M167 39h13M182 39h4M199 39h6M207 39h11M220 39h4M226 39h13M240 39h4M245 39h3M251 39h16M136 40h9M147 40h4M152 40h2M156 40h4M162 40h3M167 40h13M182 40h4M199 40h6M207 40h5M213 40h5M220 40h4M226 40h13M240 40h8M251 40h16M136 41h9M147 41h4M152 41h2M156 41h4M162 41h3M167 41h13M182 41h4M188 41h5M195 41h10M207 41h11M220 41h4M226 41h13M240 41h6M248 41h3M253 41h14M136 42h9M147 42h4M152 42h2M156 42h4M162 42h3M167 42h13M182 42h4M188 42h5M195 42h10M207 42h11M220 42h4M226 42h13M240 42h6M248 42h3M253 42h14M136 43h9M147 43h4M152 43h2M156 43h4M162 43h3M167 43h13M182 43h4M188 43h7M197 43h8M207 43h11M220 43h4M226 43h13M240 43h4M246 43h7M255 43h12M136 44h9M147 44h4M152 44h2M156 44h4M162 44h3M167 44h13M182 44h4M188 44h7M197 44h8M207 44h11M220 44h4M226 44h13M240 44h4M246 44h7M255 44h12M136 45h9M147 45h5M154 45h6M162 45h5M169 45h9M180 45h6M188 45h9M199 45h6M207 45h9M218 45h8M227 45h10M239 45h5M246 45h7M255 45h12M136 46h9M147 46h5M154 46h6M162 46h5M169 46h9M180 46h6M188 46h9M199 46h6M207 46h9M218 46h8M227 46h10M239 46h5M246 46h7M255 46h12M136 47h9M147 47h5M154 47h6M162 47h7M178 47h8M188 47h11M202 47h3M216 47h4M221 47h6M237 47h5M244 47h11M257 47h10M136 48h56M193 48h74M136 49h131M136 50h131M136 51h117M254 51h13M136 52h36M173 52h94M136 53h131M136 54h106M243 54h24M136 55h116M253 55h14M136 56h37M174 56h66M241 56h13M255 56h12M136 57h131M136 58h131" />
<path stroke="#45275b" d="M133 21h2M133 22h2M269 22h2M131 23h2M269 23h2M131 24h2M271 24h2M131 25h2M271 25h2M131 26h2M271 26h2M131 27h2M271 27h2M131 28h2M271 28h2M131 29h2M271 29h2M131 30h2M271 30h2M131 31h2M271 31h2M131 32h2M271 32h2M131 33h2M271 33h2M131 34h2M271 34h2M131 35h2M271 35h2M131 36h2M271 36h2M131 37h2M271 37h2M131 38h2M271 38h2M131 39h2M271 39h2M131 40h2M271 40h2M131 41h2M271 41h2M131 42h2M271 42h2M131 43h2M271 43h2M131 44h2M271 44h2M131 45h2M271 45h2M131 46h2M271 46h2M131 47h2M271 47h2M131 48h2M271 48h2M131 49h2M271 49h2M131 50h2M271 50h2M131 51h2M271 51h2M131 52h2M271 52h2M131 53h2M271 53h2M131 54h2M271 54h2M131 55h2M271 55h2M131 56h2M271 56h2M131 57h2M271 57h2M131 58h2M271 58h2M131 59h2M135 59h1M267 59h2M271 59h2M131 60h2M135 60h1M267 60h2M271 60h2M131 61h2M135 61h134M271 61h2M131 62h2M135 62h74M210 62h59M271 62h2M131 63h2M136 63h55M192 63h75M271 63h2M131 64h4M269 64h2M131 65h3M269 65h2M133 66h138M133 67h1M135 67h57M193 67h78" />
<path stroke="#feffff" d="M168 21h1M181 22h1M208 22h1M159 30h1M248 33h1M212 40h1M192 48h1M252 55h1M240 56h1" />
<path stroke="#fffffe" d="M223 21h1M253 51h1M172 52h1M173 56h1M254 56h1" />
<path stroke="#fffeff" d="M183 29h1M244 39h1M220 47h1M242 54h1" />
<path stroke="#44275b" d="M209 62h1M191 63h1M192 67h1" />
<path stroke="#45265b" d="M134 65h1" />
<path stroke="#45275a" d="M134 67h1" />
</svg>